Russolo-72ptSemiBold.ufo
<glyph name="exclam" format="2">
  <advance width="501.0"/>
  <unicode hex="0021"/>
  <note>
exclam
</note>
  <outline>
    <contour>
      <point x="236.96" y="324.0" type="curve"/>
      <point x="264.04" y="324.0" type="line"/>
      <point x="267.48" y="936.44"/>
      <point x="352.32" y="1116.08"/>
      <point x="352.32" y="1230.0" type="curve" smooth="yes"/>
      <point x="352.32" y="1293.18"/>
      <point x="259.1" y="1314.78"/>
      <point x="264.04" y="1470.98" type="curve"/>
      <point x="236.96" y="1470.98" type="line"/>
      <point x="241.9" y="1314.78"/>
      <point x="147.82" y="1293.18"/>
      <point x="147.82" y="1230.0" type="curve" smooth="yes"/>
      <point x="147.82" y="1116.08"/>
      <point x="233.52" y="936.44"/>
    </contour>
    <contour>
      <point x="250.5" y="-21.84" type="curve" smooth="yes"/>
      <point x="305.44" y="-21.84"/>
      <point x="349.96" y="22.54"/>
      <point x="349.96" y="79.34" type="curve" smooth="yes"/>
      <point x="349.96" y="135.14"/>
      <point x="305.44" y="177.8"/>
      <point x="250.5" y="177.8" type="curve" smooth="yes"/>
      <point x="195.56" y="177.8"/>
      <point x="150.18" y="135.14"/>
      <point x="150.18" y="79.34" type="curve" smooth="yes"/>
      <point x="150.18" y="22.54"/>
      <point x="194.7" y="-21.84"/>
    </contour>
  </outline>
</glyph>
<glyph name="quotedbl" format="2">
  <advance width="656.2"/>
  <unicode hex="0022"/>
  <note>
quotedbl
</note>
  <outline>
    <contour>
      <point x="398.98" y="845.88" type="line"/>
      <point x="501.48" y="845.88" type="line"/>
      <point x="520.62" y="1362.98" type="line"/>
      <point x="382.98" y="1362.98" type="line"/>
    </contour>
    <contour>
      <point x="153.58" y="845.88" type="line"/>
      <point x="256.08" y="845.88" type="line"/>
      <point x="275.22" y="1362.98" type="line"/>
      <point x="137.58" y="1362.98" type="line"/>
    </contour>
  </outline>
</glyph>
<glyph name="numbersign" format="2">
  <advance width="1286.66"/>
  <unicode hex="0023"/>
  <note>
numbersign
</note>
  <outline>
    <contour>
      <point x="697.0799999999999" y="-1.0" type="line"/>
      <point x="825.88" y="-1.0" type="line"/>
      <point x="1123.36" y="1438.98" type="line"/>
      <point x="993.7" y="1438.98" type="line"/>
    </contour>
    <contour>
      <point x="68.14" y="483.76" type="line"/>
      <point x="1152.66" y="483.76" type="line"/>
      <point x="1152.66" y="505.16" type="line"/>
      <point x="68.14" y="505.16" type="line"/>
    </contour>
    <contour>
      <point x="174.9" y="-1.0" type="line"/>
      <point x="303.7" y="-1.0" type="line"/>
      <point x="601.32" y="1438.98" type="line"/>
      <point x="472.52" y="1438.98" type="line"/>
    </contour>
    <contour>
      <point x="129.42" y="944.52" type="line"/>
      <point x="1214.94" y="944.52" type="line"/>
      <point x="1214.94" y="965.92" type="line"/>
      <point x="129.42" y="965.92" type="line"/>
    </contour>
  </outline>
</glyph>
<glyph name="percent" format="2">
  <advance width="1808.28"/>
  <unicode hex="0025"/>
  <note>
percent
</note>
  <outline>
    <contour>
      <point x="353.78" y="-26.18" type="line"/>
      <point x="466.76" y="-26.18" type="line"/>
      <point x="1411.56" y="1447.58" type="line"/>
      <point x="1298.58" y="1447.58" type="line"/>
    </contour>
    <contour>
      <point x="1346.38" y="-28.119999999999997" type="curve" smooth="yes"/>
      <point x="1579.16" y="-28.119999999999997"/>
      <point x="1714.84" y="136.02"/>
      <point x="1714.84" y="354.0" type="curve" smooth="yes"/>
      <point x="1714.84" y="566.0"/>
      <point x="1571.74" y="735.26"/>
      <point x="1346.38" y="735.26" type="curve" smooth="yes"/>
      <point x="1122.16" y="735.26"/>
      <point x="977.5" y="566.0"/>
      <point x="977.5" y="354.0" type="curve" smooth="yes"/>
      <point x="977.5" y="142.58"/>
      <point x="1107.76" y="-28.119999999999997"/>
    </contour>
    <contour>
      <point x="1346.38" y="-8.419999999999995" type="curve" smooth="yes"/>
      <point x="1216.74" y="-8.419999999999995"/>
      <point x="1136.0" y="135.86"/>
      <point x="1136.0" y="354.0" type="curve" smooth="yes"/>
      <point x="1136.0" y="571.28"/>
      <point x="1216.74" y="716.42"/>
      <point x="1346.38" y="716.42" type="curve" smooth="yes"/>
      <point x="1476.02" y="716.42"/>
      <point x="1556.76" y="572.14"/>
      <point x="1556.76" y="354.0" type="curve" smooth="yes"/>
      <point x="1556.76" y="135.85999999999999"/>
      <point x="1476.88" y="-8.419999999999995"/>
    </contour>
    <contour>
      <point x="462.18" y="703.06" type="curve" smooth="yes"/>
      <point x="694.96" y="703.06"/>
      <point x="830.64" y="867.2"/>
      <point x="830.64" y="1085.18" type="curve" smooth="yes"/>
      <point x="830.64" y="1297.18"/>
      <point x="687.54" y="1466.44"/>
      <point x="462.18" y="1466.44" type="curve" smooth="yes"/>
      <point x="237.96" y="1466.44"/>
      <point x="93.3" y="1297.18"/>
      <point x="93.3" y="1085.18" type="curve" smooth="yes"/>
      <point x="93.3" y="873.76"/>
      <point x="223.56" y="703.06"/>
    </contour>
    <contour>
      <point x="462.18" y="722.76" type="curve" smooth="yes"/>
      <point x="332.54" y="722.76"/>
      <point x="251.79999999999998" y="867.9"/>
      <point x="251.79999999999998" y="1085.18" type="curve" smooth="yes"/>
      <point x="251.79999999999998" y="1302.46"/>
      <point x="332.54" y="1446.74"/>
      <point x="462.18" y="1446.74" type="curve" smooth="yes"/>
      <point x="591.82" y="1446.74"/>
      <point x="673.42" y="1303.32"/>
      <point x="673.42" y="1085.18" type="curve" smooth="yes"/>
      <point x="673.42" y="867.9"/>
      <point x="592.68" y="722.76"/>
    </contour>
  </outline>
</glyph>
<glyph name="ampersand" format="2">
  <advance width="1311.3"/>
  <unicode hex="0026"/>
  <note>
ampersand
</note>
  <outline>
    <contour>
      <point x="596.1" y="-32.42" type="curve" smooth="yes"/>
      <point x="718.5799999999999" y="-32.42"/>
      <point x="824.7" y="-9.98"/>
      <point x="895.72" y="29.620000000000005" type="curve"/>
      <point x="860.94" y="73.7" type="line"/>
      <point x="802.12" y="18.379999999999995"/>
      <point x="682.18" y="-9.159999999999997"/>
      <point x="590.1" y="-9.159999999999997" type="curve" smooth="yes"/>
      <point x="414.7" y="-9.159999999999997"/>
      <point x="316.42" y="193.66"/>
      <point x="316.42" y="389.7" type="curve" smooth="yes"/>
      <point x="316.42" y="624.44"/>
      <point x="445.7" y="772.02"/>
      <point x="606.1" y="772.02" type="curve"/>
      <point x="610.1" y="793.42" type="line"/>
      <point x="481.24" y="793.42"/>
      <point x="394.42" y="948.72"/>
      <point x="394.42" y="1100.0" type="curve" smooth="yes"/>
      <point x="394.42" y="1280.72"/>
      <point x="474.2" y="1449.86"/>
      <point x="648.9" y="1449.86" type="curve" smooth="yes"/>
      <point x="827.52" y="1449.86" type="line"/>
      <point x="827.52" y="1468.98" type="line"/>
      <point x="644.9" y="1468.98" type="line" smooth="yes"/>
      <point x="361.82" y="1468.98"/>
      <point x="203.28" y="1330.76"/>
      <point x="203.28" y="1100.0" type="curve" smooth="yes"/>
      <point x="203.28" y="953.72"/>
      <point x="273.62" y="833.56"/>
      <point x="414.98" y="787.14" type="curve"/>
      <point x="241.96" y="745.32"/>
      <point x="109.58" y="591.5"/>
      <point x="109.58" y="383.7" type="curve" smooth="yes"/>
      <point x="109.58" y="126.74"/>
      <point x="309.34000000000003" y="-32.42"/>
    </contour>
    <contour>
      <point x="1020.64" y="-26.98" type="curve" smooth="yes"/>
      <point x="1108.26" y="-26.98"/>
      <point x="1216.72" y="2.419999999999998"/>
      <point x="1236.0" y="16.259999999999998" type="curve"/>
      <point x="1236.0" y="52.239999999999995" type="line"/>
      <point x="1194.46" y="29.119999999999997"/>
      <point x="1104.12" y="4.120000000000019"/>
      <point x="1061.56" y="4.120000000000019" type="curve" smooth="yes"/>
      <point x="965.38" y="4.120000000000019"/>
      <point x="1010.7" y="137.48"/>
      <point x="1010.7" y="505.84000000000003" type="curve" smooth="yes"/>
      <point x="1010.7" y="772.02" type="line"/>
      <point x="1179.2" y="772.02" type="line"/>
      <point x="1179.2" y="793.42" type="line"/>
      <point x="1010.7" y="793.42" type="line"/>
      <point x="1010.7" y="1120.42" type="line"/>
      <point x="967.9" y="1120.42" type="line"/>
      <point x="967.9" y="825.4"/>
      <point x="841.26" y="793.42"/>
      <point x="679.58" y="793.42" type="curve" smooth="yes"/>
      <point x="609.24" y="793.42" type="line"/>
      <point x="605.24" y="772.02" type="line"/>
      <point x="819.0" y="772.02" type="line"/>
      <point x="819.0" y="315.24" type="line" smooth="yes"/>
      <point x="819.0" y="98.08"/>
      <point x="849.22" y="-26.98"/>
    </contour>
  </outline>
</glyph>
<glyph name="quotesingle" format="2">
  <advance width="410.8"/>
  <unicode hex="0027"/>
  <note>
quotesingle
</note>
  <outline>
    <contour>
      <point x="153.58" y="845.88" type="line"/>
      <point x="256.08" y="845.88" type="line"/>
      <point x="275.22" y="1362.98" type="line"/>
      <point x="137.58" y="1362.98" type="line"/>
    </contour>
  </outline>
</glyph>
<glyph name="parenleft" format="2">
  <advance width="531.42"/>
  <unicode hex="0028"/>
  <note>
parenleft
</note>
  <outline>
    <contour>
      <point x="422.24" y="-414.24" type="curve"/>
      <point x="482.56" y="-376.84" type="line"/>
      <point x="344.58" y="-114.0"/>
      <point x="236.06" y="230.36"/>
      <point x="236.06" y="570.52" type="curve" smooth="yes"/>
      <point x="236.06" y="907.84"/>
      <point x="343.02" y="1257.96"/>
      <point x="484.28" y="1531.88" type="curve"/>
      <point x="420.24" y="1560.0" type="line"/>
      <point x="178.98" y="1220.52"/>
      <point x="76.58" y="930.32"/>
      <point x="76.58" y="576.22" type="curve" smooth="yes"/>
      <point x="76.58" y="222.96"/>
      <point x="177.56" y="-70.56"/>
    </contour>
  </outline>
</glyph>
<glyph name="parenright" format="2">
  <advance width="531.4200000000001"/>
  <unicode hex="0029"/>
  <note>
parenright
</note>
  <outline>
    <contour>
      <point x="109.17999999999999" y="-414.24" type="line"/>
      <point x="353.86" y="-70.56"/>
      <point x="454.84000000000003" y="222.96"/>
      <point x="454.84000000000003" y="576.22" type="curve" smooth="yes"/>
      <point x="454.84000000000003" y="930.32"/>
      <point x="353.3" y="1220.52"/>
      <point x="111.18" y="1560.0" type="curve"/>
      <point x="47.13999999999999" y="1531.88" type="line"/>
      <point x="188.4" y="1257.96"/>
      <point x="295.36" y="907.84"/>
      <point x="295.36" y="570.52" type="curve" smooth="yes"/>
      <point x="295.36" y="230.36"/>
      <point x="187.70000000000002" y="-114.0"/>
      <point x="48.86" y="-376.84" type="curve"/>
    </contour>
  </outline>
</glyph>
<glyph name="asterisk" format="2">
  <advance width="774.66"/>
  <unicode hex="002A"/>
  <note>
asterisk
</note>
  <outline>
    <contour>
      <point x="395.6" y="1134.3" type="line"/>
      <point x="510.4" y="1227.2"/>
      <point x="584.16" y="1193.48"/>
      <point x="626.8" y="1217.72" type="curve" smooth="yes"/>
      <point x="652.76" y="1232.84"/>
      <point x="623.36" y="1266.52"/>
      <point x="668.8" y="1285.4" type="curve"/>
      <point x="647.84" y="1321.76" type="line"/>
      <point x="608.1" y="1292.62"/>
      <point x="591.68" y="1333.86"/>
      <point x="567.44" y="1319.6" type="curve" smooth="yes"/>
      <point x="526.94" y="1296.5"/>
      <point x="517.66" y="1214.1"/>
      <point x="380.06" y="1161.1" type="curve"/>
    </contour>
    <contour>
      <point x="126.82" y="972.78" type="line"/>
      <point x="166.56" y="1001.92"/>
      <point x="180.39999999999998" y="959.82"/>
      <point x="207.22" y="974.9399999999999" type="curve" smooth="yes"/>
      <point x="249.44" y="998.9"/>
      <point x="257.0" y="1080.44"/>
      <point x="395.6" y="1134.3" type="curve"/>
      <point x="380.06" y="1161.1" type="line"/>
      <point x="264.26" y="1068.2"/>
      <point x="193.94" y="1104.5"/>
      <point x="147.85999999999999" y="1077.68" type="curve" smooth="yes"/>
      <point x="115.88000000000001" y="1059.12"/>
      <point x="151.3" y="1028.88"/>
      <point x="105.86" y="1009.14" type="curve"/>
    </contour>
    <contour>
      <point x="365.94" y="835.08" type="curve"/>
      <point x="408.71999999999997" y="835.08" type="line"/>
      <point x="403.02" y="883.1"/>
      <point x="446.26" y="873.68"/>
      <point x="446.26" y="904.92" type="curve" smooth="yes"/>
      <point x="446.26" y="954.12"/>
      <point x="379.64" y="1000.94"/>
      <point x="402.44" y="1147.7" type="curve"/>
      <point x="372.22" y="1147.7" type="line"/>
      <point x="395.02" y="1000.94"/>
      <point x="328.4" y="954.12"/>
      <point x="328.4" y="904.92" type="curve" smooth="yes"/>
      <point x="328.4" y="873.68"/>
      <point x="371.64" y="883.1"/>
    </contour>
    <contour>
      <point x="380.06" y="1134.3" type="curve"/>
      <point x="395.6" y="1161.1" type="line"/>
      <point x="257.0" y="1214.1"/>
      <point x="247.72000000000003" y="1296.5"/>
      <point x="207.22" y="1319.6" type="curve" smooth="yes"/>
      <point x="182.98000000000002" y="1333.86"/>
      <point x="166.56" y="1292.62"/>
      <point x="126.82" y="1321.76" type="curve"/>
      <point x="105.86" y="1285.4" type="line"/>
      <point x="151.3" y="1266.52"/>
      <point x="121.89999999999998" y="1232.84"/>
      <point x="147.85999999999999" y="1217.72" type="curve" smooth="yes"/>
      <point x="190.5" y="1193.48"/>
      <point x="264.26" y="1227.2"/>
    </contour>
    <contour>
      <point x="567.44" y="974.9399999999999" type="curve" smooth="yes"/>
      <point x="594.26" y="959.82"/>
      <point x="608.1" y="1001.92"/>
      <point x="647.84" y="972.78" type="curve"/>
      <point x="668.8" y="1009.14" type="line"/>
      <point x="623.36" y="1028.88"/>
      <point x="658.78" y="1059.12"/>
      <point x="626.8" y="1077.68" type="curve" smooth="yes"/>
      <point x="580.72" y="1104.5"/>
      <point x="510.4" y="1068.2"/>
      <point x="395.6" y="1161.1" type="curve"/>
      <point x="380.06" y="1134.3" type="line"/>
      <point x="517.66" y="1080.44"/>
      <point x="525.22" y="998.9"/>
    </contour>
    <contour>
      <point x="372.22" y="1147.7" type="curve"/>
      <point x="402.44" y="1147.7" type="line"/>
      <point x="379.64" y="1293.6"/>
      <point x="446.26" y="1341.28"/>
      <point x="446.26" y="1389.62" type="curve" smooth="yes"/>
      <point x="446.26" y="1420.86"/>
      <point x="403.02" y="1411.44"/>
      <point x="408.71999999999997" y="1460.32" type="curve"/>
      <point x="365.94" y="1460.32" type="line"/>
      <point x="371.64" y="1411.44"/>
      <point x="328.4" y="1420.86"/>
      <point x="328.4" y="1389.62" type="curve" smooth="yes"/>
      <point x="328.4" y="1341.28"/>
      <point x="395.02" y="1293.6"/>
    </contour>
  </outline>
</glyph>
<glyph name="plus" format="2">
  <advance width="1000.14"/>
  <unicode hex="002B"/>
  <note>
plus
</note>
  <outline>
    <contour>
      <point x="92.12" y="606.5600000000001" type="line"/>
      <point x="908.02" y="606.5600000000001" type="line"/>
      <point x="908.02" y="730.3" type="line"/>
      <point x="92.12" y="730.3" type="line"/>
    </contour>
    <contour>
      <point x="438.2" y="260.48" type="line"/>
      <point x="561.94" y="260.48" type="line"/>
      <point x="561.94" y="1076.38" type="line"/>
      <point x="438.2" y="1076.38" type="line"/>
    </contour>
  </outline>
</glyph>
<glyph name="comma" format="2">
  <advance width="468.5"/>
  <unicode hex="002C"/>
  <note>
comma
</note>
  <outline>
    <contour>
      <point x="138.3" y="-193.60000000000002" type="curve"/>
      <point x="232.84" y="-193.60000000000002" type="line"/>
      <point x="276.82" y="-79.66000000000001"/>
      <point x="330.48" y="49.24"/>
      <point x="350.76" y="142.4" type="curve"/>
      <point x="204.26" y="142.4" type="line"/>
      <point x="168.42000000000002" y="56.3"/>
      <point x="143.3" y="-112.92000000000002"/>
    </contour>
  </outline>
</glyph>
<glyph name="hyphen" format="2">
  <advance width="647.9"/>
  <unicode hex="002D"/>
  <note>
hyphen
</note>
  <outline>
    <contour>
      <point x="64.3" y="455.6" type="line"/>
      <point x="538.8" y="455.6" type="line"/>
      <point x="583.6" y="578.3" type="line"/>
      <point x="108.24" y="578.3" type="line"/>
    </contour>
  </outline>
</glyph>
<glyph name="period" format="2">
  <advance width="417.22"/>
  <unicode hex="002E"/>
  <note>
period
</note>
  <outline>
    <contour>
      <point x="208.18" y="-21.84" type="curve" smooth="yes"/>
      <point x="259.4" y="-21.84"/>
      <point x="301.06" y="19.68"/>
      <point x="301.06" y="71.9" type="curve" smooth="yes"/>
      <point x="301.06" y="123.12000000000002"/>
      <point x="259.4" y="163.78"/>
      <point x="208.18" y="163.78" type="curve" smooth="yes"/>
      <point x="156.96" y="163.78"/>
      <point x="116.16" y="123.12"/>
      <point x="116.16" y="71.9" type="curve" smooth="yes"/>
      <point x="116.16" y="19.68"/>
      <point x="156.96" y="-21.84"/>
    </contour>
  </outline>
</glyph>
<glyph name="slash" format="2">
  <advance width="591.8199999999999"/>
  <unicode hex="002F"/>
  <note>
slash
</note>
  <outline>
    <contour>
      <point x="5.579999999999984" y="-413.84" type="line"/>
      <point x="109.4" y="-413.84" type="line"/>
      <point x="586.24" y="1505.84" type="line"/>
      <point x="483.28" y="1505.84" type="line"/>
    </contour>
  </outline>
</glyph>
<glyph name="zero" format="2">
  <advance width="1279.72"/>
  <unicode hex="0030"/>
  <note>
zero
</note>
  <anchor x="631.94" y="714.7" name="center"/>
  <outline>
    <contour>
      <point x="645.06" y="-38.58" type="curve" smooth="yes"/>
      <point x="986.84" y="-31.88"/>
      <point x="1196.3" y="248.3"/>
      <point x="1196.3" y="712.42" type="curve" smooth="yes"/>
      <point x="1196.3" y="1135.78"/>
      <point x="979.86" y="1466.4"/>
      <point x="642.64" y="1466.4" type="curve" smooth="yes"/>
      <point x="306.56" y="1466.4"/>
      <point x="83.28" y="1173.26"/>
      <point x="83.28" y="715.98" type="curve" smooth="yes"/>
      <point x="83.28" y="297.32"/>
      <point x="290.74" y="-45.42"/>
    </contour>
    <contour>
      <point x="645.06" y="-9.579999999999984" type="curve" smooth="yes"/>
      <point x="451.02" y="-11.999999999999986"/>
      <point x="283.94" y="280.68"/>
      <point x="283.94" y="725.1" type="curve" smooth="yes"/>
      <point x="283.94" y="1148.26"/>
      <point x="440.46000000000004" y="1434.98"/>
      <point x="633.52" y="1437.26" type="curve" smooth="yes"/>
      <point x="830.14" y="1439.68"/>
      <point x="995.64" y="1142.42"/>
      <point x="995.64" y="702.3" type="curve" smooth="yes"/>
      <point x="995.64" y="274.12"/>
      <point x="835.68" y="-7.29999999999999"/>
    </contour>
  </outline>
</glyph>
<glyph name="one" format="2">
  <advance width="602.36"/>
  <unicode hex="0031"/>
  <note>
one
</note>
  <outline>
    <contour>
      <point x="248.38" y="0.0" type="line"/>
      <point x="438.08" y="0.0" type="line"/>
      <point x="438.08" y="1443.9" type="line"/>
      <point x="382.92" y="1443.9" type="line"/>
      <point x="20.139999999999986" y="963.88" type="line"/>
      <point x="64.62" y="932.66" type="line"/>
      <point x="305.6" y="1258.9" type="line"/>
      <point x="248.38" y="1256.3799999999999" type="line"/>
    </contour>
  </outline>
</glyph>
<glyph name="two" format="2">
  <advance width="1082.28"/>
  <unicode hex="0032"/>
  <note>
two
</note>
  <outline>
    <contour>
      <point x="43.42000000000001" y="0.0" type="line"/>
      <point x="1000.9" y="0.0" type="line"/>
      <point x="1000.9" y="120.02000000000001" type="line"/>
      <point x="182.4" y="120.02000000000001" type="line"/>
      <point x="143.98000000000002" y="81.16" type="line"/>
      <point x="368.52" y="261.8"/>
      <point x="642.46" y="498.84"/>
      <point x="793.02" y="664.84" type="curve" smooth="yes"/>
      <point x="929.12" y="815.96"/>
      <point x="1002.86" y="935.6800000000001"/>
      <point x="1002.86" y="1072.0" type="curve" smooth="yes"/>
      <point x="1002.86" y="1314.92"/>
      <point x="832.06" y="1468.98"/>
      <point x="547.74" y="1468.98" type="curve" smooth="yes"/>
      <point x="280.84" y="1468.98"/>
      <point x="90.83999999999999" y="1289.54"/>
      <point x="90.83999999999999" y="1032.0" type="curve" smooth="yes"/>
      <point x="90.83999999999999" y="1022.7"/>
      <point x="91.7" y="1005.86"/>
      <point x="93.98" y="986.74" type="curve"/>
      <point x="272.0" y="999.0" type="line"/>
      <point x="272.0" y="1021.4" type="line" smooth="yes"/>
      <point x="272.0" y="1238.08"/>
      <point x="369.22" y="1445.86"/>
      <point x="546.3" y="1445.86" type="curve" smooth="yes"/>
      <point x="709.46" y="1445.86"/>
      <point x="816.4" y="1325.78"/>
      <point x="816.4" y="1109.6" type="curve" smooth="yes"/>
      <point x="816.4" y="868.6"/>
      <point x="652.08" y="601.14"/>
      <point x="432.68" y="384.44" type="curve" smooth="yes"/>
    </contour>
  </outline>
</glyph>
<glyph name="three" format="2">
  <advance width="1095.56"/>
  <unicode hex="0033"/>
  <note>
three
</note>
  <outline>
    <contour>
      <point x="517.28" y="-36.32" type="curve" smooth="yes"/>
      <point x="811.48" y="-36.32"/>
      <point x="1015.84" y="136.57999999999998"/>
      <point x="1015.84" y="373.98" type="curve" smooth="yes"/>
      <point x="1015.84" y="599.86"/>
      <point x="840.56" y="718.04"/>
      <point x="639.6" y="754.86" type="curve"/>
      <point x="636.8799999999999" y="741.88" type="line"/>
      <point x="817.8" y="772.4"/>
      <point x="981.28" y="901.34"/>
      <point x="981.28" y="1106.26" type="curve" smooth="yes"/>
      <point x="981.28" y="1308.1"/>
      <point x="817.62" y="1466.4"/>
      <point x="551.28" y="1466.4" type="curve" smooth="yes"/>
      <point x="292.12" y="1466.4"/>
      <point x="93.72" y="1318.72"/>
      <point x="86.42" y="1070.44" type="curve"/>
      <point x="246.34" y="1083.56" type="line"/>
      <point x="248.62" y="1274.98"/>
      <point x="351.02" y="1443.28"/>
      <point x="547.28" y="1443.28" type="curve" smooth="yes"/>
      <point x="747.76" y="1443.28"/>
      <point x="811.22" y="1273.86"/>
      <point x="811.22" y="1113.96" type="curve" smooth="yes"/>
      <point x="811.22" y="881.42"/>
      <point x="686.14" y="761.28"/>
      <point x="511.88" y="761.28" type="curve" smooth="yes"/>
      <point x="310.12" y="761.28" type="line"/>
      <point x="310.12" y="739.88" type="line"/>
      <point x="515.88" y="739.88" type="line" smooth="yes"/>
      <point x="682.3" y="739.88"/>
      <point x="812.12" y="634.34"/>
      <point x="812.12" y="375.68" type="curve" smooth="yes"/>
      <point x="812.12" y="196.1"/>
      <point x="732.82" y="-15.200000000000003"/>
      <point x="523.28" y="-15.200000000000003" type="curve" smooth="yes"/>
      <point x="330.26" y="-15.200000000000003"/>
      <point x="233.04000000000002" y="161.06"/>
      <point x="233.04000000000002" y="336.42" type="curve" smooth="yes"/>
      <point x="233.04000000000002" y="358.68" type="line"/>
      <point x="60.419999999999995" y="371.8" type="line"/>
      <point x="60.419999999999995" y="337.68" type="line" smooth="yes"/>
      <point x="60.419999999999995" y="103.96"/>
      <point x="249.68" y="-36.32"/>
    </contour>
  </outline>
</glyph>
<glyph name="four" format="2">
  <advance width="1024.62"/>
  <unicode hex="0034"/>
  <note>
four
</note>
  <outline>
    <contour>
      <point x="641.56" y="0.0" type="line"/>
      <point x="825.32" y="0.0" type="line"/>
      <point x="825.32" y="455.84000000000003" type="line"/>
      <point x="706.14" y="353.0" type="line"/>
      <point x="1002.78" y="353.0" type="line"/>
      <point x="1002.78" y="379.96000000000004" type="line"/>
      <point x="706.14" y="379.96000000000004" type="line"/>
      <point x="825.32" y="333.16" type="line"/>
      <point x="825.32" y="823.5" type="line"/>
      <point x="641.56" y="823.5" type="line"/>
      <point x="641.56" y="333.16" type="line"/>
      <point x="744.4" y="379.96000000000004" type="line"/>
      <point x="64.33999999999999" y="379.96000000000004" type="line"/>
      <point x="60.52000000000004" y="363.28" type="line"/>
      <point x="306.02" y="659.92"/>
      <point x="598.5" y="1077.08"/>
      <point x="721.5" y="1445.24" type="curve"/>
      <point x="578.34" y="1450.4" type="line"/>
      <point x="467.96" y="1050.94"/>
      <point x="240.94" y="674.46"/>
      <point x="22.560000000000016" y="353.0" type="curve"/>
      <point x="744.4" y="353.0" type="line"/>
      <point x="641.56" y="455.84000000000003" type="line"/>
    </contour>
  </outline>
</glyph>
<glyph name="five" format="2">
  <advance width="998.14"/>
  <unicode hex="0035"/>
  <note>
five
</note>
  <outline>
    <contour>
      <point x="426.58" y="-30.42" type="curve" smooth="yes"/>
      <point x="731.2" y="-30.42"/>
      <point x="932.28" y="161.28"/>
      <point x="932.28" y="433.58" type="curve" smooth="yes"/>
      <point x="932.28" y="758.98"/>
      <point x="653.98" y="872.74"/>
      <point x="455.44" y="872.74" type="curve" smooth="yes"/>
      <point x="360.71999999999997" y="872.74"/>
      <point x="254.28000000000003" y="845.86"/>
      <point x="145.07999999999998" y="764.54" type="curve"/>
      <point x="159.2" y="763.12" type="line"/>
      <point x="280.5" y="1359.34" type="line"/>
      <point x="235.0" y="1271.3" type="line"/>
      <point x="842.9" y="1271.3" type="line"/>
      <point x="842.9" y="1430.0" type="line"/>
      <point x="236.88" y="1430.0" type="line"/>
      <point x="104.0" y="760.24" type="line"/>
      <point x="143.62" y="751.12" type="line"/>
      <point x="256.26" y="830.16"/>
      <point x="365.24" y="847.92"/>
      <point x="422.04" y="847.92" type="curve" smooth="yes"/>
      <point x="614.46" y="847.92"/>
      <point x="732.28" y="714.88"/>
      <point x="732.28" y="429.02" type="curve" smooth="yes"/>
      <point x="732.28" y="264.98"/>
      <point x="718.66" y="-7.879999999999988"/>
      <point x="424.88" y="-7.879999999999988" type="curve" smooth="yes"/>
      <point x="255.68" y="-7.879999999999988"/>
      <point x="122.71999999999998" y="86.32000000000001"/>
      <point x="58.959999999999994" y="176.16" type="curve"/>
      <point x="46.12" y="167.04" type="line"/>
      <point x="126.86000000000001" y="48.2"/>
      <point x="244.72" y="-30.42"/>
    </contour>
  </outline>
</glyph>
<glyph name="six" format="2">
  <advance width="1075.36"/>
  <unicode hex="0036"/>
  <note>
six
</note>
  <outline>
    <contour>
      <point x="539.02" y="-43.019999999999996" type="curve" smooth="yes"/>
      <point x="823.42" y="-44.74"/>
      <point x="1022.08" y="123.36000000000001"/>
      <point x="1022.08" y="404.88" type="curve" smooth="yes"/>
      <point x="1022.08" y="662.6"/>
      <point x="839.22" y="860.74"/>
      <point x="568.3" y="860.74" type="curve" smooth="yes"/>
      <point x="355.14" y="860.74"/>
      <point x="255.62" y="733.36"/>
      <point x="211.64" y="561.18" type="curve"/>
      <point x="234.48000000000002" y="570.14" type="line"/>
      <point x="250.3" y="759.1800000000001"/>
      <point x="296.06" y="903.16"/>
      <point x="357.3" y="1020.3199999999999" type="curve" smooth="yes"/>
      <point x="462.88" y="1224.06"/>
      <point x="629.22" y="1369.58"/>
      <point x="832.32" y="1427.56" type="curve"/>
      <point x="832.32" y="1456.66" type="line"/>
      <point x="566.0" y="1385.4"/>
      <point x="370.36" y="1254.28"/>
      <point x="236.94" y="1050.68" type="curve" smooth="yes"/>
      <point x="133.28" y="893.16"/>
      <point x="74.14" y="708.9200000000001"/>
      <point x="74.14" y="498.18" type="curve" smooth="yes"/>
      <point x="74.14" y="135.06"/>
      <point x="248.07999999999998" y="-41.3"/>
    </contour>
    <contour>
      <point x="554.74" y="-20.039999999999992" type="curve" smooth="yes"/>
      <point x="324.24" y="-18.320000000000007"/>
      <point x="247.18" y="183.35999999999999"/>
      <point x="246.9" y="437.46" type="curve" smooth="yes"/>
      <point x="246.62" y="679.3"/>
      <point x="384.62" y="837.62"/>
      <point x="573.88" y="837.62" type="curve" smooth="yes"/>
      <point x="788.7" y="837.62"/>
      <point x="841.06" y="611.52"/>
      <point x="841.06" y="410.58" type="curve" smooth="yes"/>
      <point x="841.06" y="132.36"/>
      <point x="749.64" y="-21.75999999999999"/>
    </contour>
  </outline>
</glyph>
<glyph name="seven" format="2">
  <advance width="957.3"/>
  <unicode hex="0037"/>
  <note>
seven
</note>
  <outline>
    <contour>
      <point x="258.92" y="0.0" type="curve"/>
      <point x="424.3" y="0.0" type="line"/>
      <point x="444.52" y="558.82"/>
      <point x="700.38" y="1074.5"/>
      <point x="933.74" y="1423.98" type="curve"/>
      <point x="34.260000000000005" y="1423.98" type="line"/>
      <point x="34.260000000000005" y="1259.44" type="line"/>
      <point x="799.18" y="1259.44" type="line"/>
      <point x="850.4" y="1348.76" type="line"/>
      <point x="629.86" y="1043.06"/>
      <point x="349.5" y="558.48"/>
    </contour>
  </outline>
</glyph>
<glyph name="eight" format="2">
  <advance width="1052.58"/>
  <unicode hex="0038"/>
  <note>
eight
</note>
  <outline>
    <contour>
      <point x="510.44" y="-40.16" type="curve" smooth="yes"/>
      <point x="797.1800000000001" y="-40.16"/>
      <point x="988.0" y="126.86"/>
      <point x="986.86" y="373.4" type="curve" smooth="yes"/>
      <point x="985.72" y="584.68"/>
      <point x="848.58" y="733.0600000000001"/>
      <point x="576.46" y="833.16" type="curve" smooth="yes"/>
      <point x="380.34000000000003" y="905.12"/>
      <point x="288.5" y="984.22"/>
      <point x="287.36" y="1109.72" type="curve" smooth="yes"/>
      <point x="286.22" y="1312.82"/>
      <point x="393.04" y="1426.56"/>
      <point x="521.84" y="1429.28" type="curve" smooth="yes"/>
      <point x="711.06" y="1432.14"/>
      <point x="854.92" y="1315.72"/>
      <point x="855.92" y="1130.96" type="curve" smooth="yes"/>
      <point x="857.06" y="972.32"/>
      <point x="768.98" y="858.14"/>
      <point x="610.2" y="807.58" type="curve"/>
      <point x="634.28" y="804.14" type="line"/>
      <point x="818.76" y="864.84"/>
      <point x="902.36" y="987.84"/>
      <point x="898.78" y="1135.7" type="curve" smooth="yes"/>
      <point x="895.06" y="1318.82"/>
      <point x="749.66" y="1453.54"/>
      <point x="533.7" y="1452.4" type="curve" smooth="yes"/>
      <point x="309.8" y="1451.26"/>
      <point x="134.0" y="1323.58"/>
      <point x="134.14" y="1106.3" type="curve" smooth="yes"/>
      <point x="134.28" y="914.8"/>
      <point x="238.94" y="801.28"/>
      <point x="433.42" y="727.58" type="curve" smooth="yes"/>
      <point x="731.76" y="613.48"/>
      <point x="808.26" y="510.68"/>
      <point x="808.26" y="336.74" type="curve" smooth="yes"/>
      <point x="808.26" y="108.71999999999998"/>
      <point x="689.74" y="-16.039999999999992"/>
      <point x="512.7" y="-17.040000000000006" type="curve" smooth="yes"/>
      <point x="253.5" y="-18.319999999999993"/>
      <point x="124.56" y="136.92"/>
      <point x="123.42" y="351.74" type="curve" smooth="yes"/>
      <point x="122.28" y="556.84"/>
      <point x="250.62" y="707.06"/>
      <point x="399.1" y="758.74" type="curve"/>
      <point x="379.15999999999997" y="764.74" type="line"/>
      <point x="184.6" y="698.08"/>
      <point x="77.28" y="534.6"/>
      <point x="77.42" y="349.16" type="curve" smooth="yes"/>
      <point x="77.7" y="123.36"/>
      <point x="224.94" y="-40.16"/>
    </contour>
  </outline>
</glyph>
<glyph name="nine" format="2">
  <advance width="1075.64"/>
  <unicode hex="0039"/>
  <note>
nine
</note>
  <outline>
    <contour>
      <point x="243.18" y="-38.7" type="line"/>
      <point x="425.53999999999996" y="10.139999999999997"/>
      <point x="574.2" y="86.83999999999999"/>
      <point x="692.74" y="195.83999999999997" type="curve" smooth="yes"/>
      <point x="756.3199999999999" y="254.72"/>
      <point x="797.28" y="304.12"/>
      <point x="838.7" y="368.12" type="curve" smooth="yes"/>
      <point x="942.22" y="525.64"/>
      <point x="1001.36" y="710.58"/>
      <point x="1001.36" y="921.32" type="curve" smooth="yes"/>
      <point x="1001.36" y="1266.94"/>
      <point x="843.76" y="1459.92"/>
      <point x="537.34" y="1462.5" type="curve" smooth="yes"/>
      <point x="246.92000000000002" y="1465.08"/>
      <point x="53.42" y="1291.54"/>
      <point x="53.42" y="1014.76" type="curve" smooth="yes"/>
      <point x="53.42" y="756.62"/>
      <point x="237.14" y="558.2"/>
      <point x="508.06" y="558.2" type="curve" smooth="yes"/>
      <point x="720.36" y="558.2"/>
      <point x="819.88" y="685.72"/>
      <point x="863.86" y="858.18" type="curve"/>
      <point x="841.02" y="849.08" type="line"/>
      <point x="825.2" y="659.76"/>
      <point x="778.5799999999999" y="512.06"/>
      <point x="719.06" y="398.20000000000005" type="curve" smooth="yes"/>
      <point x="615.06" y="196.62"/>
      <point x="447.14" y="48.519999999999996"/>
      <point x="243.18" y="-10.460000000000022" type="curve"/>
    </contour>
    <contour>
      <point x="501.62" y="581.32" type="curve" smooth="yes"/>
      <point x="287.66" y="581.32"/>
      <point x="235.3" y="807.7"/>
      <point x="235.3" y="1009.06" type="curve" smooth="yes"/>
      <point x="235.3" y="1285.12"/>
      <point x="324.14" y="1441.1"/>
      <point x="521.62" y="1439.38" type="curve" smooth="yes"/>
      <point x="751.26" y="1436.8"/>
      <point x="830.9" y="1239.14"/>
      <point x="829.46" y="982.18" type="curve" smooth="yes"/>
      <point x="828.88" y="739.78"/>
      <point x="691.74" y="581.32"/>
    </contour>
  </outline>
</glyph>
<glyph name="greater" format="2">
  <advance width="1000.14"/>
  <unicode hex="003E"/>
  <note>
greater
</note>
  <outline>
    <contour>
      <point x="92.12" y="274.84" type="line"/>
      <point x="906.7" y="644.1" type="line"/>
      <point x="906.7" y="723.62" type="line"/>
      <point x="92.12" y="1091.16" type="line"/>
      <point x="92.12" y="986.2" type="line"/>
      <point x="765.3" y="684.0" type="line"/>
      <point x="92.12" y="379.8" type="line"/>
    </contour>
  </outline>
</glyph>
<glyph name="question" format="2">
  <advance width="958.88"/>
  <unicode hex="003F"/>
  <note>
question
</note>
  <outline>
    <contour>
      <point x="397.98" y="377.82" type="curve"/>
      <point x="504.96" y="377.82" type="line"/>
      <point x="477.54" y="433.54"/>
      <point x="446.28" y="547.58"/>
      <point x="446.28" y="610.2" type="curve" smooth="yes"/>
      <point x="446.28" y="861.04"/>
      <point x="891.44" y="882.42"/>
      <point x="891.44" y="1184.3" type="curve" smooth="yes"/>
      <point x="891.44" y="1388.74"/>
      <point x="689.5" y="1469.98"/>
      <point x="449.06" y="1469.98" type="curve" smooth="yes"/>
      <point x="164.57999999999998" y="1469.98"/>
      <point x="62.739999999999995" y="1356.28"/>
      <point x="62.739999999999995" y="1182.0" type="curve" smooth="yes"/>
      <point x="62.739999999999995" y="1167.42"/>
      <point x="62.74" y="1151.98"/>
      <point x="63.6" y="1134.42" type="curve"/>
      <point x="234.82" y="1134.42" type="line"/>
      <point x="228.96" y="1158.28"/>
      <point x="227.96" y="1188.42"/>
      <point x="227.96" y="1205.0" type="curve" smooth="yes"/>
      <point x="227.96" y="1330.04"/>
      <point x="302.98" y="1446.86"/>
      <point x="446.2" y="1446.86" type="curve" smooth="yes"/>
      <point x="574.82" y="1446.86"/>
      <point x="683.3" y="1348.78"/>
      <point x="683.3" y="1177.3" type="curve" smooth="yes"/>
      <point x="683.3" y="885.98"/>
      <point x="368.12" y="938.9"/>
      <point x="368.12" y="601.64" type="curve" smooth="yes"/>
      <point x="368.12" y="561.16"/>
      <point x="372.7" y="448.65999999999997"/>
    </contour>
    <contour>
      <point x="460.32" y="-21.84" type="curve" smooth="yes"/>
      <point x="515.26" y="-21.84"/>
      <point x="559.78" y="22.54"/>
      <point x="559.78" y="79.34" type="curve" smooth="yes"/>
      <point x="559.78" y="135.14"/>
      <point x="515.26" y="177.8"/>
      <point x="460.32" y="177.8" type="curve" smooth="yes"/>
      <point x="405.38" y="177.8"/>
      <point x="360.0" y="135.14"/>
      <point x="360.0" y="79.34" type="curve" smooth="yes"/>
      <point x="360.0" y="22.54"/>
      <point x="404.52" y="-21.84"/>
    </contour>
  </outline>
</glyph>
<glyph name="at" format="2">
  <advance width="1702.3799999999999"/>
  <unicode hex="0040"/>
  <note>
at
</note>
  <outline>
    <contour>
      <point x="892.06" y="-38.980000000000004" type="curve" smooth="yes"/>
      <point x="1187.72" y="-38.980000000000004"/>
      <point x="1444.54" y="123.42"/>
      <point x="1541.62" y="299.68" type="curve"/>
      <point x="1435.52" y="299.68" type="line"/>
      <point x="1338.16" y="134.42000000000002"/>
      <point x="1131.1" y="-5.880000000000003"/>
      <point x="892.0600000000001" y="-5.880000000000003" type="curve" smooth="yes"/>
      <point x="521.72" y="-5.880000000000003"/>
      <point x="213.84" y="328.56"/>
      <point x="213.84" y="716.0" type="curve" smooth="yes"/>
      <point x="213.84" y="1101.44"/>
      <point x="538.6800000000001" y="1435.88"/>
      <point x="892.0600000000001" y="1435.88" type="curve" smooth="yes"/>
      <point x="1218.7" y="1435.88"/>
      <point x="1482.24" y="1181.94"/>
      <point x="1482.24" y="863.5" type="curve" smooth="yes"/>
      <point x="1482.24" y="785.3"/>
      <point x="1467.94" y="697.98"/>
      <point x="1440.92" y="618.54" type="curve" smooth="yes"/>
      <point x="1394.18" y="483.4"/>
      <point x="1309.86" y="371.88"/>
      <point x="1191.46" y="371.88" type="curve" smooth="yes"/>
      <point x="1135.78" y="371.88"/>
      <point x="1086.42" y="421.5"/>
      <point x="1087.16" y="483.0" type="curve"/>
      <point x="1232.7" y="1064.88" type="line"/>
      <point x="1091.06" y="1064.88" type="line"/>
      <point x="1066.18" y="961.64" type="line"/>
      <point x="1034.48" y="1060.12"/>
      <point x="985.78" y="1084.88"/>
      <point x="902.26" y="1084.88" type="curve" smooth="yes"/>
      <point x="653.16" y="1084.88"/>
      <point x="447.65999999999997" y="819.72"/>
      <point x="447.65999999999997" y="585.2" type="curve" smooth="yes"/>
      <point x="447.65999999999997" y="415.24"/>
      <point x="559.04" y="321.22"/>
      <point x="728.86" y="321.22" type="curve" smooth="yes"/>
      <point x="830.44" y="321.22"/>
      <point x="904.18" y="355.82"/>
      <point x="976.46" y="483.86" type="curve"/>
      <point x="992.72" y="374.7"/>
      <point x="1075.52" y="334.22"/>
      <point x="1168.36" y="334.22" type="curve" smooth="yes"/>
      <point x="1249.18" y="334.22"/>
      <point x="1319.44" y="357.08"/>
      <point x="1377.56" y="396.94" type="curve" smooth="yes"/>
      <point x="1430.84" y="433.38"/>
      <point x="1474.12" y="483.54"/>
      <point x="1507.4" y="541.7" type="curve" smooth="yes"/>
      <point x="1559.08" y="632.26"/>
      <point x="1586.64" y="744.38"/>
      <point x="1586.64" y="859.5" type="curve" smooth="yes"/>
      <point x="1586.64" y="1231.82"/>
      <point x="1282.32" y="1468.98"/>
      <point x="892.06" y="1468.98" type="curve" smooth="yes"/>
      <point x="457.12" y="1468.98"/>
      <point x="109.44" y="1130.56"/>
      <point x="109.44" y="716.0" type="curve" smooth="yes"/>
      <point x="109.44" y="299.3"/>
      <point x="463.96" y="-38.980000000000004"/>
    </contour>
    <contour>
      <point x="752.98" y="365.44" type="curve" smooth="yes"/>
      <point x="661.18" y="365.44"/>
      <point x="590.28" y="442.74"/>
      <point x="590.28" y="580.6" type="curve" smooth="yes"/>
      <point x="590.28" y="848.44"/>
      <point x="767.84" y="1042.24"/>
      <point x="914.68" y="1042.24" type="curve" smooth="yes"/>
      <point x="1000.16" y="1042.24"/>
      <point x="1012.52" y="950.12"/>
      <point x="1012.52" y="857.9" type="curve" smooth="yes"/>
      <point x="1012.52" y="649.6"/>
      <point x="907.96" y="365.44"/>
    </contour>
  </outline>
</glyph>
<glyph name="A" format="2">
  <advance width="1360.6"/>
  <unicode hex="0041"/>
  <note>
A
</note>
  <anchor x="651.9399999999999" y="-45.60000000000001" name="bottom"/>
  <anchor x="1143.1399999999999" y="0.0" name="ogonek"/>
  <anchor x="665.62" y="1390.1" name="top"/>
  <outline>
    <contour>
      <point x="37.30000000000001" y="0.0" type="line"/>
      <point x="110.46" y="0.0" type="line"/>
      <point x="636.0" y="1202.72" type="line"/>
      <point x="607.46" y="1181.46" type="line"/>
      <point x="1104.34" y="0.0" type="line"/>
      <point x="1323.02" y="0.0" type="line"/>
      <point x="693.34" y="1490.54" type="line"/>
    </contour>
    <contour>
      <point x="251.0" y="387.22" type="line"/>
      <point x="989.64" y="387.22" type="line"/>
      <point x="973.0999999999999" y="406.34000000000003" type="line"/>
      <point x="268.68" y="406.34000000000003" type="line"/>
    </contour>
  </outline>
</glyph>
<glyph name="B" format="2">
  <advance width="1270.06"/>
  <unicode hex="0042"/>
  <note>
B
</note>
  <anchor x="670.72" y="0.0" name="bottom"/>
  <anchor x="670.72" y="1435.7" name="top"/>
  <outline>
    <contour>
      <point x="171.44" y="0.0" type="line"/>
      <point x="649.32" y="0.0" type="line" smooth="yes"/>
      <point x="1017.1600000000001" y="0.0"/>
      <point x="1184.62" y="107.44"/>
      <point x="1184.62" y="391.56" type="curve" smooth="yes"/>
      <point x="1184.62" y="664.34"/>
      <point x="1030.94" y="767.72"/>
      <point x="765.36" y="788.5" type="curve"/>
      <point x="767.64" y="783.08" type="line"/>
      <point x="1005.72" y="799.32"/>
      <point x="1131.22" y="908.94"/>
      <point x="1131.22" y="1091.1" type="curve" smooth="yes"/>
      <point x="1131.22" y="1313.06"/>
      <point x="950.22" y="1438.98"/>
      <point x="642.3199999999999" y="1438.98" type="curve" smooth="yes"/>
      <point x="171.44" y="1438.98" type="line"/>
    </contour>
    <contour>
      <point x="350.6" y="12.28" type="line"/>
      <point x="350.6" y="773.24" type="line"/>
      <point x="310.3" y="769.96" type="line"/>
      <point x="620.92" y="769.96" type="line" smooth="yes"/>
      <point x="848.98" y="769.96"/>
      <point x="1002.56" y="695.88"/>
      <point x="1002.56" y="395.86" type="curve" smooth="yes"/>
      <point x="1002.56" y="109.24000000000001"/>
      <point x="859.52" y="19.11999999999999"/>
      <point x="588.02" y="19.11999999999999" type="curve" smooth="yes"/>
      <point x="218.74" y="19.11999999999999" type="line"/>
    </contour>
    <contour>
      <point x="350.6" y="784.94" type="line"/>
      <point x="350.6" y="1426.7" type="line"/>
      <point x="214.44" y="1419.86" type="line"/>
      <point x="565.32" y="1419.86" type="line" smooth="yes"/>
      <point x="861.76" y="1419.86"/>
      <point x="946.88" y="1270.8"/>
      <point x="946.88" y="1086.1" type="curve" smooth="yes"/>
      <point x="946.88" y="854.76"/>
      <point x="812.4" y="789.08"/>
      <point x="628.02" y="789.08" type="curve" smooth="yes"/>
      <point x="314.86" y="789.08" type="line"/>
    </contour>
  </outline>
</glyph>
<glyph name="C" format="2">
  <advance width="1476.4"/>
  <unicode hex="0043"/>
  <note>
C
</note>
  <anchor x="779.64" y="-11.400000000000002" name="bottom"/>
  <anchor x="784.72" y="1435.7" name="top"/>
  <outline>
    <contour>
      <point x="819.82" y="-26.380000000000003" type="curve" smooth="yes"/>
      <point x="1084.76" y="-26.380000000000003"/>
      <point x="1295.48" y="104.7"/>
      <point x="1429.4" y="322.68" type="curve"/>
      <point x="1229.32" y="328.38" type="line"/>
      <point x="1114.36" y="115.07999999999998"/>
      <point x="974.72" y="18.68"/>
      <point x="818.98" y="18.68" type="curve" smooth="yes"/>
      <point x="531.54" y="18.68"/>
      <point x="310.94" y="311.58"/>
      <point x="310.94" y="716.72" type="curve" smooth="yes"/>
      <point x="310.94" y="1128.58"/>
      <point x="535.4" y="1416.18"/>
      <point x="816.54" y="1416.18" type="curve" smooth="yes"/>
      <point x="971.28" y="1416.18"/>
      <point x="1118.52" y="1318.92"/>
      <point x="1223.46" y="1108.48" type="curve"/>
      <point x="1419.82" y="1114.18" type="line"/>
      <point x="1312.32" y="1317.94"/>
      <point x="1076.88" y="1460.38"/>
      <point x="816.26" y="1460.38" type="curve" smooth="yes"/>
      <point x="421.98" y="1460.38"/>
      <point x="76.44" y="1155.0"/>
      <point x="76.44" y="717.14" type="curve" smooth="yes"/>
      <point x="76.44" y="281.36"/>
      <point x="412.6" y="-26.380000000000003"/>
    </contour>
  </outline>
</glyph>
<glyph name="D" format="2">
  <advance width="1435.8"/>
  <unicode hex="0044"/>
  <note>
D
</note>
  <anchor x="746.98" y="-3.552713678800501e-15" name="bottom"/>
  <anchor x="271.3" y="715.98" name="center"/>
  <anchor x="746.98" y="1436.4" name="top"/>
  <outline>
    <contour>
      <point x="171.72" y="-6.88" type="line"/>
      <point x="551.48" y="-6.88" type="line" smooth="yes"/>
      <point x="806.82" y="-6.88"/>
      <point x="1003.76" y="47.24"/>
      <point x="1137.44" y="158.32" type="curve" smooth="yes"/>
      <point x="1280.34" y="273.74"/>
      <point x="1353.78" y="453.62"/>
      <point x="1353.78" y="703.72" type="curve" smooth="yes"/>
      <point x="1353.78" y="947.66"/>
      <point x="1283.6399999999999" y="1127.26"/>
      <point x="1146.46" y="1246.82" type="curve" smooth="yes"/>
      <point x="1002.64" y="1374.6"/>
      <point x="781.12" y="1438.98"/>
      <point x="489.48" y="1438.98" type="curve" smooth="yes"/>
      <point x="171.72" y="1438.98" type="line"/>
    </contour>
    <contour>
      <point x="356.9" y="-2.019999999999996" type="line"/>
      <point x="356.9" y="1434.12" type="line"/>
      <point x="227.88" y="1419.8600000000001" type="line"/>
      <point x="510.1" y="1419.8600000000001" type="line" smooth="yes"/>
      <point x="926.22" y="1419.8600000000001"/>
      <point x="1138.08" y="1174.04"/>
      <point x="1138.08" y="709.0" type="curve" smooth="yes"/>
      <point x="1138.08" y="242.38"/>
      <point x="925.36" y="13.100000000000016"/>
      <point x="506.66" y="13.100000000000016" type="curve" smooth="yes"/>
      <point x="227.88" y="13.100000000000016" type="line"/>
    </contour>
  </outline>
</glyph>
<glyph name="E" format="2">
  <advance width="1154.56"/>
  <unicode hex="0045"/>
  <note>
E
</note>
  <anchor x="567.34" y="0.0" name="bottom"/>
  <anchor x="1037.44" y="0.0" name="ogonek"/>
  <anchor x="653.34" y="1439.84" name="top"/>
  <anchor x="-0.4599999999999991" y="1432.1" name="topleft"/>
  <outline>
    <contour>
      <point x="171.72" y="0.0" type="line"/>
      <point x="1086.7" y="0.0" type="line"/>
      <point x="1086.7" y="19.11999999999999" type="line"/>
      <point x="243.84" y="19.11999999999999" type="line"/>
      <point x="356.90000000000003" y="11.28" type="line"/>
      <point x="356.90000000000003" y="745.12" type="line"/>
      <point x="253.78" y="718.44" type="line"/>
      <point x="1086.7" y="718.44" type="line"/>
      <point x="1086.7" y="737.56" type="line"/>
      <point x="243.84" y="737.56" type="line"/>
      <point x="356.90000000000003" y="718.32" type="line"/>
      <point x="356.90000000000003" y="1427.56" type="line"/>
      <point x="236.14" y="1419.86" type="line"/>
      <point x="1086.7" y="1419.86" type="line"/>
      <point x="1086.7" y="1438.98" type="line"/>
      <point x="171.72" y="1438.98" type="line"/>
    </contour>
  </outline>
</glyph>
<glyph name="F" format="2">
  <advance width="1133.56"/>
  <unicode hex="0046"/>
  <note>
F
</note>
  <anchor x="549.68" y="0.0" name="bottom"/>
  <anchor x="549.68" y="1435.7" name="top"/>
  <outline>
    <contour>
      <point x="171.72" y="0.0" type="line"/>
      <point x="356.90000000000003" y="0.0" type="line"/>
      <point x="356.90000000000003" y="695.12" type="line"/>
      <point x="253.78" y="668.44" type="line"/>
      <point x="1086.7" y="668.44" type="line"/>
      <point x="1086.7" y="687.56" type="line"/>
      <point x="243.84" y="687.56" type="line"/>
      <point x="356.90000000000003" y="668.32" type="line"/>
      <point x="356.90000000000003" y="1427.56" type="line"/>
      <point x="219.04" y="1419.86" type="line"/>
      <point x="1086.7" y="1419.86" type="line"/>
      <point x="1086.7" y="1438.98" type="line"/>
      <point x="171.72" y="1438.98" type="line"/>
    </contour>
  </outline>
</glyph>
<glyph name="G" format="2">
  <advance width="1583.02"/>
  <unicode hex="0047"/>
  <note>
G
</note>
  <anchor x="791.64" y="0.0" name="bottom"/>
  <anchor x="791.64" y="1435.7" name="top"/>
  <outline>
    <contour>
      <point x="816.78" y="-34.980000000000004" type="curve" smooth="yes"/>
      <point x="1209.46" y="-27.000000000000004"/>
      <point x="1503.28" y="268.12"/>
      <point x="1536.44" y="647.8" type="curve"/>
      <point x="1326.02" y="647.8" type="line"/>
      <point x="1301.84" y="277.54"/>
      <point x="1077.04" y="-7.299999999999997"/>
      <point x="815.78" y="-11.859999999999985" type="curve"/>
      <point x="537.5" y="-16.419999999999987"/>
      <point x="292.42" y="298.03999999999996"/>
      <point x="288.0" y="705.46" type="curve" smooth="yes"/>
      <point x="284.44" y="1115.6"/>
      <point x="528.4" y="1440.3"/>
      <point x="807.66" y="1444.8600000000001" type="curve"/>
      <point x="978.6" y="1448.14"/>
      <point x="1185.84" y="1332.4"/>
      <point x="1265.92" y="1112.18" type="curve"/>
      <point x="1412.48" y="1174.88" type="line"/>
      <point x="1299.46" y="1373.74"/>
      <point x="1041.86" y="1472.54"/>
      <point x="807.66" y="1467.98" type="curve" smooth="yes"/>
      <point x="383.7" y="1459.86"/>
      <point x="72.88" y="1118.02"/>
      <point x="77.44" y="697.9" type="curve" smooth="yes"/>
      <point x="82.0" y="280.64"/>
      <point x="395.52" y="-43.1"/>
    </contour>
    <contour>
      <point x="814.8199999999999" y="632.1" type="line"/>
      <point x="1400.22" y="632.1" type="line"/>
      <point x="1400.22" y="647.8" type="line"/>
      <point x="814.8199999999999" y="647.8" type="line"/>
    </contour>
  </outline>
</glyph>
<glyph name="H" format="2">
  <advance width="1608.94"/>
  <unicode hex="0048"/>
  <note>
H
</note>
  <anchor x="802.3199999999999" y="0.0" name="bottom"/>
  <anchor x="802.3199999999999" y="716.12" name="center"/>
  <anchor x="802.3199999999999" y="1436.4" name="top"/>
  <anchor x="52.680000000000014" y="1436.4" name="topleft"/>
  <outline>
    <contour>
      <point x="171.72" y="0.0" type="line"/>
      <point x="368.3" y="0.0" type="line"/>
      <point x="368.3" y="745.36" type="line"/>
      <point x="253.0" y="713.14" type="line"/>
      <point x="1355.94" y="713.14" type="line"/>
      <point x="1240.64" y="745.36" type="line"/>
      <point x="1240.64" y="0.0" type="line"/>
      <point x="1437.22" y="0.0" type="line"/>
      <point x="1437.22" y="1438.98" type="line"/>
      <point x="1240.64" y="1438.98" type="line"/>
      <point x="1240.64" y="700.04" type="line"/>
      <point x="1355.94" y="732.26" type="line"/>
      <point x="253.0" y="732.26" type="line"/>
      <point x="368.3" y="700.04" type="line"/>
      <point x="368.3" y="1438.98" type="line"/>
      <point x="171.72" y="1438.98" type="line"/>
    </contour>
  </outline>
</glyph>
<glyph name="I" format="2">
  <advance width="528.56"/>
  <unicode hex="0049"/>
  <note>
I
</note>
  <anchor x="264.28" y="0.0" name="bottom"/>
  <anchor x="275.44" y="2.220446049250313e-16" name="ogonek"/>
  <anchor x="264.28" y="1435.7" name="top"/>
  <anchor x="20.58" y="1435.7" name="topleft"/>
  <outline>
    <contour>
      <point x="171.57999999999998" y="0.0" type="line"/>
      <point x="356.98" y="0.0" type="line"/>
      <point x="356.98" y="1438.98" type="line"/>
      <point x="171.57999999999998" y="1438.98" type="line"/>
    </contour>
  </outline>
</glyph>
<glyph name="J" format="2">
  <advance width="818.1400000000001"/>
  <unicode hex="004A"/>
  <note>
J
</note>
  <anchor x="400.38" y="0.0" name="bottom"/>
  <anchor x="451.98" y="1435.7" name="top"/>
  <outline>
    <contour>
      <point x="30.140000000000015" y="-39.24" type="line"/>
      <point x="83.5" y="-107.2"/>
      <point x="165.54" y="-160.98"/>
      <point x="315.32" y="-160.98" type="curve" smooth="yes"/>
      <point x="521.18" y="-160.98"/>
      <point x="655.12" y="7.219999999999999"/>
      <point x="655.12" y="321.54" type="curve" smooth="yes"/>
      <point x="655.12" y="1438.98" type="line"/>
      <point x="458.54" y="1438.98" type="line"/>
      <point x="458.54" y="262.04" type="line" smooth="yes"/>
      <point x="458.54" y="-54.55999999999998"/>
      <point x="387.96000000000004" y="-137.3"/>
      <point x="289.22" y="-137.3" type="curve" smooth="yes"/>
      <point x="196.74" y="-137.3"/>
      <point x="128.46" y="-66.94"/>
      <point x="64.34" y="60.74" type="curve"/>
    </contour>
  </outline>
</glyph>
<glyph name="K" format="2">
  <advance width="1380.16"/>
  <unicode hex="004B"/>
  <note>
K
</note>
  <anchor x="691.0" y="0.0" name="bottom"/>
  <anchor x="691.0" y="1435.7" name="top"/>
  <outline>
    <contour>
      <point x="171.58" y="0.0" type="line"/>
      <point x="368.15999999999997" y="0.0" type="line"/>
      <point x="368.15999999999997" y="1438.98" type="line"/>
      <point x="171.58" y="1438.98" type="line"/>
    </contour>
    <contour>
      <point x="316.9" y="390.5" type="line"/>
      <point x="1211.16" y="1438.98" type="line"/>
      <point x="1143.42" y="1438.98" type="line"/>
      <point x="303.56" y="456.74" type="line"/>
    </contour>
    <contour>
      <point x="1120.78" y="0.0" type="line"/>
      <point x="1352.86" y="0.0" type="line"/>
      <point x="644.9200000000001" y="817.8" type="line"/>
      <point x="537.36" y="676.46" type="line"/>
    </contour>
  </outline>
</glyph>
<glyph name="L" format="2">
  <advance width="1078.8799999999999"/>
  <unicode hex="004C"/>
  <note>
L
</note>
  <anchor x="522.1" y="0.0" name="bottom"/>
  <anchor x="260.6" y="716.0" name="center"/>
  <anchor x="724.02" y="719.7" name="dot"/>
  <anchor x="1002.9000000000001" y="10.0" name="ogonek"/>
  <anchor x="334.36" y="1444.68" name="top"/>
  <anchor x="8.86" y="1444.68" name="topleft"/>
  <anchor x="887.2" y="1444.68" name="topright"/>
  <outline>
    <contour>
      <point x="171.58" y="0.0" type="line"/>
      <point x="1052.16" y="0.0" type="line"/>
      <point x="1052.16" y="19.12000000000002" type="line"/>
      <point x="241.12" y="19.12000000000002" type="line"/>
      <point x="356.76" y="9.56" type="line"/>
      <point x="356.76" y="1438.98" type="line"/>
      <point x="171.58" y="1438.98" type="line"/>
    </contour>
  </outline>
</glyph>
<glyph name="M" format="2">
  <advance width="1771.68"/>
  <unicode hex="004D"/>
  <note>
M
</note>
  <anchor x="885.84" y="0.0" name="bottom"/>
  <anchor x="885.84" y="1435.7" name="top"/>
  <outline>
    <contour>
      <point x="171.58" y="0.0" type="line"/>
      <point x="211.22" y="0.0" type="line"/>
      <point x="211.22" y="1399.76" type="line"/>
      <point x="198.96" y="1375.24" type="line"/>
      <point x="835.8" y="16.37999999999998" type="line"/>
      <point x="1456.7" y="1400.58" type="line"/>
      <point x="1369.02" y="1405.1" type="line"/>
      <point x="1369.02" y="0.0" type="line"/>
      <point x="1600.1" y="0.0" type="line"/>
      <point x="1600.1" y="1438.98" type="line"/>
      <point x="1376.3" y="1438.98" type="line"/>
      <point x="854.56" y="249.42" type="line"/>
      <point x="929.12" y="296.2" type="line"/>
      <point x="410.86" y="1438.98" type="line"/>
      <point x="171.58" y="1438.98" type="line"/>
    </contour>
  </outline>
</glyph>
<glyph name="N" format="2">
  <advance width="1516.48"/>
  <unicode hex="004E"/>
  <note>
N
</note>
  <anchor x="758.24" y="0.0" name="bottom"/>
  <anchor x="758.24" y="1435.7" name="top"/>
  <outline>
    <contour>
      <point x="171.72" y="0.0" type="line"/>
      <point x="211.36" y="0.0" type="line"/>
      <point x="211.36" y="1351.28" type="line"/>
      <point x="182.56" y="1204.6" type="line"/>
      <point x="1322.52" y="-17.2" type="line"/>
      <point x="1344.76" y="-17.2" type="line"/>
      <point x="1344.76" y="1438.98" type="line"/>
      <point x="1305.12" y="1438.98" type="line"/>
      <point x="1305.12" y="101.25999999999999" type="line"/>
      <point x="1332.2" y="228.38000000000002" type="line"/>
      <point x="189.68" y="1451.88" type="line"/>
      <point x="171.72" y="1451.88" type="line"/>
    </contour>
  </outline>
</glyph>
<glyph name="O" format="2">
  <advance width="1616.74"/>
  <unicode hex="004F"/>
  <note>
O
</note>
  <anchor x="808.8" y="-3.552713678800501e-15" name="bottom"/>
  <anchor x="808.8" y="715.0" name="center"/>
  <anchor x="981.3199999999999" y="0.0" name="ogonek"/>
  <anchor x="808.8" y="1430.0" name="top"/>
  <anchor x="27.580000000000005" y="1430.0" name="topleft"/>
  <anchor x="1416.56" y="1430.0" name="topright"/>
  <outline>
    <contour>
      <point x="816.78" y="-34.980000000000004" type="curve" smooth="yes"/>
      <point x="1237.04" y="-26.000000000000004"/>
      <point x="1543.72" y="310.42"/>
      <point x="1539.3" y="728.54" type="curve" smooth="yes"/>
      <point x="1534.74" y="1150.08"/>
      <point x="1215.52" y="1476.96"/>
      <point x="801.96" y="1467.98" type="curve" smooth="yes"/>
      <point x="385.98" y="1459.86"/>
      <point x="72.88" y="1118.02"/>
      <point x="77.44" y="697.9" type="curve" smooth="yes"/>
      <point x="82.0" y="280.64"/>
      <point x="395.52" y="-43.1"/>
    </contour>
    <contour>
      <point x="815.78" y="-11.860000000000014" type="curve"/>
      <point x="537.5" y="-16.419999999999987"/>
      <point x="292.42" y="298.04"/>
      <point x="288.0" y="705.46" type="curve" smooth="yes"/>
      <point x="284.44" y="1114.46"/>
      <point x="526.12" y="1440.3"/>
      <point x="801.96" y="1444.86" type="curve"/>
      <point x="1076.8" y="1449.42"/>
      <point x="1325.18" y="1132.56"/>
      <point x="1328.74" y="723.56" type="curve" smooth="yes"/>
      <point x="1333.16" y="317.28"/>
      <point x="1095.06" y="-7.299999999999997"/>
    </contour>
  </outline>
</glyph>
<glyph name="P" format="2">
  <advance width="1132.7"/>
  <unicode hex="0050"/>
  <note>
P
</note>
  <anchor x="579.78" y="-3.552713678800501e-15" name="bottom"/>
  <anchor x="579.78" y="1436.4" name="top"/>
  <outline>
    <contour>
      <point x="170.44" y="0.0" type="line"/>
      <point x="367.02" y="0.0" type="line"/>
      <point x="367.02" y="615.88" type="line"/>
      <point x="238.96000000000004" y="604.62" type="line"/>
      <point x="583.8399999999999" y="604.76" type="line" smooth="yes"/>
      <point x="732.04" y="605.76"/>
      <point x="859.56" y="638.5"/>
      <point x="948.6800000000001" y="715.64" type="curve" smooth="yes"/>
      <point x="1029.82" y="786.08"/>
      <point x="1075.26" y="894.8"/>
      <point x="1073.98" y="1035.9" type="curve" smooth="yes"/>
      <point x="1072.7" y="1164.46"/>
      <point x="1028.68" y="1262.2"/>
      <point x="950.1" y="1328.08" type="curve" smooth="yes"/>
      <point x="862.6800000000001" y="1400.66"/>
      <point x="733.4399999999999" y="1438.98"/>
      <point x="568.98" y="1438.98" type="curve" smooth="yes"/>
      <point x="170.44" y="1438.98" type="line"/>
    </contour>
    <contour>
      <point x="367.02" y="613.76" type="line"/>
      <point x="367.02" y="1427.14" type="line"/>
      <point x="212.88" y="1421.0" type="line"/>
      <point x="542.62" y="1419.86" type="line" smooth="yes"/>
      <point x="738.5" y="1418.86"/>
      <point x="889.56" y="1261.36"/>
      <point x="891.98" y="1023.5" type="curve" smooth="yes"/>
      <point x="894.4" y="782.34"/>
      <point x="745.46" y="623.74"/>
      <point x="549.46" y="623.88" type="curve" smooth="yes"/>
      <point x="237.96" y="624.88" type="line"/>
    </contour>
  </outline>
</glyph>
<glyph name="Q" format="2">
  <advance width="1616.74"/>
  <unicode hex="0051"/>
  <note>
Q
</note>
  <anchor x="805.22" y="-1.7763568394002505e-15" name="bottom"/>
  <anchor x="805.22" y="1430.0" name="top"/>
  <anchor x="808.8" y="715.4321500000001" name="center"/>
  <anchor x="981.3199999999999" y="-1.7199999999999989" name="ogonek"/>
  <anchor x="27.580000000000005" y="1432.5843" name="topleft"/>
  <anchor x="1416.56" y="1432.5843" name="topright"/>
  <outline>
    <contour>
      <point x="1099.78" y="-404.08" type="curve" smooth="yes"/>
      <point x="1181.1" y="-404.08"/>
      <point x="1221.06" y="-389.1"/>
      <point x="1268.7" y="-348.76" type="curve"/>
      <point x="1215.66" y="-371.56"/>
      <point x="1173.02" y="-377.4"/>
      <point x="1131.38" y="-377.26" type="curve" smooth="yes"/>
      <point x="958.12" y="-377.12"/>
      <point x="892.8" y="-303.2"/>
      <point x="892.8" y="-181.38" type="curve" smooth="yes"/>
      <point x="892.8" y="-22.140000000000015" type="line"/>
      <point x="704.82" y="-22.140000000000015" type="line"/>
      <point x="704.82" y="-156.08" type="line" smooth="yes"/>
      <point x="704.82" y="-247.2"/>
      <point x="775.76" y="-334.38"/>
      <point x="849.8199999999999" y="-365.22" type="curve" smooth="yes"/>
      <point x="922.1800000000001" y="-395.78"/>
      <point x="999.86" y="-404.08"/>
    </contour>
    <component base="O" yScale="1.00301" yOffset="-1.7199999999999989"/>
  </outline>
</glyph>
<glyph name="R" format="2">
  <advance width="1214.06"/>
  <unicode hex="0052"/>
  <note>
R
</note>
  <anchor x="615.3199999999999" y="0.0" name="bottom"/>
  <anchor x="615.3199999999999" y="1435.7" name="top"/>
  <outline>
    <contour>
      <point x="171.44" y="0.0" type="line"/>
      <point x="368.02" y="0.0" type="line"/>
      <point x="368.02" y="632.42" type="line"/>
      <point x="265.18" y="624.86" type="line"/>
      <point x="554.74" y="624.86" type="line"/>
      <point x="628.96" y="627.14" type="line"/>
      <point x="904.9200000000001" y="640.84"/>
      <point x="1078.4" y="768.72"/>
      <point x="1074.98" y="1034.94" type="curve" smooth="yes"/>
      <point x="1070.42" y="1343.22"/>
      <point x="829.64" y="1438.98"/>
      <point x="569.98" y="1438.98" type="curve" smooth="yes"/>
      <point x="171.44" y="1438.98" type="line"/>
    </contour>
    <contour>
      <point x="265.18" y="643.98" type="line"/>
      <point x="368.02" y="637.84" type="line"/>
      <point x="368.02" y="1429.28" type="line"/>
      <point x="265.18" y="1421.1399999999999" type="line"/>
      <point x="542.76" y="1419.86" type="line" smooth="yes"/>
      <point x="738.64" y="1418.72"/>
      <point x="889.7" y="1260.4"/>
      <point x="892.98" y="1022.54" type="curve" smooth="yes"/>
      <point x="895.26" y="781.38"/>
      <point x="745.6" y="643.98"/>
      <point x="549.6" y="643.98" type="curve" smooth="yes"/>
    </contour>
    <contour>
      <point x="544.42" y="626.58" type="line"/>
      <point x="627.06" y="614.3"/>
      <point x="688.96" y="624.92"/>
      <point x="774.04" y="523.74" type="curve" smooth="yes"/>
      <point x="825.78" y="459.6"/>
      <point x="855.84" y="402.12"/>
      <point x="899.64" y="254.72" type="curve" smooth="yes"/>
      <point x="919.06" y="160.0"/>
      <point x="946.9399999999999" y="74.54"/>
      <point x="972.78" y="0.0" type="curve"/>
      <point x="1141.62" y="0.0" type="line"/>
      <point x="1120.18" y="72.28"/>
      <point x="1080.18" y="188.12"/>
      <point x="1055.02" y="289.04" type="curve" smooth="yes"/>
      <point x="1024.0" y="414.22"/>
      <point x="968.4399999999999" y="490.58"/>
      <point x="918.38" y="540.08" type="curve" smooth="yes"/>
      <point x="836.6" y="614.88"/>
      <point x="761.74" y="642.14"/>
      <point x="653.86" y="643.4" type="curve"/>
    </contour>
  </outline>
</glyph>
<glyph name="S" format="2">
  <advance width="1202.52"/>
  <unicode hex="0053"/>
  <note>
S
</note>
  <anchor x="600.9" y="0.0" name="bottom"/>
  <anchor x="600.9" y="1435.7" name="top"/>
  <outline>
    <contour>
      <point x="572.9399999999999" y="-36.26" type="curve" smooth="yes"/>
      <point x="917.94" y="-36.26"/>
      <point x="1131.08" y="105.68"/>
      <point x="1131.08" y="414.04" type="curve" smooth="yes"/>
      <point x="1131.08" y="672.08"/>
      <point x="971.1800000000001" y="777.86"/>
      <point x="624.58" y="874.56" type="curve" smooth="yes"/>
      <point x="473.28" y="924.68"/>
      <point x="295.64" y="998.88"/>
      <point x="295.64" y="1152.2" type="curve" smooth="yes"/>
      <point x="295.64" y="1320.22"/>
      <point x="407.40000000000003" y="1446.44"/>
      <point x="601.5" y="1446.44" type="curve" smooth="yes"/>
      <point x="768.3" y="1446.44"/>
      <point x="946.14" y="1347.8"/>
      <point x="979.1" y="1194.16" type="curve"/>
      <point x="1074.58" y="1204.28" type="line"/>
      <point x="1042.44" y="1354.1"/>
      <point x="865.02" y="1472.98"/>
      <point x="609.5" y="1472.98" type="curve" smooth="yes"/>
      <point x="305.66" y="1472.98"/>
      <point x="114.46" y="1303.56"/>
      <point x="115.6" y="1089.54" type="curve" smooth="yes"/>
      <point x="116.6" y="887.28"/>
      <point x="264.76" y="772.58"/>
      <point x="552.24" y="683.86" type="curve" smooth="yes"/>
      <point x="804.14" y="604.96"/>
      <point x="951.46" y="529.36"/>
      <point x="951.46" y="340.44" type="curve" smooth="yes"/>
      <point x="951.46" y="123.28"/>
      <point x="834.08" y="-8.579999999999991"/>
      <point x="585.92" y="-8.579999999999991" type="curve" smooth="yes"/>
      <point x="337.66" y="-8.579999999999991"/>
      <point x="193.06" y="111.25999999999999"/>
      <point x="159.20000000000002" y="329.15999999999997" type="curve"/>
      <point x="62.720000000000006" y="314.34000000000003" type="line"/>
      <point x="94.0" y="80.47999999999999"/>
      <point x="261.44" y="-36.26"/>
    </contour>
  </outline>
</glyph>
<glyph name="T" format="2">
  <advance width="1242.76"/>
  <unicode hex="0054"/>
  <note>
T
</note>
  <anchor x="621.38" y="0.0" name="bottom"/>
  <anchor x="621.38" y="715.0" name="center"/>
  <anchor x="621.38" y="1435.7" name="top"/>
  <outline>
    <contour>
      <point x="523.8" y="0.0" type="line"/>
      <point x="720.38" y="0.0" type="line"/>
      <point x="720.38" y="1433.84" type="line"/>
      <point x="553.42" y="1419.86" type="line"/>
      <point x="1216.04" y="1419.86" type="line"/>
      <point x="1216.04" y="1438.98" type="line"/>
      <point x="26.72" y="1438.98" type="line"/>
      <point x="26.72" y="1419.86" type="line"/>
      <point x="690.76" y="1419.86" type="line"/>
      <point x="523.8" y="1433.84" type="line"/>
    </contour>
  </outline>
</glyph>
<glyph name="U" format="2">
  <advance width="1462.1"/>
  <unicode hex="0055"/>
  <note>
U
</note>
  <anchor x="747.82" y="0.0" name="bottom"/>
  <anchor x="926.84" y="0.0" name="ogonek"/>
  <anchor x="747.82" y="1435.7" name="top"/>
  <anchor x="1339.1" y="1435.7" name="topright"/>
  <outline>
    <contour>
      <point x="753.14" y="-34.12" type="curve" smooth="yes"/>
      <point x="1121.56" y="-34.12"/>
      <point x="1322.96" y="199.54"/>
      <point x="1322.96" y="557.06" type="curve" smooth="yes"/>
      <point x="1322.96" y="1438.98" type="line"/>
      <point x="1277.3" y="1438.98" type="line"/>
      <point x="1277.3" y="538.34" type="line" smooth="yes"/>
      <point x="1277.3" y="217.62"/>
      <point x="1030.92" y="15.540000000000006"/>
      <point x="753.42" y="15.540000000000006" type="curve" smooth="yes"/>
      <point x="471.36" y="15.540000000000006"/>
      <point x="332.24" y="223.32"/>
      <point x="332.24" y="555.44" type="curve" smooth="yes"/>
      <point x="332.24" y="1438.98" type="line"/>
      <point x="137.72" y="1438.98" type="line"/>
      <point x="137.72" y="556.56" type="line" smooth="yes"/>
      <point x="137.72" y="179.16"/>
      <point x="395.64" y="-34.12"/>
    </contour>
  </outline>
</glyph>
<glyph name="V" format="2">
  <advance width="1393.1"/>
  <unicode hex="0056"/>
  <note>
V
</note>
  <anchor x="696.98" y="0.0" name="bottom"/>
  <anchor x="696.98" y="1435.7" name="top"/>
  <outline>
    <contour>
      <point x="715.52" y="-50.120000000000005" type="line"/>
      <point x="1355.8" y="1438.12" type="line"/>
      <point x="1304.9" y="1438.12" type="line"/>
      <point x="750.16" y="154.9" type="line"/>
      <point x="805.38" y="213.04000000000002" type="line"/>
      <point x="243.26" y="1438.98" type="line"/>
      <point x="36.29999999999998" y="1438.12" type="line"/>
    </contour>
  </outline>
</glyph>
<glyph name="W" format="2">
  <advance width="1949.8600000000001"/>
  <unicode hex="0057"/>
  <note>
W
</note>
  <anchor x="975.36" y="3.552713678800501e-15" name="bottom"/>
  <anchor x="975.36" y="1438.98" name="top"/>
  <outline>
    <contour>
      <point x="1304.34" y="-50.12" type="line"/>
      <point x="1911.42" y="1438.12" type="line"/>
      <point x="1865.08" y="1438.12" type="line"/>
      <point x="1335.7" y="154.9" type="line"/>
      <point x="1387.36" y="213.04000000000002" type="line"/>
      <point x="853.6" y="1438.98" type="line"/>
      <point x="660.6" y="1438.12" type="line"/>
    </contour>
    <contour>
      <point x="681.18" y="-50.12" type="line"/>
      <point x="1032.4" y="812.36" type="line"/>
      <point x="1002.18" y="857.42" type="line"/>
      <point x="712.54" y="154.89999999999998" type="line"/>
      <point x="764.2" y="213.04000000000005" type="line"/>
      <point x="230.44" y="1438.98" type="line"/>
      <point x="37.43999999999998" y="1438.12" type="line"/>
    </contour>
    <contour>
      <point x="1061.22" y="812.36" type="line"/>
      <point x="1317.08" y="1438.12" type="line"/>
      <point x="1269.74" y="1438.12" type="line"/>
      <point x="1031.0" y="857.42" type="line"/>
    </contour>
  </outline>
</glyph>
<glyph name="X" format="2">
  <advance width="1257.46"/>
  <unicode hex="0058"/>
  <note>
X
</note>
  <anchor x="626.0" y="0.0" name="bottom"/>
  <anchor x="626.0" y="1435.7" name="top"/>
  <outline>
    <contour>
      <point x="992.52" y="1.1400000000000001" type="line"/>
      <point x="1218.58" y="0.0" type="line"/>
      <point x="262.7" y="1437.98" type="line"/>
      <point x="50.46000000000001" y="1437.98" type="line"/>
    </contour>
    <contour>
      <point x="60.059999999999995" y="0.0" type="line"/>
      <point x="127.24000000000001" y="0.0" type="line"/>
      <point x="626.74" y="708.32" type="line"/>
      <point x="588.52" y="760.82" type="line"/>
    </contour>
    <contour>
      <point x="647.28" y="708.32" type="line"/>
      <point x="1153.26" y="1437.98" type="line"/>
      <point x="1080.24" y="1438.98" type="line"/>
      <point x="609.06" y="760.82" type="line"/>
    </contour>
  </outline>
</glyph>
<glyph name="Y" format="2">
  <advance width="1209.92"/>
  <unicode hex="0059"/>
  <note>
Y
</note>
  <anchor x="612.7" y="1.7763568394002505e-15" name="bottom"/>
  <anchor x="604.1" y="1435.7" name="top"/>
  <anchor x="12.0" y="1435.7" name="topleft"/>
  <outline>
    <contour>
      <point x="513.1" y="0.0" type="line"/>
      <point x="709.68" y="0.0" type="line"/>
      <point x="709.68" y="608.5" type="line"/>
      <point x="1177.34" y="1438.98" type="line"/>
      <point x="1105.34" y="1438.98" type="line"/>
      <point x="636.36" y="605.3" type="line"/>
      <point x="708.1" y="657.8199999999999" type="line"/>
      <point x="261.4" y="1438.98" type="line"/>
      <point x="31.720000000000013" y="1438.98" type="line"/>
      <point x="513.1" y="592.6" type="line"/>
    </contour>
  </outline>
</glyph>
<glyph name="Z" format="2">
  <advance width="1220.26"/>
  <unicode hex="005A"/>
  <note>
Z
</note>
  <anchor x="611.42" y="0.0" name="bottom"/>
  <anchor x="611.42" y="715.0" name="center"/>
  <anchor x="611.42" y="1435.7" name="top"/>
  <outline>
    <contour>
      <point x="39.44" y="-8.98" type="line"/>
      <point x="1175.82" y="-8.98" type="line"/>
      <point x="1175.96" y="17.88000000000001" type="line"/>
      <point x="80.41999999999999" y="17.88000000000001" type="line"/>
      <point x="224.48000000000002" y="4.879999999999999" type="line"/>
      <point x="1146.56" y="1438.98" type="line"/>
      <point x="102.56" y="1438.98" type="line"/>
      <point x="102.41999999999999" y="1412.98" type="line"/>
      <point x="1112.42" y="1412.98" type="line"/>
      <point x="962.94" y="1420.7" type="line"/>
    </contour>
  </outline>
</glyph>
<glyph name="bracketleft" format="2">
  <advance width="599.82"/>
  <unicode hex="005B"/>
  <note>
bracketleft
</note>
  <outline>
    <contour>
      <point x="167.72" y="-410.98" type="line"/>
      <point x="557.82" y="-410.98" type="line"/>
      <point x="557.82" y="-332.48" type="line"/>
      <point x="298.92" y="-332.48" type="line"/>
      <point x="298.92" y="1392.48" type="line"/>
      <point x="557.82" y="1392.48" type="line"/>
      <point x="557.82" y="1470.98" type="line"/>
      <point x="167.72" y="1470.98" type="line"/>
    </contour>
  </outline>
</glyph>
<glyph name="bracketright" format="2">
  <advance width="599.82"/>
  <unicode hex="005D"/>
  <note>
bracketright
</note>
  <outline>
    <contour>
      <point x="42.0" y="-410.98" type="line"/>
      <point x="432.1" y="-410.98" type="line"/>
      <point x="432.1" y="1470.98" type="line"/>
      <point x="42.0" y="1470.98" type="line"/>
      <point x="42.0" y="1392.48" type="line"/>
      <point x="300.90000000000003" y="1392.48" type="line"/>
      <point x="300.90000000000003" y="-332.48" type="line"/>
      <point x="42.0" y="-332.48" type="line"/>
    </contour>
  </outline>
</glyph>
<glyph name="asciicircum" format="2">
  <advance width="1004.28"/>
  <unicode hex="005E"/>
  <note>
asciicircum
</note>
  <outline>
    <contour>
      <point x="92.58" y="843.04" type="line"/>
      <point x="228.76" y="843.04" type="line"/>
      <point x="517.12" y="1358.04" type="line"/>
      <point x="485.16" y="1358.04" type="line"/>
      <point x="774.66" y="843.04" type="line"/>
      <point x="911.7" y="843.04" type="line"/>
      <point x="570.14" y="1451.88" type="line"/>
      <point x="433.28" y="1451.88" type="line"/>
    </contour>
  </outline>
</glyph>
<glyph name="underscore" format="2">
  <advance width="1471.0"/>
  <unicode hex="005F"/>
  <note>
underscore
</note>
  <outline>
    <contour>
      <point x="77.14" y="-397.4" type="line"/>
      <point x="1393.8600000000001" y="-397.4" type="line"/>
      <point x="1393.8600000000001" y="-323.2" type="line"/>
      <point x="77.14" y="-323.2" type="line"/>
    </contour>
  </outline>
</glyph>
<glyph name="a" format="2">
  <advance width="1217.42"/>
  <unicode hex="0061"/>
  <note>
a
</note>
  <anchor x="569.88" y="0.0" name="bottom"/>
  <anchor x="1022.64" y="0.0" name="ogonek"/>
  <anchor x="571.28" y="918.9" name="top"/>
  <outline>
    <contour>
      <point x="534.76" y="-30.7" type="curve" smooth="yes"/>
      <point x="732.18" y="-30.7"/>
      <point x="884.18" y="60.64"/>
      <point x="911.7" y="339.65999999999997" type="curve"/>
      <point x="897.86" y="256.04" type="line"/>
      <point x="897.86" y="0.0" type="line"/>
      <point x="1090.84" y="0.0" type="line"/>
      <point x="1090.84" y="922.12" type="line"/>
      <point x="897.86" y="922.12" type="line"/>
      <point x="897.86" y="713.24" type="line"/>
      <point x="922.1" y="562.5" type="line"/>
      <point x="895.72" y="819.3"/>
      <point x="765.1" y="957.1"/>
      <point x="545.02" y="957.1" type="curve" smooth="yes"/>
      <point x="242.42" y="957.1"/>
      <point x="54.14" y="766.64"/>
      <point x="50.720000000000006" y="458.56" type="curve" smooth="yes"/>
      <point x="47.300000000000004" y="153.48"/>
      <point x="250.4" y="-30.7"/>
    </contour>
    <contour>
      <point x="564.4" y="-6.439999999999998" type="curve" smooth="yes"/>
      <point x="363.92" y="-6.439999999999998"/>
      <point x="241.57999999999998" y="199.56"/>
      <point x="243.85999999999999" y="463.0" type="curve" smooth="yes"/>
      <point x="246.14" y="745.28"/>
      <point x="371.64" y="933.7"/>
      <point x="562.12" y="933.7" type="curve" smooth="yes"/>
      <point x="772.3" y="933.7"/>
      <point x="889.22" y="756.06"/>
      <point x="886.94" y="458.56" type="curve" smooth="yes"/>
      <point x="884.66" y="160.88000000000002"/>
      <point x="764.0" y="-6.439999999999998"/>
    </contour>
  </outline>
</glyph>
<glyph name="b" format="2">
  <advance width="1183.36"/>
  <unicode hex="0062"/>
  <note>
b
</note>
  <anchor x="607.72" y="7.105427357601002e-15" name="bottom"/>
  <anchor x="607.72" y="1519.7" name="top"/>
  <outline>
    <contour>
      <point x="675.66" y="-30.84" type="curve" smooth="yes"/>
      <point x="954.62" y="-30.84"/>
      <point x="1133.5" y="166.16"/>
      <point x="1133.5" y="457.42" type="curve" smooth="yes"/>
      <point x="1133.5" y="758.94"/>
      <point x="940.94" y="950.54"/>
      <point x="667.6800000000001" y="950.54" type="curve" smooth="yes"/>
      <point x="465.46000000000004" y="950.54"/>
      <point x="363.36" y="846.72"/>
      <point x="306.32000000000005" y="673.08" type="curve"/>
      <point x="359.91999999999996" y="637.0" type="line"/>
      <point x="359.91999999999996" y="1516.1" type="line"/>
      <point x="139.72" y="1516.1" type="line"/>
      <point x="139.72" y="0.0" type="line"/>
      <point x="357.64" y="0.0" type="line"/>
      <point x="357.64" y="270.44" type="line"/>
      <point x="298.34" y="240.2" type="line"/>
      <point x="357.65999999999997" y="68.56"/>
      <point x="477.0" y="-30.84"/>
    </contour>
    <contour>
      <point x="646.16" y="16.220000000000013" type="curve" smooth="yes"/>
      <point x="481.86" y="16.220000000000013"/>
      <point x="355.38" y="206.54"/>
      <point x="355.38" y="453.88" type="curve" smooth="yes"/>
      <point x="355.38" y="708.94"/>
      <point x="488.15999999999997" y="904.34"/>
      <point x="649.44" y="904.34" type="curve" smooth="yes"/>
      <point x="805.04" y="904.34"/>
      <point x="908.44" y="728.7"/>
      <point x="908.44" y="459.84000000000003" type="curve" smooth="yes"/>
      <point x="908.44" y="187.54"/>
      <point x="802.74" y="16.220000000000013"/>
    </contour>
  </outline>
</glyph>
<glyph name="c" format="2">
  <advance width="952.8"/>
  <unicode hex="0063"/>
  <note>
c
</note>
  <anchor x="479.2" y="-8.600000000000001" name="bottom"/>
  <anchor x="540.6" y="940.0799999999999" name="top"/>
  <outline>
    <contour>
      <point x="559.16" y="-30.84" type="curve" smooth="yes"/>
      <point x="676.04" y="-29.7"/>
      <point x="781.34" y="0.6199999999999992"/>
      <point x="902.52" y="105.12" type="curve"/>
      <point x="902.52" y="206.35999999999999" type="line"/>
      <point x="819.56" y="66.84"/>
      <point x="686.04" y="-6.300000000000011"/>
      <point x="564.86" y="-7.439999999999998" type="curve" smooth="yes"/>
      <point x="374.76" y="-8.720000000000013"/>
      <point x="258.96000000000004" y="160.94"/>
      <point x="258.96000000000004" y="459.58" type="curve" smooth="yes"/>
      <point x="258.96000000000004" y="746.56"/>
      <point x="369.94" y="930.56"/>
      <point x="553.46" y="931.84" type="curve" smooth="yes"/>
      <point x="676.36" y="932.98"/>
      <point x="817.14" y="852.0"/>
      <point x="902.52" y="725.02" type="curve"/>
      <point x="902.52" y="831.96" type="line"/>
      <point x="781.48" y="929.34"/>
      <point x="672.48" y="957.24"/>
      <point x="559.16" y="956.1" type="curve" smooth="yes"/>
      <point x="248.84000000000003" y="952.68"/>
      <point x="50.720000000000006" y="755.24"/>
      <point x="50.720000000000006" y="452.72" type="curve" smooth="yes"/>
      <point x="50.720000000000006" y="152.48"/>
      <point x="244.56" y="-34.26"/>
    </contour>
  </outline>
</glyph>
<glyph name="d" format="2">
  <advance width="1183.36"/>
  <unicode hex="0064"/>
  <note>
d
</note>
  <anchor x="519.76" y="7.105427357601002e-15" name="bottom"/>
  <anchor x="907.6" y="1275.7" name="center"/>
  <anchor x="578.36" y="1519.7" name="top"/>
  <anchor x="1187.16" y="1517.28" name="topright"/>
  <outline>
    <contour>
      <point x="508.56" y="-30.84" type="curve" smooth="yes"/>
      <point x="706.36" y="-30.84"/>
      <point x="825.7" y="68.56"/>
      <point x="885.88" y="240.2" type="curve"/>
      <point x="825.72" y="270.44" type="line"/>
      <point x="825.72" y="0.0" type="line"/>
      <point x="1043.6399999999999" y="0.0" type="line"/>
      <point x="1043.6399999999999" y="1516.1" type="line"/>
      <point x="823.44" y="1516.1" type="line"/>
      <point x="823.44" y="637.0" type="line"/>
      <point x="877.9" y="673.08" type="line"/>
      <point x="820.0" y="846.72"/>
      <point x="718.76" y="950.54"/>
      <point x="516.54" y="950.54" type="curve" smooth="yes"/>
      <point x="242.42" y="950.54"/>
      <point x="50.720000000000006" y="760.08"/>
      <point x="50.720000000000006" y="457.42" type="curve" smooth="yes"/>
      <point x="50.720000000000006" y="167.3"/>
      <point x="229.6" y="-30.84"/>
    </contour>
    <contour>
      <point x="537.2" y="16.22" type="curve" smooth="yes"/>
      <point x="381.62" y="16.22"/>
      <point x="274.91999999999996" y="186.4"/>
      <point x="274.91999999999996" y="459.84000000000003" type="curve" smooth="yes"/>
      <point x="274.91999999999996" y="727.5600000000001"/>
      <point x="378.18" y="904.34"/>
      <point x="534.78" y="904.34" type="curve" smooth="yes"/>
      <point x="695.06" y="904.34"/>
      <point x="827.98" y="708.94"/>
      <point x="827.98" y="453.88" type="curve" smooth="yes"/>
      <point x="827.98" y="206.54"/>
      <point x="702.5" y="16.22"/>
    </contour>
  </outline>
</glyph>
<glyph name="e" format="2">
  <advance width="1103.6"/>
  <unicode hex="0065"/>
  <note>
e
</note>
  <anchor x="562.8" y="-10.0" name="bottom"/>
  <anchor x="725.24" y="4.3" name="ogonek"/>
  <anchor x="560.0" y="921.48" name="top"/>
  <outline>
    <contour>
      <point x="556.86" y="-30.84" type="curve" smooth="yes"/>
      <point x="801.9" y="-28.7"/>
      <point x="967.24" y="79.02000000000001"/>
      <point x="1034.06" y="261.86" type="curve"/>
      <point x="948.94" y="261.86" type="line"/>
      <point x="868.96" y="83.02000000000001"/>
      <point x="720.86" y="-6.300000000000011"/>
      <point x="562.56" y="-7.439999999999998" type="curve" smooth="yes"/>
      <point x="375.06" y="-8.580000000000013"/>
      <point x="254.4" y="159.74"/>
      <point x="254.4" y="456.14" type="curve" smooth="yes"/>
      <point x="254.4" y="755.8"/>
      <point x="378.6" y="929.7"/>
      <point x="562.56" y="931.84" type="curve" smooth="yes"/>
      <point x="739.18" y="933.12"/>
      <point x="861.0" y="772.74"/>
      <point x="872.18" y="492.18" type="curve"/>
      <point x="1062.04" y="492.18" type="line"/>
      <point x="1070.54" y="790.12"/>
      <point x="847.12" y="959.52"/>
      <point x="556.86" y="956.1" type="curve" smooth="yes"/>
      <point x="241.56" y="952.68"/>
      <point x="51.86000000000001" y="742.5"/>
      <point x="51.86000000000001" y="448.42" type="curve" smooth="yes"/>
      <point x="51.86000000000001" y="145.66"/>
      <point x="227.56" y="-33.26"/>
    </contour>
    <contour>
      <point x="244.36" y="492.04" type="line"/>
      <point x="959.72" y="492.18" type="line"/>
      <point x="959.72" y="513.58" type="line"/>
      <point x="231.82" y="513.58" type="line"/>
    </contour>
  </outline>
</glyph>
<glyph name="f" format="2">
  <advance width="558.56"/>
  <unicode hex="0066"/>
  <note>
f
</note>
  <anchor x="287.08" y="7.105427357601002e-15" name="bottom"/>
  <anchor x="287.08" y="1519.7" name="top"/>
  <outline>
    <contour>
      <point x="171.83999999999997" y="0.0" type="line"/>
      <point x="365.26" y="0.0" type="line"/>
      <point x="365.26" y="1034.02" type="line" smooth="yes"/>
      <point x="365.26" y="1295.08"/>
      <point x="319.86" y="1524.28"/>
      <point x="422.24" y="1535.38" type="curve" smooth="yes"/>
      <point x="483.94" y="1542.36"/>
      <point x="543.74" y="1461.72"/>
      <point x="543.74" y="1377.6" type="curve" smooth="yes"/>
      <point x="543.74" y="1358.3"/>
      <point x="540.88" y="1322.6"/>
      <point x="533.88" y="1291.2" type="curve"/>
      <point x="642.16" y="1314.0" type="line"/>
      <point x="648.02" y="1347.74"/>
      <point x="649.88" y="1380.88"/>
      <point x="649.88" y="1397.18" type="curve" smooth="yes"/>
      <point x="649.88" y="1508.1"/>
      <point x="555.12" y="1558.36"/>
      <point x="420.8" y="1558.36" type="curve" smooth="yes"/>
      <point x="223.48" y="1558.36"/>
      <point x="171.83999999999997" y="1423.28"/>
      <point x="171.83999999999997" y="1091.02" type="curve" smooth="yes"/>
    </contour>
    <contour>
      <point x="13.32" y="899.86" type="line"/>
      <point x="560.84" y="899.86" type="line"/>
      <point x="560.84" y="921.26" type="line"/>
      <point x="13.32" y="921.26" type="line"/>
    </contour>
  </outline>
</glyph>
<glyph name="g" format="2">
  <advance width="1186.8"/>
  <unicode hex="0067"/>
  <note>
g
</note>
  <anchor x="588.34" y="-526.0" name="bottom"/>
  <anchor x="539.74" y="925.78" name="top"/>
  <outline>
    <contour>
      <point x="530.36" y="-573.58" type="curve" smooth="yes"/>
      <point x="964.12" y="-573.58"/>
      <point x="1047.22" y="-308.62"/>
      <point x="1048.08" y="100.62" type="curve" smooth="yes"/>
      <point x="1049.8" y="922.12" type="line"/>
      <point x="858.1" y="922.12" type="line"/>
      <point x="858.1" y="653.82" type="line"/>
      <point x="917.54" y="662.96" type="line"/>
      <point x="860.52" y="839.96"/>
      <point x="718.64" y="948.12"/>
      <point x="518.94" y="948.12" type="curve" smooth="yes"/>
      <point x="244.98" y="948.12"/>
      <point x="50.86" y="746.12"/>
      <point x="50.86" y="449.3" type="curve" smooth="yes"/>
      <point x="50.86" y="152.48"/>
      <point x="245.98" y="-45.519999999999996"/>
      <point x="522.36" y="-45.519999999999996" type="curve" smooth="yes"/>
      <point x="722.0600000000001" y="-45.519999999999996"/>
      <point x="861.66" y="58.49999999999999"/>
      <point x="918.82" y="231.36" type="curve"/>
      <point x="860.38" y="266.44" type="line"/>
      <point x="860.38" y="63.0" type="line"/>
      <point x="860.38" y="-321.1"/>
      <point x="784.6" y="-551.04"/>
      <point x="509.66" y="-551.04" type="curve" smooth="yes"/>
      <point x="294.64" y="-551.04"/>
      <point x="230.56" y="-405.56"/>
      <point x="213.10000000000002" y="-253.18" type="curve"/>
      <point x="58.32" y="-253.18" type="line"/>
      <point x="111.36" y="-486.6"/>
      <point x="282.28000000000003" y="-573.58"/>
    </contour>
    <contour>
      <point x="540.46" y="-21.25999999999999" type="curve" smooth="yes"/>
      <point x="382.29999999999995" y="-21.25999999999999"/>
      <point x="253.12" y="187.02"/>
      <point x="253.12" y="456.02" type="curve" smooth="yes"/>
      <point x="253.12" y="728.18"/>
      <point x="385.46000000000004" y="923.86"/>
      <point x="537.18" y="923.86" type="curve" smooth="yes"/>
      <point x="699.76" y="923.86"/>
      <point x="822.1" y="698.06"/>
      <point x="822.1" y="447.15999999999997" type="curve" smooth="yes"/>
      <point x="822.1" y="195.66"/>
      <point x="698.02" y="-21.25999999999999"/>
    </contour>
  </outline>
</glyph>
<glyph name="h" format="2">
  <advance width="1156.54"/>
  <unicode hex="0068"/>
  <note>
h
</note>
  <anchor x="608.08" y="0.0" name="bottom"/>
  <anchor x="232.82" y="1256.7" name="center"/>
  <anchor x="608.08" y="1514.0" name="top"/>
  <outline>
    <contour>
      <point x="139.72" y="0.0" type="line"/>
      <point x="331.41999999999996" y="0.0" type="line"/>
      <point x="331.41999999999996" y="634.8" type="line" smooth="yes"/>
      <point x="331.41999999999996" y="817.04"/>
      <point x="514.66" y="922.44"/>
      <point x="654.26" y="922.44" type="curve" smooth="yes"/>
      <point x="811.9" y="922.44"/>
      <point x="866.26" y="775.66"/>
      <point x="866.26" y="543.42" type="curve" smooth="yes"/>
      <point x="866.26" y="0.0" type="line"/>
      <point x="1057.96" y="0.0" type="line"/>
      <point x="1057.96" y="577.04" type="line" smooth="yes"/>
      <point x="1057.96" y="808.86"/>
      <point x="901.3199999999999" y="948.12"/>
      <point x="675.6600000000001" y="948.12" type="curve" smooth="yes"/>
      <point x="476.24" y="948.12"/>
      <point x="316.92" y="838.24"/>
      <point x="315.3" y="604.22" type="curve"/>
      <point x="330.14" y="565.36" type="line"/>
      <point x="331.42" y="1516.1" type="line"/>
      <point x="139.72" y="1516.1" type="line"/>
    </contour>
  </outline>
</glyph>
<glyph name="k" format="2">
  <advance width="997.78"/>
  <unicode hex="006B"/>
  <note>
k
</note>
  <anchor x="522.8" y="0.0" name="bottom"/>
  <anchor x="522.8" y="1515.4" name="top"/>
  <outline>
    <contour>
      <point x="139.72" y="0.0" type="line"/>
      <point x="334.0" y="0.0" type="line"/>
      <point x="334.0" y="1516.1" type="line"/>
      <point x="139.72" y="1516.1" type="line"/>
    </contour>
    <contour>
      <point x="824.54" y="0.0" type="line"/>
      <point x="996.64" y="0.0" type="line"/>
      <point x="511.82000000000005" y="590.76" type="line"/>
      <point x="411.79999999999995" y="498.3" type="line"/>
    </contour>
    <contour>
      <point x="259.0" y="310.56" type="line"/>
      <point x="880.58" y="922.12" type="line"/>
      <point x="838.88" y="922.12" type="line"/>
      <point x="299.72" y="399.12" type="line"/>
    </contour>
  </outline>
</glyph>
<glyph name="l" format="2">
  <advance width="499.64"/>
  <unicode hex="006C"/>
  <note>
l
</note>
  <anchor x="225.62" y="0.0" name="bottom"/>
  <anchor x="249.82" y="777.48" name="center"/>
  <anchor x="565.3199999999999" y="783.0" name="dot"/>
  <anchor x="335.32" y="1522.28" name="top"/>
  <anchor x="478.91999999999996" y="1491.1" name="topright"/>
  <outline>
    <contour>
      <point x="139.72" y="0.0" type="line"/>
      <point x="359.92" y="0.0" type="line"/>
      <point x="359.92" y="1516.1" type="line"/>
      <point x="139.72" y="1516.1" type="line"/>
    </contour>
  </outline>
</glyph>
<glyph name="m" format="2">
  <advance width="1826.76"/>
  <unicode hex="006D"/>
  <note>
m
</note>
  <anchor x="916.52" y="0.0" name="bottom"/>
  <anchor x="916.52" y="920.08" name="top"/>
  <outline>
    <contour>
      <point x="126.58" y="0.0" type="line"/>
      <point x="319.42" y="0.0" type="line"/>
      <point x="319.42" y="629.1" type="line" smooth="yes"/>
      <point x="319.42" y="804.5"/>
      <point x="489.96000000000004" y="922.44"/>
      <point x="631.6800000000001" y="922.44" type="curve" smooth="yes"/>
      <point x="782.6" y="922.44"/>
      <point x="831.96" y="775.66"/>
      <point x="831.96" y="543.42" type="curve" smooth="yes"/>
      <point x="831.96" y="0.0" type="line"/>
      <point x="1024.8" y="0.0" type="line"/>
      <point x="1023.94" y="629.1" type="line" smooth="yes"/>
      <point x="1023.94" y="800.2"/>
      <point x="1189.34" y="922.44"/>
      <point x="1331.06" y="922.44" type="curve" smooth="yes"/>
      <point x="1482.84" y="922.44"/>
      <point x="1535.48" y="775.66"/>
      <point x="1535.48" y="543.42" type="curve" smooth="yes"/>
      <point x="1535.48" y="0.0" type="line"/>
      <point x="1728.32" y="0.0" type="line"/>
      <point x="1728.32" y="577.04" type="line" smooth="yes"/>
      <point x="1728.32" y="808.86"/>
      <point x="1563.72" y="948.12"/>
      <point x="1352.32" y="948.12" type="curve" smooth="yes"/>
      <point x="1167.74" y="948.12"/>
      <point x="1004.86" y="817.0"/>
      <point x="1002.6800000000001" y="603.38" type="curve"/>
      <point x="1019.22" y="616.62" type="line"/>
      <point x="1009.32" y="821.34"/>
      <point x="853.44" y="948.12"/>
      <point x="652.08" y="948.12" type="curve" smooth="yes"/>
      <point x="478.5" y="948.12"/>
      <point x="324.76" y="837.72"/>
      <point x="304.16" y="643.5" type="curve"/>
      <point x="318.28000000000003" y="618.6800000000001" type="line"/>
      <point x="319.42" y="922.12" type="line"/>
      <point x="126.58" y="922.12" type="line"/>
    </contour>
  </outline>
</glyph>
<glyph name="n" format="2">
  <advance width="1142.54"/>
  <unicode hex="006E"/>
  <note>
n
</note>
  <anchor x="567.1" y="0.0" name="bottom"/>
  <anchor x="567.1" y="920.08" name="top"/>
  <outline>
    <contour>
      <point x="126.58" y="0.0" type="line"/>
      <point x="318.28" y="0.0" type="line"/>
      <point x="318.28" y="629.1" type="line" smooth="yes"/>
      <point x="318.28" y="804.5"/>
      <point x="493.81999999999994" y="922.4399999999999"/>
      <point x="641.12" y="922.4399999999999" type="curve" smooth="yes"/>
      <point x="797.76" y="922.4399999999999"/>
      <point x="852.26" y="775.66"/>
      <point x="852.26" y="543.42" type="curve" smooth="yes"/>
      <point x="852.26" y="0.0" type="line"/>
      <point x="1043.96" y="0.0" type="line"/>
      <point x="1043.96" y="577.04" type="line" smooth="yes"/>
      <point x="1043.96" y="808.86"/>
      <point x="879.06" y="948.12"/>
      <point x="662.52" y="948.12" type="curve" smooth="yes"/>
      <point x="465.52" y="948.12"/>
      <point x="297.08000000000004" y="810.88"/>
      <point x="301.3" y="581.42" type="curve"/>
      <point x="316.14" y="548.26" type="line"/>
      <point x="318.28" y="922.12" type="line"/>
      <point x="126.58" y="922.12" type="line"/>
    </contour>
  </outline>
</glyph>
<glyph name="o" format="2">
  <advance width="1123.88"/>
  <unicode hex="006F"/>
  <note>
o
</note>
  <anchor x="562.44" y="0.0" name="bottom"/>
  <anchor x="562.44" y="458.12" name="center"/>
  <anchor x="706.08" y="0.0" name="ogonek"/>
  <anchor x="562.44" y="918.9" name="top"/>
  <anchor x="1088.6200000000001" y="916.1" name="topright"/>
  <outline>
    <contour>
      <point x="559.16" y="-30.84" type="curve" smooth="yes"/>
      <point x="870.48" y="-27.42"/>
      <point x="1074.02" y="167.44"/>
      <point x="1074.02" y="464.12" type="curve" smooth="yes"/>
      <point x="1074.02" y="770.34"/>
      <point x="879.3199999999999" y="959.52"/>
      <point x="559.16" y="956.1" type="curve" smooth="yes"/>
      <point x="252.26" y="952.68"/>
      <point x="50.720000000000006" y="751.96"/>
      <point x="50.720000000000006" y="452.72" type="curve" smooth="yes"/>
      <point x="50.720000000000006" y="150.06"/>
      <point x="243.28" y="-34.26"/>
    </contour>
    <contour>
      <point x="564.86" y="-7.440000000000012" type="curve" smooth="yes"/>
      <point x="377.34000000000003" y="-8.719999999999999"/>
      <point x="258.96000000000004" y="170.18"/>
      <point x="258.96000000000004" y="459.58" type="curve" smooth="yes"/>
      <point x="258.96000000000004" y="759.24"/>
      <point x="371.22" y="930.56"/>
      <point x="553.46" y="931.84" type="curve" smooth="yes"/>
      <point x="744.7" y="933.98"/>
      <point x="867.06" y="743.52"/>
      <point x="867.06" y="459.84000000000003" type="curve" smooth="yes"/>
      <point x="867.06" y="153.42000000000002"/>
      <point x="743.06" y="-6.159999999999997"/>
    </contour>
  </outline>
</glyph>
<glyph name="p" format="2">
  <advance width="1184.64"/>
  <unicode hex="0070"/>
  <note>
p
</note>
  <anchor x="608.14" y="7.105427357601002e-15" name="bottom"/>
  <anchor x="608.14" y="917.28" name="top"/>
  <outline>
    <contour>
      <point x="141.0" y="-557.82" type="line"/>
      <point x="361.2" y="-557.82" type="line"/>
      <point x="361.2" y="280.28" type="line"/>
      <point x="307.6" y="244.20000000000002" type="line"/>
      <point x="364.64" y="70.56"/>
      <point x="468.02" y="-34.120000000000005"/>
      <point x="668.96" y="-34.120000000000005" type="curve" smooth="yes"/>
      <point x="944.36" y="-34.120000000000005"/>
      <point x="1134.78" y="163.04"/>
      <point x="1134.78" y="465.56" type="curve" smooth="yes"/>
      <point x="1134.78" y="756.68"/>
      <point x="957.1800000000001" y="958.82"/>
      <point x="676.94" y="958.82" type="curve" smooth="yes"/>
      <point x="480.42" y="958.82"/>
      <point x="358.93999999999994" y="860.12"/>
      <point x="299.62" y="688.48" type="curve"/>
      <point x="358.92" y="646.84" type="line"/>
      <point x="358.92" y="922.12" type="line"/>
      <point x="141.0" y="922.12" type="line"/>
    </contour>
    <contour>
      <point x="650.72" y="12.93999999999999" type="curve" smooth="yes"/>
      <point x="490.58000000000004" y="12.93999999999999"/>
      <point x="356.65999999999997" y="208.34"/>
      <point x="356.65999999999997" y="463.4" type="curve" smooth="yes"/>
      <point x="356.65999999999997" y="710.74"/>
      <point x="482.0" y="911.76"/>
      <point x="647.4399999999999" y="911.76" type="curve" smooth="yes"/>
      <point x="802.88" y="911.76"/>
      <point x="909.72" y="736.58"/>
      <point x="909.72" y="463.14" type="curve" smooth="yes"/>
      <point x="909.72" y="195.42000000000002"/>
      <point x="807.46" y="12.93999999999999"/>
    </contour>
  </outline>
</glyph>
<glyph name="q" format="2">
  <advance width="1171.08"/>
  <unicode hex="0071"/>
  <note>
q
</note>
  <anchor x="561.52" y="7.105427357601002e-15" name="bottom"/>
  <anchor x="561.52" y="917.28" name="top"/>
  <outline>
    <contour>
      <point x="824.3" y="-557.82" type="line"/>
      <point x="1044.5" y="-557.82" type="line"/>
      <point x="1044.5" y="922.12" type="line"/>
      <point x="826.58" y="922.12" type="line"/>
      <point x="826.58" y="646.84" type="line"/>
      <point x="885.88" y="688.48" type="line"/>
      <point x="826.56" y="860.12"/>
      <point x="705.08" y="957.8"/>
      <point x="508.56" y="957.8" type="curve" smooth="yes"/>
      <point x="228.32" y="957.8"/>
      <point x="50.720000000000006" y="756.82"/>
      <point x="50.720000000000006" y="465.56" type="curve" smooth="yes"/>
      <point x="50.720000000000006" y="164.04"/>
      <point x="241.14" y="-34.120000000000005"/>
      <point x="516.54" y="-34.120000000000005" type="curve" smooth="yes"/>
      <point x="717.48" y="-34.120000000000005"/>
      <point x="820.86" y="70.56"/>
      <point x="877.9" y="244.2" type="curve"/>
      <point x="824.3" y="280.28" type="line"/>
    </contour>
    <contour>
      <point x="534.78" y="12.93999999999999" type="curve" smooth="yes"/>
      <point x="378.03999999999996" y="12.93999999999999"/>
      <point x="275.78" y="195.42000000000002"/>
      <point x="275.78" y="463.14" type="curve" smooth="yes"/>
      <point x="275.78" y="736.58"/>
      <point x="382.62" y="910.74"/>
      <point x="538.0600000000001" y="910.74" type="curve" smooth="yes"/>
      <point x="703.5" y="910.74"/>
      <point x="828.84" y="710.74"/>
      <point x="828.84" y="463.4" type="curve" smooth="yes"/>
      <point x="828.84" y="208.34"/>
      <point x="694.92" y="12.93999999999999"/>
    </contour>
  </outline>
</glyph>
<glyph name="r" format="2">
  <advance width="852.96"/>
  <unicode hex="0072"/>
  <note>
r
</note>
  <anchor x="183.42000000000002" y="0.0" name="bottom"/>
  <anchor x="543.3199999999999" y="920.08" name="top"/>
  <outline>
    <contour>
      <point x="126.58" y="0.0" type="line"/>
      <point x="318.28" y="0.0" type="line"/>
      <point x="318.28" y="596.2" type="line" smooth="yes"/>
      <point x="318.28" y="749.06"/>
      <point x="422.28" y="921.58"/>
      <point x="556.76" y="921.58" type="curve" smooth="yes"/>
      <point x="677.14" y="921.58"/>
      <point x="715.66" y="848.9"/>
      <point x="715.66" y="777.56" type="curve" smooth="yes"/>
      <point x="715.66" y="724.92"/>
      <point x="701.68" y="694.62"/>
      <point x="686.26" y="673.18" type="curve"/>
      <point x="804.38" y="642.64" type="line"/>
      <point x="826.52" y="691.16"/>
      <point x="836.6800000000001" y="727.16"/>
      <point x="836.6800000000001" y="760.6" type="curve" smooth="yes"/>
      <point x="836.6800000000001" y="878.14"/>
      <point x="732.5" y="948.12"/>
      <point x="596.98" y="948.12" type="curve" smooth="yes"/>
      <point x="449.24" y="948.12"/>
      <point x="341.08" y="850.94"/>
      <point x="303.96000000000004" y="630.66" type="curve"/>
      <point x="318.28" y="638.54" type="line"/>
      <point x="318.28" y="922.12" type="line"/>
      <point x="126.58" y="922.12" type="line"/>
    </contour>
  </outline>
</glyph>
<glyph name="s" format="2">
  <advance width="852.68"/>
  <unicode hex="0073"/>
  <note>
s
</note>
  <anchor x="394.98" y="-10.0" name="bottom"/>
  <anchor x="424.98" y="923.52" name="top"/>
  <outline>
    <contour>
      <point x="415.4" y="-30.84" type="curve" smooth="yes"/>
      <point x="630.2" y="-30.84"/>
      <point x="814.96" y="52.44"/>
      <point x="812.82" y="261.26" type="curve" smooth="yes"/>
      <point x="810.6800000000001" y="475.06"/>
      <point x="566.48" y="546.46"/>
      <point x="443.84000000000003" y="578.04" type="curve" smooth="yes"/>
      <point x="291.02" y="618.16"/>
      <point x="232.18" y="660.3"/>
      <point x="232.18" y="743.94" type="curve" smooth="yes"/>
      <point x="232.18" y="866.58"/>
      <point x="327.14" y="930.7"/>
      <point x="439.98" y="930.7" type="curve" smooth="yes"/>
      <point x="561.14" y="930.7"/>
      <point x="670.72" y="854.82"/>
      <point x="719.32" y="780.22" type="curve"/>
      <point x="768.34" y="829.46" type="line"/>
      <point x="695.4" y="916.24"/>
      <point x="569.94" y="956.1"/>
      <point x="440.98" y="956.1" type="curve" smooth="yes"/>
      <point x="240.24" y="956.1"/>
      <point x="72.53999999999999" y="864.0"/>
      <point x="73.68" y="695.74" type="curve" smooth="yes"/>
      <point x="74.82" y="539.38"/>
      <point x="201.76" y="467.22"/>
      <point x="371.18" y="420.9" type="curve" smooth="yes"/>
      <point x="553.0" y="370.38"/>
      <point x="624.66" y="296.9"/>
      <point x="624.66" y="215.60000000000002" type="curve" smooth="yes"/>
      <point x="624.66" y="22.10000000000001"/>
      <point x="504.14" y="-4.440000000000012"/>
      <point x="407.56" y="-4.440000000000012" type="curve" smooth="yes"/>
      <point x="228.6" y="-4.439999999999998"/>
      <point x="133.8" y="82.1"/>
      <point x="91.02" y="195.08" type="curve"/>
      <point x="32.88" y="142.68" type="line"/>
      <point x="77.47999999999999" y="58.04"/>
      <point x="196.32" y="-30.84"/>
    </contour>
  </outline>
</glyph>
<glyph name="t" format="2">
  <advance width="584.72"/>
  <unicode hex="0074"/>
  <note>
t
</note>
  <anchor x="336.56" y="-8.6" name="bottom"/>
  <anchor x="256.56" y="625.76" name="center"/>
  <anchor x="299.36" y="922.98" name="top"/>
  <anchor x="514.42" y="1349.88" name="topright"/>
  <outline>
    <contour>
      <point x="356.06" y="-26.98" type="curve" smooth="yes"/>
      <point x="442.82000000000005" y="-26.98"/>
      <point x="552.14" y="2.4200000000000017"/>
      <point x="570.56" y="16.259999999999998" type="curve"/>
      <point x="570.56" y="52.24" type="line"/>
      <point x="529.88" y="29.120000000000005"/>
      <point x="439.53999999999996" y="4.119999999999997"/>
      <point x="396.12" y="4.119999999999997" type="curve" smooth="yes"/>
      <point x="299.94" y="4.119999999999997"/>
      <point x="346.12" y="137.48"/>
      <point x="346.12" y="505.84000000000003" type="curve" smooth="yes"/>
      <point x="346.12" y="899.86" type="line"/>
      <point x="514.62" y="899.86" type="line"/>
      <point x="514.62" y="921.26" type="line"/>
      <point x="346.12" y="921.26" type="line"/>
      <point x="346.12" y="1282.36" type="line"/>
      <point x="303.32" y="1282.36" type="line"/>
      <point x="303.32" y="953.24"/>
      <point x="176.68" y="920.4"/>
      <point x="23.6" y="921.26" type="curve"/>
      <point x="23.6" y="899.86" type="line"/>
      <point x="154.42" y="899.86" type="line"/>
      <point x="154.42" y="315.24" type="line" smooth="yes"/>
      <point x="154.42" y="66.02"/>
      <point x="204.16" y="-26.98"/>
    </contour>
  </outline>
</glyph>
<glyph name="u" format="2">
  <advance width="1134.08"/>
  <unicode hex="0075"/>
  <note>
u
</note>
  <anchor x="505.94" y="-1.4000000000000021" name="bottom"/>
  <anchor x="941.3" y="0.0" name="ogonek"/>
  <anchor x="564.54" y="921.26" name="top"/>
  <anchor x="1164.76" y="921.26" name="topright"/>
  <outline>
    <contour>
      <point x="447.82" y="-28.26" type="curve" smooth="yes"/>
      <point x="670.68" y="-28.26"/>
      <point x="830.44" y="89.36"/>
      <point x="833.78" y="379.94" type="curve"/>
      <point x="819.8" y="377.72" type="line"/>
      <point x="817.66" y="0.0" type="line"/>
      <point x="1009.36" y="0.0" type="line"/>
      <point x="1009.36" y="922.12" type="line"/>
      <point x="817.66" y="922.12" type="line"/>
      <point x="817.66" y="397.52" type="line" smooth="yes"/>
      <point x="817.66" y="132.60000000000002"/>
      <point x="659.36" y="-2.5799999999999983"/>
      <point x="474.92" y="-2.5799999999999983" type="curve" smooth="yes"/>
      <point x="319.54" y="-2.5799999999999983"/>
      <point x="292.28" y="139.04"/>
      <point x="292.28" y="377.3" type="curve" smooth="yes"/>
      <point x="292.28" y="922.12" type="line"/>
      <point x="100.58" y="922.12" type="line"/>
      <point x="100.58" y="335.08" type="line" smooth="yes"/>
      <point x="100.58" y="102.4"/>
      <point x="223.24" y="-28.26"/>
    </contour>
  </outline>
</glyph>
<glyph name="v" format="2">
  <advance width="923.54"/>
  <unicode hex="0076"/>
  <note>
v
</note>
  <anchor x="461.84" y="7.105427357601002e-15" name="bottom"/>
  <anchor x="461.84" y="922.98" name="top"/>
  <outline>
    <contour>
      <point x="459.41999999999996" y="-27.4" type="line"/>
      <point x="463.0" y="-27.4" type="line"/>
      <point x="913.96" y="922.12" type="line"/>
      <point x="871.32" y="922.12" type="line"/>
      <point x="494.36" y="129.16000000000003" type="line"/>
      <point x="544.02" y="175.58" type="line"/>
      <point x="189.18" y="922.12" type="line"/>
      <point x="8.719999999999999" y="922.12" type="line"/>
    </contour>
  </outline>
</glyph>
<glyph name="w" format="2">
  <advance width="1476.6"/>
  <unicode hex="0077"/>
  <note>
w
</note>
  <anchor x="738.3" y="0.0" name="bottom"/>
  <anchor x="738.3" y="922.98" name="top"/>
  <outline>
    <contour>
      <point x="976.22" y="-7.880000000000001" type="line"/>
      <point x="1052.76" y="-7.880000000000001" type="line"/>
      <point x="1466.02" y="922.12" type="line"/>
      <point x="1424.38" y="922.12" type="line"/>
      <point x="1058.18" y="101.66000000000001" type="line"/>
      <point x="1097.3" y="133.4" type="line"/>
      <point x="744.52" y="922.12" type="line"/>
      <point x="563.5" y="922.12" type="line"/>
    </contour>
    <contour>
      <point x="423.44" y="-7.880000000000001" type="line"/>
      <point x="499.98" y="-7.880000000000001" type="line"/>
      <point x="783.8" y="630.64" type="line"/>
      <point x="792.62" y="745.54" type="line"/>
      <point x="512.24" y="115.34" type="line"/>
      <point x="540.1" y="141.52" type="line"/>
      <point x="191.88" y="922.12" type="line"/>
      <point x="10.719999999999999" y="922.12" type="line"/>
    </contour>
    <contour>
      <point x="827.86" y="692.0600000000001" type="line"/>
      <point x="928.66" y="922.12" type="line"/>
      <point x="887.02" y="922.12" type="line"/>
      <point x="809.3199999999999" y="744.4" type="line"/>
    </contour>
  </outline>
</glyph>
<glyph name="x" format="2">
  <advance width="850.1"/>
  <unicode hex="0078"/>
  <note>
x
</note>
  <anchor x="425.9" y="7.105427357601002e-15" name="bottom"/>
  <anchor x="425.9" y="922.98" name="top"/>
  <outline>
    <contour>
      <point x="629.64" y="0.0" type="line"/>
      <point x="826.6400000000001" y="0.0" type="line"/>
      <point x="237.46" y="922.12" type="line"/>
      <point x="40.32" y="922.12" type="line"/>
    </contour>
    <contour>
      <point x="29.11999999999999" y="0.0" type="line"/>
      <point x="78.19999999999999" y="0.0" type="line"/>
      <point x="389.14" y="413.54" type="line"/>
      <point x="398.66" y="493.54" type="line"/>
    </contour>
    <contour>
      <point x="438.74" y="443.32" type="line"/>
      <point x="794.3" y="922.12" type="line"/>
      <point x="744.64" y="922.12" type="line"/>
      <point x="449.0" y="524.34" type="line"/>
    </contour>
  </outline>
</glyph>
<glyph name="y" format="2">
  <advance width="923.54"/>
  <unicode hex="0079"/>
  <note>
y
</note>
  <anchor x="615.84" y="0.0" name="bottom"/>
  <anchor x="467.44" y="922.98" name="top"/>
  <outline>
    <contour>
      <point x="205.68" y="-552.42" type="curve" smooth="yes"/>
      <point x="320.14" y="-552.42"/>
      <point x="343.02000000000004" y="-461.36"/>
      <point x="384.02" y="-340.8" type="curve" smooth="yes"/>
      <point x="435.48" y="-191.88"/>
      <point x="494.56" y="32.98000000000002"/>
      <point x="576.72" y="206.57999999999996" type="curve"/>
      <point x="913.96" y="922.12" type="line"/>
      <point x="871.32" y="922.12" type="line"/>
      <point x="488.98" y="116.25999999999999" type="line"/>
      <point x="541.6" y="180.42" type="line"/>
      <point x="189.18" y="922.12" type="line"/>
      <point x="8.719999999999999" y="922.12" type="line"/>
      <point x="465.84000000000003" y="-41.660000000000004" type="line"/>
      <point x="477.96" y="61.6" type="line"/>
      <point x="348.96" y="-317.36" type="line" smooth="yes"/>
      <point x="326.64" y="-384.15999999999997"/>
      <point x="292.94" y="-513.34"/>
      <point x="217.10000000000002" y="-527.02" type="curve" smooth="yes"/>
      <point x="160.72" y="-527.02"/>
      <point x="122.24" y="-471.68"/>
      <point x="126.53999999999999" y="-361.66" type="curve"/>
      <point x="38.22" y="-370.92" type="line"/>
      <point x="42.52000000000001" y="-504.6"/>
      <point x="127.18" y="-552.42"/>
    </contour>
  </outline>
</glyph>
<glyph name="z" format="2">
  <advance width="844.36"/>
  <unicode hex="007A"/>
  <note>
z
</note>
  <anchor x="422.04" y="0.0" name="bottom"/>
  <anchor x="422.04" y="461.56" name="center"/>
  <anchor x="422.04" y="922.12" name="top"/>
  <outline>
    <contour>
      <point x="19.58" y="0.0" type="line"/>
      <point x="797.08" y="0.0" type="line"/>
      <point x="796.22" y="21.4" type="line"/>
      <point x="108.67999999999998" y="21.4" type="line"/>
      <point x="192.2" y="11.7" type="line"/>
      <point x="820.5" y="922.12" type="line"/>
      <point x="57.28000000000001" y="922.12" type="line"/>
      <point x="58.14000000000001" y="900.72" type="line"/>
      <point x="732.26" y="900.72" type="line"/>
      <point x="650.16" y="912.84" type="line"/>
    </contour>
  </outline>
</glyph>
<glyph name="braceleft" format="2">
  <advance width="591.4"/>
  <unicode hex="007B"/>
  <note>
braceleft
</note>
  <outline>
    <contour>
      <point x="550.26" y="-408.84" type="curve"/>
      <point x="550.26" y="-327.92" type="line"/>
      <point x="378.1" y="-348.58"/>
      <point x="291.36" y="-235.79999999999998"/>
      <point x="291.36" y="8.0" type="curve" smooth="yes"/>
      <point x="291.36" y="330.0" type="line" smooth="yes"/>
      <point x="291.36" y="390.88"/>
      <point x="246.04000000000002" y="435.04"/>
      <point x="185.66" y="478.0" type="curve"/>
      <point x="247.32000000000002" y="525.1"/>
      <point x="291.36" y="566.12"/>
      <point x="291.36" y="626.0" type="curve" smooth="yes"/>
      <point x="291.36" y="1052.0" type="line" smooth="yes"/>
      <point x="291.36" y="1295.8"/>
      <point x="378.1" y="1408.58"/>
      <point x="550.26" y="1387.92" type="curve"/>
      <point x="550.26" y="1468.84" type="line"/>
      <point x="308.5" y="1484.66"/>
      <point x="160.16" y="1344.66"/>
      <point x="160.16" y="1122.0" type="curve" smooth="yes"/>
      <point x="160.16" y="626.0" type="line" smooth="yes"/>
      <point x="160.16" y="560.42"/>
      <point x="118.39999999999999" y="514.84"/>
      <point x="65.72" y="478.0" type="curve"/>
      <point x="118.4" y="441.15999999999997"/>
      <point x="160.16" y="396.44"/>
      <point x="160.16" y="330.0" type="curve" smooth="yes"/>
      <point x="160.16" y="-61.99999999999999" type="line" smooth="yes"/>
      <point x="160.16" y="-284.8"/>
      <point x="306.64" y="-423.66"/>
    </contour>
  </outline>
</glyph>
<glyph name="bar" format="2">
  <advance width="571.44"/>
  <unicode hex="007C"/>
  <note>
bar
</note>
  <outline>
    <contour>
      <point x="213.72" y="-300.0" type="line"/>
      <point x="357.72" y="-300.0" type="line"/>
      <point x="357.72" y="1664.0" type="line"/>
      <point x="213.72" y="1664.0" type="line"/>
    </contour>
  </outline>
</glyph>
<glyph name="braceright" format="2">
  <advance width="591.4"/>
  <unicode hex="007D"/>
  <note>
braceright
</note>
  <outline>
    <contour>
      <point x="41.14" y="-408.84" type="line"/>
      <point x="284.76" y="-423.66"/>
      <point x="431.24" y="-284.8"/>
      <point x="431.24" y="-61.99999999999999" type="curve" smooth="yes"/>
      <point x="431.24" y="330.0" type="line" smooth="yes"/>
      <point x="431.24" y="396.44"/>
      <point x="473.0" y="441.15999999999997"/>
      <point x="526.54" y="478.0" type="curve"/>
      <point x="473.0" y="514.84"/>
      <point x="431.24" y="560.42"/>
      <point x="431.24" y="626.0" type="curve" smooth="yes"/>
      <point x="431.24" y="1122.0" type="line" smooth="yes"/>
      <point x="431.24" y="1344.66"/>
      <point x="283.76" y="1484.66"/>
      <point x="41.14" y="1468.84" type="curve"/>
      <point x="41.14" y="1387.92" type="line"/>
      <point x="214.16000000000003" y="1408.58"/>
      <point x="300.04" y="1295.8"/>
      <point x="300.04" y="1052.0" type="curve" smooth="yes"/>
      <point x="300.04" y="626.0" type="line" smooth="yes"/>
      <point x="300.04" y="566.12"/>
      <point x="344.08" y="525.1"/>
      <point x="405.74" y="478.0" type="curve"/>
      <point x="346.21999999999997" y="435.04"/>
      <point x="300.04" y="390.88"/>
      <point x="300.04" y="330.0" type="curve" smooth="yes"/>
      <point x="300.04" y="8.0" type="line" smooth="yes"/>
      <point x="300.04" y="-235.79999999999998"/>
      <point x="214.16000000000003" y="-348.58"/>
      <point x="41.14" y="-327.92" type="curve"/>
    </contour>
  </outline>
</glyph>
<glyph name="asciitilde" format="2">
  <advance width="1217.94"/>
  <unicode hex="007E"/>
  <note>
asciitilde
</note>
  <outline>
    <contour>
      <point x="799.6800000000001" y="592.86" type="curve" smooth="yes"/>
      <point x="921.92" y="592.86"/>
      <point x="1041.22" y="660.66"/>
      <point x="1110.78" y="730.3" type="curve"/>
      <point x="1052.44" y="815.42" type="line"/>
      <point x="943.1800000000001" y="735.46"/>
      <point x="857.02" y="704.68"/>
      <point x="797.1" y="704.68" type="curve" smooth="yes"/>
      <point x="728.96" y="704.68"/>
      <point x="681.98" y="741.68"/>
      <point x="636.88" y="768.38" type="curve" smooth="yes"/>
      <point x="559.98" y="814.2"/>
      <point x="485.6" y="842.66"/>
      <point x="414.96" y="842.66" type="curve" smooth="yes"/>
      <point x="310.1" y="842.66"/>
      <point x="186.38" y="779.56"/>
      <point x="106.3" y="691.96" type="curve"/>
      <point x="166.5" y="607.7" type="line"/>
      <point x="275.76" y="693.22"/>
      <point x="353.34000000000003" y="729.12"/>
      <point x="415.68" y="729.12" type="curve" smooth="yes"/>
      <point x="482.26" y="729.12"/>
      <point x="554.74" y="682.0"/>
      <point x="595.76" y="657.84" type="curve" smooth="yes"/>
      <point x="689.76" y="603.62"/>
      <point x="756.3" y="592.86"/>
    </contour>
  </outline>
</glyph>
<glyph name=".notdef" format="2">
  <advance width="1381.8600000000001"/>
  <unicode hex="007F"/>
  <note>
.notdef
</note>
  <outline>
    <contour>
      <point x="153.88" y="-362.98" type="line"/>
      <point x="1227.98" y="-362.98" type="line"/>
      <point x="1227.98" y="1418.98" type="line"/>
      <point x="153.88" y="1418.98" type="line"/>
    </contour>
    <contour>
      <point x="339.98" y="-233.88" type="line"/>
      <point x="339.98" y="1289.88" type="line"/>
      <point x="1041.88" y="1289.88" type="line"/>
      <point x="1041.88" y="-233.88" type="line"/>
    </contour>
  </outline>
</glyph>
<glyph name="Euro" format="2">
  <advance width="1490.7"/>
  <unicode hex="0080"/>
  <note>
Euro
</note>
  <outline>
    <contour>
      <point x="893.52" y="-33.220000000000006" type="curve" smooth="yes"/>
      <point x="1157.38" y="-33.220000000000006"/>
      <point x="1316.32" y="118.38"/>
      <point x="1383.12" y="298.74" type="curve"/>
      <point x="1219.26" y="298.74" type="line"/>
      <point x="1129.66" y="114.94"/>
      <point x="1000.48" y="18.159999999999997"/>
      <point x="900.94" y="18.159999999999997" type="curve" smooth="yes"/>
      <point x="652.38" y="18.159999999999997"/>
      <point x="451.8" y="333.1"/>
      <point x="451.8" y="710.02" type="curve" smooth="yes"/>
      <point x="451.8" y="1097.8"/>
      <point x="651.68" y="1400.74"/>
      <point x="900.64" y="1400.74" type="curve" smooth="yes"/>
      <point x="995.62" y="1400.74"/>
      <point x="1131.82" y="1299.54"/>
      <point x="1220.12" y="1114.18" type="curve"/>
      <point x="1382.26" y="1114.18" type="line"/>
      <point x="1319.76" y="1298.7"/>
      <point x="1151.5" y="1451.26"/>
      <point x="893.52" y="1451.26" type="curve" smooth="yes"/>
      <point x="513.48" y="1451.26"/>
      <point x="247.86" y="1148.16"/>
      <point x="247.85999999999999" y="709.16" type="curve" smooth="yes"/>
      <point x="259.26" y="247.02"/>
      <point x="515.78" y="-33.220000000000006"/>
    </contour>
    <contour>
      <point x="92.86" y="525.6" type="line"/>
      <point x="997.26" y="525.6" type="line"/>
      <point x="1008.82" y="574.4" type="line"/>
      <point x="103.56" y="574.4" type="line"/>
    </contour>
    <contour>
      <point x="140.86" y="826.46" type="line"/>
      <point x="1045.26" y="826.46" type="line"/>
      <point x="1056.82" y="875.26" type="line"/>
      <point x="151.56" y="875.26" type="line"/>
    </contour>
  </outline>
</glyph>
<glyph name="sterling" format="2">
  <advance width="1299.68"/>
  <unicode hex="00A3"/>
  <note>
sterling
</note>
  <outline>
    <contour>
      <point x="276.86" y="44.660000000000004" type="curve" smooth="yes"/>
      <point x="504.40000000000003" y="49.22"/>
      <point x="832.54" y="186.0"/>
      <point x="832.54" y="461.62" type="curve" smooth="yes"/>
      <point x="832.54" y="603.28"/>
      <point x="766.24" y="735.28"/>
      <point x="587.84" y="839.44" type="curve" smooth="yes"/>
      <point x="453.64" y="917.2"/>
      <point x="351.6" y="998.78"/>
      <point x="351.6" y="1148.72" type="curve" smooth="yes"/>
      <point x="351.6" y="1306.18"/>
      <point x="467.9" y="1446.44"/>
      <point x="629.1" y="1446.44" type="curve" smooth="yes"/>
      <point x="793.86" y="1446.44"/>
      <point x="969.98" y="1338.34"/>
      <point x="1002.94" y="1187.28" type="curve"/>
      <point x="1097.56" y="1197.4" type="line"/>
      <point x="1063.7" y="1354.1"/>
      <point x="888.86" y="1472.98"/>
      <point x="642.8" y="1472.98" type="curve" smooth="yes"/>
      <point x="358.62" y="1472.98"/>
      <point x="173.7" y="1308.74"/>
      <point x="173.7" y="1090.96" type="curve" smooth="yes"/>
      <point x="173.7" y="929.74"/>
      <point x="245.40000000000003" y="809.3"/>
      <point x="402.3" y="716.02" type="curve" smooth="yes"/>
      <point x="523.14" y="643.42"/>
      <point x="644.22" y="542.02"/>
      <point x="644.22" y="405.1" type="curve" smooth="yes"/>
      <point x="644.22" y="248.24"/>
      <point x="446.22" y="49.36"/>
      <point x="236.2" y="50.35999999999998" type="curve"/>
      <point x="257.7" y="47.08"/>
      <point x="251.07999999999998" y="44.800000000000004"/>
    </contour>
    <contour>
      <point x="137.98" y="0.0" type="line"/>
      <point x="1208.94" y="0.0" type="line"/>
      <point x="1208.94" y="52.78" type="line"/>
      <point x="137.98" y="52.78" type="line"/>
    </contour>
    <contour>
      <point x="143.02" y="643.62" type="line"/>
      <point x="1076.24" y="643.62" type="line"/>
      <point x="1076.24" y="687.68" type="line"/>
      <point x="143.02" y="687.68" type="line"/>
    </contour>
  </outline>
</glyph>
<glyph name="currency" format="2">
  <advance width="1300.38"/>
  <unicode hex="00A4"/>
  <note>
currency
</note>
  <outline>
    <contour>
      <point x="209.8" y="172.62" type="line"/>
      <point x="391.68" y="357.94" type="line"/>
      <point x="463.9" y="301.44"/>
      <point x="554.52" y="268.06"/>
      <point x="652.7" y="268.06" type="curve" smooth="yes"/>
      <point x="750.02" y="268.06"/>
      <point x="839.9200000000001" y="300.58"/>
      <point x="911.14" y="355.5" type="curve"/>
      <point x="1092.72" y="172.06" type="line"/>
      <point x="1166.3" y="247.22000000000003" type="line"/>
      <point x="986.1600000000001" y="430.94" type="line"/>
      <point x="1043.98" y="502.74"/>
      <point x="1078.24" y="593.96"/>
      <point x="1078.24" y="693.6" type="curve" smooth="yes"/>
      <point x="1078.24" y="794.66"/>
      <point x="1042.98" y="887.72"/>
      <point x="983.2" y="960.64" type="curve"/>
      <point x="1163.36" y="1144.24" type="line"/>
      <point x="1088.2" y="1220.4" type="line"/>
      <point x="906.9" y="1035.66" type="line"/>
      <point x="835.96" y="1088.46"/>
      <point x="748.04" y="1120.14"/>
      <point x="652.7" y="1120.14" type="curve" smooth="yes"/>
      <point x="554.78" y="1120.14"/>
      <point x="465.14" y="1087.6"/>
      <point x="394.2" y="1032.22" type="curve"/>
      <point x="210.32" y="1220.4" type="line"/>
      <point x="134.3" y="1144.38" type="line"/>
      <point x="317.9" y="957.34" type="line"/>
      <point x="260.54" y="885.12"/>
      <point x="226.3" y="793.64"/>
      <point x="226.3" y="693.74" type="curve" smooth="yes"/>
      <point x="226.3" y="594.82"/>
      <point x="260.56" y="504.32"/>
      <point x="316.8" y="432.52" type="curve"/>
      <point x="134.64" y="247.78" type="line"/>
    </contour>
    <contour>
      <point x="652.7" y="363.64" type="curve" smooth="yes"/>
      <point x="469.88" y="363.64"/>
      <point x="321.88" y="510.78"/>
      <point x="321.88" y="693.6" type="curve" smooth="yes"/>
      <point x="321.88" y="876.42"/>
      <point x="469.88" y="1024.42"/>
      <point x="652.7" y="1024.42" type="curve" smooth="yes"/>
      <point x="835.52" y="1024.42"/>
      <point x="982.6600000000001" y="876.42"/>
      <point x="982.6600000000001" y="693.6" type="curve" smooth="yes"/>
      <point x="982.6600000000001" y="510.78"/>
      <point x="835.52" y="363.64"/>
    </contour>
  </outline>
</glyph>
<glyph name="brokenbar" format="2">
  <advance width="575.74"/>
  <unicode hex="00A6"/>
  <note>
brokenbar
</note>
  <outline>
    <contour>
      <point x="213.72" y="-300.0" type="line"/>
      <point x="362.02" y="-300.0" type="line"/>
      <point x="362.02" y="532.5" type="line"/>
      <point x="213.72" y="532.5" type="line"/>
    </contour>
    <contour>
      <point x="213.72" y="859.5" type="line"/>
      <point x="362.02" y="859.5" type="line"/>
      <point x="362.02" y="1664.0" type="line"/>
      <point x="213.72" y="1664.0" type="line"/>
    </contour>
  </outline>
</glyph>
<glyph name="section" format="2">
  <advance width="1157.94"/>
  <unicode hex="00A7"/>
  <note>
section
</note>
  <outline>
    <contour>
      <point x="558.22" y="-455.86" type="curve" smooth="yes"/>
      <point x="788.0799999999999" y="-455.86"/>
      <point x="990.36" y="-350.9"/>
      <point x="988.64" y="-147.8" type="curve" smooth="yes"/>
      <point x="987.78" y="32.65999999999999"/>
      <point x="827.78" y="130.70000000000002"/>
      <point x="620.2" y="187.98000000000002" type="curve"/>
      <point x="617.06" y="175.28" type="line"/>
      <point x="878.08" y="160.54000000000002"/>
      <point x="1053.22" y="293.02"/>
      <point x="1051.5" y="512.48" type="curve" smooth="yes"/>
      <point x="1050.64" y="691.4"/>
      <point x="865.92" y="785.56"/>
      <point x="613.1400000000001" y="880.92" type="curve" smooth="yes"/>
      <point x="453.41999999999996" y="940.9"/>
      <point x="365.48" y="1028.58"/>
      <point x="364.62" y="1177.54" type="curve" smooth="yes"/>
      <point x="363.76" y="1294.16"/>
      <point x="440.70000000000005" y="1463.92"/>
      <point x="594.16" y="1463.92" type="curve" smooth="yes"/>
      <point x="723.52" y="1463.92"/>
      <point x="810.4" y="1348.9"/>
      <point x="810.52" y="1157.76" type="curve"/>
      <point x="989.96" y="1157.76" type="line"/>
      <point x="989.96" y="1185.8799999999999" type="line" smooth="yes"/>
      <point x="989.96" y="1370.48"/>
      <point x="844.6" y="1488.18"/>
      <point x="601.72" y="1488.18" type="curve" smooth="yes"/>
      <point x="360.74" y="1488.18"/>
      <point x="165.16" y="1377.66"/>
      <point x="166.88" y="1181.26" type="curve" smooth="yes"/>
      <point x="167.74" y="1007.5"/>
      <point x="327.88" y="919.72"/>
      <point x="551.14" y="843.06" type="curve"/>
      <point x="539.6" y="857.32" type="line"/>
      <point x="295.54" y="888.88"/>
      <point x="110.41999999999999" y="759.54"/>
      <point x="112.14" y="520.7" type="curve" smooth="yes"/>
      <point x="113.0" y="349.04"/>
      <point x="245.56" y="263.72"/>
      <point x="543.66" y="159.1" type="curve" smooth="yes"/>
      <point x="687.4" y="108.96"/>
      <point x="792.46" y="24.699999999999996"/>
      <point x="793.32" y="-141.8" type="curve" smooth="yes"/>
      <point x="794.18" y="-293.62"/>
      <point x="709.12" y="-431.74"/>
      <point x="561.36" y="-431.74" type="curve" smooth="yes"/>
      <point x="436.55999999999995" y="-431.74"/>
      <point x="335.85999999999996" y="-334.82"/>
      <point x="334.88" y="-120.88" type="curve"/>
      <point x="154.16" y="-120.88" type="line"/>
      <point x="154.16" y="-149.0" type="line" smooth="yes"/>
      <point x="154.16" y="-327.9"/>
      <point x="304.08" y="-455.86"/>
    </contour>
    <contour>
      <point x="582.26" y="206.36" type="curve" smooth="yes"/>
      <point x="435.36" y="206.36"/>
      <point x="314.18" y="355.86"/>
      <point x="313.32" y="518.0" type="curve" smooth="yes"/>
      <point x="311.6" y="681.14"/>
      <point x="426.76" y="831.94"/>
      <point x="577.96" y="831.94" type="curve" smooth="yes"/>
      <point x="725.86" y="831.94"/>
      <point x="849.46" y="685.3"/>
      <point x="851.1800000000001" y="522.3" type="curve" smooth="yes"/>
      <point x="852.04" y="360.15999999999997"/>
      <point x="729.02" y="206.36"/>
    </contour>
  </outline>
</glyph>
<glyph name="copyright" format="2">
  <advance width="1728.84"/>
  <unicode hex="00A9"/>
  <note>
copyright
</note>
  <outline>
    <contour>
      <point x="862.92" y="-18.98" type="curve" smooth="yes"/>
      <point x="1067.02" y="-18.98"/>
      <point x="1267.1200000000001" y="68.14"/>
      <point x="1400.14" y="198.16" type="curve" smooth="yes"/>
      <point x="1547.54" y="341.56"/>
      <point x="1617.54" y="511.58"/>
      <point x="1617.54" y="708.0" type="curve" smooth="yes"/>
      <point x="1617.54" y="907.28"/>
      <point x="1544.68" y="1078.3"/>
      <point x="1401.14" y="1222.7" type="curve" smooth="yes"/>
      <point x="1269.84" y="1353.0"/>
      <point x="1071.46" y="1434.98"/>
      <point x="862.92" y="1434.98" type="curve" smooth="yes"/>
      <point x="667.92" y="1434.98"/>
      <point x="470.12" y="1362.12"/>
      <point x="334.7" y="1223.7" type="curve" smooth="yes"/>
      <point x="187.44" y="1073.44"/>
      <point x="109.44" y="903.42"/>
      <point x="109.44" y="708.0" type="curve" smooth="yes"/>
      <point x="109.44" y="512.72"/>
      <point x="184.44" y="342.56"/>
      <point x="332.7" y="196.16" type="curve" smooth="yes"/>
      <point x="470.14" y="58.86"/>
      <point x="664.52" y="-18.98"/>
    </contour>
    <contour>
      <point x="866.08" y="259.88" type="curve" smooth="yes"/>
      <point x="1077.02" y="259.88"/>
      <point x="1232.66" y="381.42"/>
      <point x="1249.7" y="545.8" type="curve"/>
      <point x="1097.94" y="545.8" type="line"/>
      <point x="1065.48" y="400.65999999999997"/>
      <point x="983.44" y="312.1"/>
      <point x="873.8" y="312.1" type="curve" smooth="yes"/>
      <point x="722.72" y="312.1"/>
      <point x="611.76" y="459.96"/>
      <point x="611.76" y="706.0" type="curve" smooth="yes"/>
      <point x="611.76" y="952.74"/>
      <point x="720.14" y="1108.76"/>
      <point x="873.8" y="1108.76" type="curve" smooth="yes"/>
      <point x="975.58" y="1108.76"/>
      <point x="1055.48" y="1027.2"/>
      <point x="1087.22" y="893.92" type="curve"/>
      <point x="1239.7" y="893.92" type="line"/>
      <point x="1222.8" y="1044.16"/>
      <point x="1074.74" y="1158.98"/>
      <point x="876.08" y="1158.98" type="curve" smooth="yes"/>
      <point x="619.28" y="1158.98"/>
      <point x="444.86" y="981.56"/>
      <point x="444.86" y="704.0" type="curve" smooth="yes"/>
      <point x="444.86" y="433.02"/>
      <point x="611.56" y="259.88"/>
    </contour>
    <contour>
      <point x="862.92" y="29.28000000000001" type="curve" smooth="yes"/>
      <point x="689.48" y="29.28000000000001"/>
      <point x="538.14" y="97.0"/>
      <point x="406.86" y="230.27999999999997" type="curve" smooth="yes"/>
      <point x="291.82" y="346.32"/>
      <point x="215.12" y="525.16"/>
      <point x="215.12" y="708.0" type="curve" smooth="yes"/>
      <point x="215.12" y="888.86"/>
      <point x="287.26" y="1069.12"/>
      <point x="408.86" y="1192.72" type="curve" smooth="yes"/>
      <point x="538.42" y="1324.28"/>
      <point x="682.62" y="1389.58"/>
      <point x="862.92" y="1389.58" type="curve" smooth="yes"/>
      <point x="1040.08" y="1389.58"/>
      <point x="1190.56" y="1324.28"/>
      <point x="1324.98" y="1190.72" type="curve" smooth="yes"/>
      <point x="1441.58" y="1074.12"/>
      <point x="1514.72" y="888.86"/>
      <point x="1514.72" y="708.0" type="curve" smooth="yes"/>
      <point x="1514.72" y="519.0"/>
      <point x="1439.72" y="341.88"/>
      <point x="1327.12" y="232.27999999999997" type="curve" smooth="yes"/>
      <point x="1194.56" y="102.72"/>
      <point x="1037.8" y="29.28000000000001"/>
    </contour>
  </outline>
</glyph>
<glyph name="ordfeminine" format="2">
  <advance width="914.04"/>
  <unicode hex="00AA"/>
  <note>
ordfeminine
</note>
  <outline>
    <contour>
      <point x="409.42" y="833.6" type="curve" smooth="yes"/>
      <point x="458.12" y="833.6"/>
      <point x="558.24" y="844.86"/>
      <point x="589.86" y="952.8199999999999" type="curve"/>
      <point x="589.86" y="845.9" type="line"/>
      <point x="752.1800000000001" y="845.9" type="line"/>
      <point x="752.1800000000001" y="1446.4" type="line"/>
      <point x="587.86" y="1446.4" type="line"/>
      <point x="587.86" y="1342.18" type="line"/>
      <point x="556.24" y="1451.1399999999999"/>
      <point x="453.98" y="1462.4"/>
      <point x="405.42" y="1462.4" type="curve" smooth="yes"/>
      <point x="229.06" y="1462.4"/>
      <point x="116.84" y="1332.98"/>
      <point x="116.84" y="1146.0" type="curve" smooth="yes"/>
      <point x="116.84" y="953.58"/>
      <point x="231.34" y="833.6"/>
    </contour>
    <contour>
      <point x="420.26" y="866.32" type="curve" smooth="yes"/>
      <point x="320.88" y="866.32"/>
      <point x="280.94" y="995.08"/>
      <point x="280.94" y="1152.84" type="curve" smooth="yes"/>
      <point x="280.94" y="1298.12"/>
      <point x="315.86" y="1430.54"/>
      <point x="418.26" y="1430.54" type="curve" smooth="yes"/>
      <point x="517.4" y="1430.54"/>
      <point x="588.14" y="1312.76"/>
      <point x="588.14" y="1144.86" type="curve" smooth="yes"/>
      <point x="588.14" y="994.84"/>
      <point x="522.98" y="866.32"/>
    </contour>
    <contour>
      <point x="119.78" y="699.8" type="line"/>
      <point x="769.3" y="699.8" type="line"/>
      <point x="769.3" y="761.3" type="line"/>
      <point x="119.78" y="761.3" type="line"/>
    </contour>
  </outline>
</glyph>
<glyph name="logicalnot" format="2">
  <advance width="1000.14"/>
  <unicode hex="00AC"/>
  <note>
logicalnot
</note>
  <outline>
    <contour>
      <point x="1092.18" y="340.74" type="line"/>
      <point x="1247.32" y="340.74" type="line"/>
      <point x="1247.32" y="856.44" type="line"/>
      <point x="102.12" y="856.44" type="line"/>
      <point x="102.12" y="763.18" type="line"/>
      <point x="1092.18" y="763.18" type="line"/>
    </contour>
  </outline>
</glyph>
<glyph name="registered" format="2">
  <advance width="1727.98"/>
  <unicode hex="00AE"/>
  <note>
registered
</note>
  <outline>
    <contour>
      <point x="862.92" y="-18.98" type="curve" smooth="yes"/>
      <point x="1060.18" y="-18.98"/>
      <point x="1259.28" y="62.44"/>
      <point x="1399.0" y="198.16" type="curve" smooth="yes"/>
      <point x="1546.4" y="341.56"/>
      <point x="1617.54" y="509.3"/>
      <point x="1617.54" y="708.0" type="curve" smooth="yes"/>
      <point x="1617.54" y="906.14"/>
      <point x="1544.54" y="1077.16"/>
      <point x="1401.14" y="1221.56" type="curve" smooth="yes"/>
      <point x="1266.28" y="1356.42"/>
      <point x="1068.18" y="1434.98"/>
      <point x="862.92" y="1434.98" type="curve" smooth="yes"/>
      <point x="664.64" y="1434.98"/>
      <point x="468.98" y="1360.84"/>
      <point x="335.84" y="1225.84" type="curve" smooth="yes"/>
      <point x="184.02" y="1072.16"/>
      <point x="109.44" y="902.28"/>
      <point x="109.44" y="708.0" type="curve" smooth="yes"/>
      <point x="109.44" y="513.72"/>
      <point x="183.3" y="344.7"/>
      <point x="331.56" y="197.3" type="curve" smooth="yes"/>
      <point x="467.86" y="60.0"/>
      <point x="664.38" y="-18.98"/>
    </contour>
    <contour>
      <point x="861.78" y="31.700000000000017" type="curve" smooth="yes"/>
      <point x="690.76" y="31.700000000000017"/>
      <point x="540.42" y="98.0"/>
      <point x="408.14" y="232.42000000000002" type="curve" smooth="yes"/>
      <point x="289.54" y="353.02"/>
      <point x="217.39999999999998" y="531.86"/>
      <point x="217.39999999999998" y="708.0" type="curve" smooth="yes"/>
      <point x="217.39999999999998" y="887.86"/>
      <point x="290.68" y="1068.98"/>
      <point x="411.28" y="1191.72" type="curve" smooth="yes"/>
      <point x="541.84" y="1324.14"/>
      <point x="684.04" y="1386.3"/>
      <point x="862.92" y="1386.3" type="curve" smooth="yes"/>
      <point x="1040.08" y="1386.3"/>
      <point x="1189.42" y="1323.0"/>
      <point x="1323.98" y="1187.3" type="curve" smooth="yes"/>
      <point x="1440.58" y="1070.84"/>
      <point x="1512.44" y="887.86"/>
      <point x="1512.44" y="705.72" type="curve" smooth="yes"/>
      <point x="1512.44" y="523.28"/>
      <point x="1440.3" y="347.02"/>
      <point x="1323.7" y="233.27999999999997" type="curve" smooth="yes"/>
      <point x="1188.86" y="100.29999999999998"/>
      <point x="1038.52" y="31.700000000000017"/>
    </contour>
    <contour>
      <point x="583.58" y="328.24" type="line"/>
      <point x="722.46" y="328.24" type="line"/>
      <point x="722.46" y="668.46" type="line"/>
      <point x="879.4" y="668.46" type="line"/>
      <point x="1076.7" y="328.24" type="line"/>
      <point x="1197.34" y="328.24" type="line"/>
      <point x="988.34" y="675.6" type="line"/>
      <point x="1120.06" y="706.7"/>
      <point x="1185.64" y="778.56"/>
      <point x="1185.64" y="892.46" type="curve" smooth="yes"/>
      <point x="1185.64" y="1039.9"/>
      <point x="1089.12" y="1111.76"/>
      <point x="858.26" y="1111.76" type="curve" smooth="yes"/>
      <point x="583.58" y="1111.76" type="line"/>
    </contour>
    <contour>
      <point x="722.46" y="728.1" type="line"/>
      <point x="722.46" y="1057.68" type="line"/>
      <point x="854.66" y="1057.68" type="line" smooth="yes"/>
      <point x="993.86" y="1057.68"/>
      <point x="1057.16" y="1005.66"/>
      <point x="1057.16" y="892.6" type="curve" smooth="yes"/>
      <point x="1057.16" y="780.26"/>
      <point x="994.86" y="728.1"/>
      <point x="858.66" y="728.1" type="curve" smooth="yes"/>
    </contour>
  </outline>
</glyph>
<glyph name="degree" format="2">
  <advance width="768.78"/>
  <unicode hex="00B0"/>
  <note>
degree
</note>
  <outline>
    <contour>
      <point x="381.96" y="942.44" type="curve" smooth="yes"/>
      <point x="525.56" y="942.44"/>
      <point x="646.62" y="1052.66"/>
      <point x="646.62" y="1187.86" type="curve" smooth="yes"/>
      <point x="646.62" y="1323.06"/>
      <point x="525.56" y="1432.42"/>
      <point x="383.96" y="1432.42" type="curve" smooth="yes"/>
      <point x="241.22" y="1432.42"/>
      <point x="122.16" y="1325.06"/>
      <point x="122.16" y="1187.86" type="curve" smooth="yes"/>
      <point x="122.16" y="1050.66"/>
      <point x="239.22" y="942.44"/>
    </contour>
    <contour>
      <point x="383.96" y="965.84" type="curve" smooth="yes"/>
      <point x="285.84" y="965.84"/>
      <point x="207.14000000000001" y="1063.36"/>
      <point x="207.14000000000001" y="1187.86" type="curve" smooth="yes"/>
      <point x="207.14000000000001" y="1310.36"/>
      <point x="286.98" y="1407.88"/>
      <point x="383.96" y="1407.88" type="curve" smooth="yes"/>
      <point x="481.8" y="1407.88"/>
      <point x="559.64" y="1310.5"/>
      <point x="559.64" y="1187.86" type="curve" smooth="yes"/>
      <point x="559.64" y="1063.36"/>
      <point x="481.8" y="965.84"/>
    </contour>
  </outline>
</glyph>
<glyph name="plusminus" format="2">
  <advance width="1000.14"/>
  <unicode hex="00B1"/>
  <note>
plusminus
</note>
  <outline>
    <contour>
      <point x="440.9" y="370.8" type="line"/>
      <point x="564.64" y="370.8" type="line"/>
      <point x="564.64" y="606.5600000000001" type="line"/>
      <point x="867.72" y="606.5600000000001" type="line"/>
      <point x="867.72" y="730.3" type="line"/>
      <point x="564.64" y="730.3" type="line"/>
      <point x="564.64" y="965.2" type="line"/>
      <point x="440.9" y="965.2" type="line"/>
      <point x="440.9" y="730.3" type="line"/>
      <point x="137.82" y="730.3" type="line"/>
      <point x="137.82" y="606.5600000000001" type="line"/>
      <point x="440.9" y="606.5600000000001" type="line"/>
    </contour>
    <contour>
      <point x="136.82" y="128.48" type="line"/>
      <point x="866.72" y="128.48" type="line"/>
      <point x="866.72" y="252.22" type="line"/>
      <point x="136.82" y="252.22" type="line"/>
    </contour>
  </outline>
</glyph>
<glyph name="paragraph" format="2">
  <advance width="1193.28"/>
  <unicode hex="00B6"/>
  <note>
paragraph
</note>
  <outline>
    <contour>
      <point x="457.86" y="0.0" type="line"/>
      <point x="639.62" y="0.0" type="line"/>
      <point x="639.62" y="1433.86" type="line"/>
      <point x="787.94" y="1433.86" type="line"/>
      <point x="787.94" y="0.0" type="line"/>
      <point x="968.56" y="0.0" type="line"/>
      <point x="968.56" y="1433.86" type="line"/>
      <point x="1062.28" y="1433.86" type="line"/>
      <point x="1062.28" y="1452.98" type="line"/>
      <point x="512.48" y="1452.98" type="line" smooth="yes"/>
      <point x="262.24" y="1452.98"/>
      <point x="91.86000000000001" y="1291.9"/>
      <point x="91.86000000000001" y="1071.94" type="curve" smooth="yes"/>
      <point x="91.86000000000001" y="870.24"/>
      <point x="233.14" y="697.62"/>
      <point x="457.86" y="693.32" type="curve"/>
    </contour>
  </outline>
</glyph>
<glyph name="ordmasculine" format="2">
  <advance width="886.64"/>
  <unicode hex="00BA"/>
  <note>
ordmasculine
</note>
  <outline>
    <contour>
      <point x="441.7" y="840.48" type="curve" smooth="yes"/>
      <point x="623.58" y="840.48"/>
      <point x="773.72" y="958.16"/>
      <point x="773.72" y="1146.86" type="curve" smooth="yes"/>
      <point x="773.72" y="1335.56"/>
      <point x="625.44" y="1457.24"/>
      <point x="441.7" y="1457.24" type="curve" smooth="yes"/>
      <point x="259.68" y="1457.24"/>
      <point x="111.4" y="1336.42"/>
      <point x="111.4" y="1146.86" type="curve" smooth="yes"/>
      <point x="111.4" y="958.16"/>
      <point x="259.82" y="840.48"/>
    </contour>
    <contour>
      <point x="441.42" y="872.48" type="curve" smooth="yes"/>
      <point x="358.28" y="872.48"/>
      <point x="275.76" y="1003.64"/>
      <point x="275.76" y="1146.86" type="curve" smooth="yes"/>
      <point x="275.76" y="1290.22"/>
      <point x="359.28" y="1424.38"/>
      <point x="441.42" y="1424.38" type="curve" smooth="yes"/>
      <point x="523.7" y="1424.38"/>
      <point x="608.22" y="1289.36"/>
      <point x="608.22" y="1146.86" type="curve" smooth="yes"/>
      <point x="608.22" y="1003.78"/>
      <point x="524.7" y="872.48"/>
    </contour>
    <contour>
      <point x="117.78" y="699.8" type="line"/>
      <point x="770.1" y="699.8" type="line"/>
      <point x="770.1" y="761.3" type="line"/>
      <point x="117.78" y="761.3" type="line"/>
    </contour>
  </outline>
</glyph>
<glyph name="AE" format="2">
  <advance width="1772.98"/>
  <unicode hex="00C6"/>
  <note>
AE
</note>
  <anchor x="908.9200000000001" y="-8.599999999999998" name="bottom"/>
  <anchor x="908.9200000000001" y="1444.3" name="top"/>
  <outline>
    <contour>
      <point x="32.58000000000001" y="-4.3" type="line"/>
      <point x="156.36" y="-4.3" type="line"/>
      <point x="960.04" y="1438.98" type="line"/>
      <point x="837.26" y="1438.98" type="line"/>
    </contour>
    <contour>
      <point x="369.62" y="431.64" type="line"/>
      <point x="1019.24" y="431.64" type="line"/>
      <point x="1004.42" y="458.5" type="line"/>
      <point x="385.58" y="458.5" type="line"/>
    </contour>
    <contour>
      <point x="948.62" y="-4.3" type="line"/>
      <point x="1703.4" y="-4.3" type="line"/>
      <point x="1703.4" y="22.560000000000002" type="line"/>
      <point x="1006.98" y="22.560000000000002" type="line"/>
      <point x="1111.22" y="7.84" type="line"/>
      <point x="1111.22" y="749.42" type="line"/>
      <point x="1022.9399999999999" y="715.0" type="line"/>
      <point x="1703.4" y="715.0" type="line"/>
      <point x="1703.4" y="741.86" type="line"/>
      <point x="1006.98" y="741.86" type="line"/>
      <point x="1111.22" y="714.02" type="line"/>
      <point x="1111.22" y="1431.0" type="line"/>
      <point x="943.14" y="1412.1200000000001" type="line"/>
      <point x="1703.4" y="1412.1200000000001" type="line"/>
      <point x="1703.4" y="1438.98" type="line"/>
      <point x="948.62" y="1438.98" type="line"/>
    </contour>
  </outline>
</glyph>
<glyph name="Thorn" format="2">
  <advance width="1146.8"/>
  <unicode hex="00DE"/>
  <note>
Thorn
</note>
  <anchor x="585.94" y="0.0" name="bottom"/>
  <anchor x="585.94" y="1436.4" name="top"/>
  <outline>
    <contour>
      <point x="355.8" y="318.38" type="line"/>
      <point x="581.26" y="318.52" type="line" smooth="yes"/>
      <point x="749.24" y="318.65999999999997"/>
      <point x="863.0" y="348.82"/>
      <point x="940.94" y="416.5" type="curve" smooth="yes"/>
      <point x="1041.0" y="501.56"/>
      <point x="1087.3" y="607.7"/>
      <point x="1086.88" y="736.76" type="curve" smooth="yes"/>
      <point x="1086.46" y="866.18"/>
      <point x="1038.1399999999999" y="968.22"/>
      <point x="944.08" y="1047.86" type="curve" smooth="yes"/>
      <point x="866.98" y="1116.14"/>
      <point x="742.9" y="1151.02"/>
      <point x="572.42" y="1151.02" type="curve" smooth="yes"/>
      <point x="351.18" y="1151.02" type="line"/>
      <point x="350.48" y="1114.98" type="line"/>
      <point x="545.2" y="1114.7" type="line" smooth="yes"/>
      <point x="741.08" y="1114.56"/>
      <point x="869.78" y="971.68"/>
      <point x="870.48" y="729.52" type="curve" smooth="yes"/>
      <point x="871.1800000000001" y="488.36"/>
      <point x="741.16" y="354.7"/>
      <point x="546.88" y="354.84000000000003" type="curve" smooth="yes"/>
      <point x="355.65999999999997" y="354.98" type="line"/>
    </contour>
    <contour>
      <point x="171.3" y="0.0" type="line"/>
      <point x="391.96" y="0.0" type="line"/>
      <point x="391.96" y="1438.84" type="line"/>
      <point x="171.3" y="1438.84" type="line"/>
    </contour>
  </outline>
</glyph>
<glyph name="germandbls" format="2">
  <advance width="1200.68"/>
  <unicode hex="00DF"/>
  <note>
germandbls
</note>
  <anchor x="608.7" y="7.105427357601002e-15" name="bottom"/>
  <anchor x="608.7" y="922.98" name="top"/>
  <outline>
    <contour>
      <point x="782.16" y="-27.4" type="curve" smooth="yes"/>
      <point x="1015.94" y="-27.4"/>
      <point x="1174.82" y="63.36"/>
      <point x="1174.82" y="264.14" type="curve" smooth="yes"/>
      <point x="1174.82" y="432.24"/>
      <point x="1058.0" y="524.48"/>
      <point x="867.02" y="566.76" type="curve" smooth="yes"/>
      <point x="739.52" y="595.06"/>
      <point x="633.98" y="632.92"/>
      <point x="633.98" y="740.28" type="curve" smooth="yes"/>
      <point x="633.98" y="821.9"/>
      <point x="655.8" y="897.12"/>
      <point x="745.76" y="960.22" type="curve" smooth="yes"/>
      <point x="838.92" y="1025.22"/>
      <point x="998.24" y="1042.9"/>
      <point x="998.24" y="1238.42" type="curve" smooth="yes"/>
      <point x="998.24" y="1445.34"/>
      <point x="821.5600000000001" y="1554.92"/>
      <point x="570.4" y="1554.92" type="curve" smooth="yes"/>
      <point x="312.08" y="1554.92"/>
      <point x="171.12" y="1429.98"/>
      <point x="171.12" y="1153.72" type="curve" smooth="yes"/>
      <point x="171.12" y="0.0" type="line"/>
      <point x="361.68" y="0.0" type="line"/>
      <point x="361.68" y="1153.72" type="line" smooth="yes"/>
      <point x="361.68" y="1459.8799999999999"/>
      <point x="449.72" y="1530.38"/>
      <point x="580.82" y="1530.38" type="curve" smooth="yes"/>
      <point x="693.84" y="1530.38"/>
      <point x="828.76" y="1460.7"/>
      <point x="828.76" y="1226.26" type="curve" smooth="yes"/>
      <point x="828.76" y="1124.84"/>
      <point x="793.24" y="1025.92"/>
      <point x="723.5" y="979.06" type="curve" smooth="yes"/>
      <point x="628.64" y="914.36"/>
      <point x="480.18" y="889.76"/>
      <point x="480.18" y="720.7" type="curve" smooth="yes"/>
      <point x="480.18" y="582.5"/>
      <point x="551.18" y="492.72"/>
      <point x="789.62" y="426.72" type="curve" smooth="yes"/>
      <point x="872.64" y="403.24"/>
      <point x="998.78" y="369.42"/>
      <point x="998.78" y="230.3" type="curve" smooth="yes"/>
      <point x="998.78" y="100.96000000000001"/>
      <point x="920.2" y="-2.8600000000000065"/>
      <point x="781.3" y="-2.8600000000000065" type="curve" smooth="yes"/>
      <point x="652.16" y="-2.8600000000000065"/>
      <point x="554.76" y="51.600000000000016"/>
      <point x="513.7" y="168.64" type="curve"/>
      <point x="471.38" y="110.32" type="line"/>
      <point x="520.6800000000001" y="34.4"/>
      <point x="614.98" y="-27.4"/>
    </contour>
    <contour>
      <point x="10.599999999999994" y="901.72" type="line"/>
      <point x="306.28" y="901.72" type="line"/>
      <point x="306.28" y="923.12" type="line"/>
      <point x="10.599999999999994" y="923.12" type="line"/>
    </contour>
  </outline>
</glyph>
<glyph name="ae" format="2">
  <advance width="2028.38"/>
  <unicode hex="00E6"/>
  <note>
ae
</note>
  <anchor x="1015.48" y="7.105427357601002e-15" name="bottom"/>
  <anchor x="1015.48" y="922.98" name="top"/>
  <outline>
    <contour>
      <point x="534.76" y="-30.7" type="curve" smooth="yes"/>
      <point x="732.18" y="-30.7"/>
      <point x="884.18" y="60.64"/>
      <point x="911.7" y="340.52" type="curve"/>
      <point x="897.86" y="256.9" type="line"/>
      <point x="897.86" y="0.0" type="line"/>
      <point x="1090.84" y="0.0" type="line"/>
      <point x="1090.84" y="922.12" type="line"/>
      <point x="897.86" y="922.12" type="line"/>
      <point x="897.86" y="714.96" type="line"/>
      <point x="922.1" y="564.22" type="line"/>
      <point x="895.72" y="821.88"/>
      <point x="765.1" y="957.1"/>
      <point x="545.02" y="957.1" type="curve" smooth="yes"/>
      <point x="242.42000000000002" y="957.1"/>
      <point x="54.14" y="768.36"/>
      <point x="50.720000000000006" y="460.28" type="curve" smooth="yes"/>
      <point x="47.300000000000004" y="153.48"/>
      <point x="250.4" y="-30.7"/>
    </contour>
    <contour>
      <point x="564.4" y="-6.439999999999998" type="curve" smooth="yes"/>
      <point x="363.92" y="-6.439999999999998"/>
      <point x="241.57999999999998" y="199.56"/>
      <point x="243.86" y="464.72" type="curve" smooth="yes"/>
      <point x="246.14" y="747.0"/>
      <point x="371.64" y="932.84"/>
      <point x="562.12" y="932.84" type="curve" smooth="yes"/>
      <point x="772.3" y="932.84"/>
      <point x="889.22" y="758.64"/>
      <point x="886.94" y="459.42" type="curve" smooth="yes"/>
      <point x="884.66" y="161.74"/>
      <point x="764.0" y="-6.439999999999998"/>
    </contour>
    <contour>
      <point x="1505.92" y="-30.84" type="curve" smooth="yes"/>
      <point x="1736.1" y="-28.56"/>
      <point x="1896.16" y="79.02"/>
      <point x="1959.98" y="261.86" type="curve"/>
      <point x="1878.86" y="261.86" type="line"/>
      <point x="1802.88" y="83.02"/>
      <point x="1662.78" y="-6.29999999999999"/>
      <point x="1511.48" y="-7.440000000000005" type="curve" smooth="yes"/>
      <point x="1332.84" y="-8.579999999999991"/>
      <point x="1218.04" y="159.74"/>
      <point x="1218.04" y="456.14" type="curve" smooth="yes"/>
      <point x="1218.04" y="756.66"/>
      <point x="1336.24" y="929.7"/>
      <point x="1511.48" y="931.84" type="curve" smooth="yes"/>
      <point x="1679.24" y="933.12"/>
      <point x="1795.34" y="771.88"/>
      <point x="1806.52" y="492.18" type="curve"/>
      <point x="1986.82" y="492.18" type="line"/>
      <point x="1995.18" y="790.12"/>
      <point x="1782.62" y="959.52"/>
      <point x="1505.92" y="956.1" type="curve" smooth="yes"/>
      <point x="1204.9" y="952.68"/>
      <point x="1025.2" y="742.5"/>
      <point x="1025.2" y="448.42" type="curve" smooth="yes"/>
      <point x="1025.2" y="136.2"/>
      <point x="1203.08" y="-34.120000000000005"/>
    </contour>
    <contour>
      <point x="1156.7" y="492.04" type="line"/>
      <point x="1838.48" y="492.18" type="line"/>
      <point x="1838.48" y="513.58" type="line"/>
      <point x="1145.1599999999999" y="513.58" type="line"/>
    </contour>
  </outline>
</glyph>
<glyph name="eth" format="2">
  <advance width="1129.12"/>
  <unicode hex="00F0"/>
  <note>
eth
</note>
  <outline>
    <contour>
      <point x="554.26" y="-42.08" type="curve" smooth="yes"/>
      <point x="720.22" y="-42.08"/>
      <point x="856.32" y="23.9"/>
      <point x="945.72" y="133.44" type="curve" smooth="yes"/>
      <point x="1016.98" y="222.84"/>
      <point x="1056.96" y="340.52"/>
      <point x="1056.96" y="476.92" type="curve" smooth="yes"/>
      <point x="1056.96" y="656.58"/>
      <point x="1013.98" y="835.5"/>
      <point x="951.0" y="969.78" type="curve" smooth="yes"/>
      <point x="825.34" y="1231.72"/>
      <point x="519.56" y="1451.94"/>
      <point x="159.96" y="1514.36" type="curve"/>
      <point x="132.74" y="1473.74" type="line"/>
      <point x="487.48" y="1404.54"/>
      <point x="763.8199999999999" y="1120.72"/>
      <point x="829.26" y="704.82" type="curve"/>
      <point x="927.28" y="759.82" type="line"/>
      <point x="845.62" y="868.32"/>
      <point x="716.46" y="944.6800000000001"/>
      <point x="554.26" y="944.6800000000001" type="curve" smooth="yes"/>
      <point x="418.86" y="944.6800000000001"/>
      <point x="280.8" y="910.64"/>
      <point x="190.16000000000003" y="814.86" type="curve" smooth="yes"/>
      <point x="103.86000000000001" y="723.56"/>
      <point x="51.28" y="592.3"/>
      <point x="51.28" y="443.86" type="curve" smooth="yes"/>
      <point x="51.28" y="307.26"/>
      <point x="102.14" y="173.46"/>
      <point x="192.28" y="80.18" type="curve" smooth="yes"/>
      <point x="288.92" y="-19.6"/>
      <point x="432.98" y="-42.08"/>
    </contour>
    <contour>
      <point x="554.12" y="4.980000000000004" type="curve" smooth="yes"/>
      <point x="401.38" y="4.980000000000004"/>
      <point x="276.34000000000003" y="206.78"/>
      <point x="276.34000000000003" y="448.3" type="curve" smooth="yes"/>
      <point x="276.34000000000003" y="689.82"/>
      <point x="403.24" y="897.62"/>
      <point x="554.12" y="897.62" type="curve" smooth="yes"/>
      <point x="703.28" y="897.62"/>
      <point x="831.04" y="687.24"/>
      <point x="831.04" y="444.0" type="curve" smooth="yes"/>
      <point x="831.04" y="205.06"/>
      <point x="706.0" y="4.980000000000004"/>
    </contour>
    <contour>
      <point x="198.4" y="1088.74" type="line"/>
      <point x="313.2" y="1088.74" type="line"/>
      <point x="792.12" y="1549.1" type="line"/>
      <point x="677.3199999999999" y="1549.1" type="line"/>
    </contour>
  </outline>
</glyph>
<glyph name="divide" format="2">
  <advance width="1000.14"/>
  <unicode hex="00F7"/>
  <note>
divide
</note>
  <outline>
    <contour>
      <point x="83.58000000000001" y="580.04" type="line"/>
      <point x="1158.26" y="580.04" type="line"/>
      <point x="1158.26" y="675.02" type="line"/>
      <point x="83.58000000000001" y="675.02" type="line"/>
    </contour>
    <contour>
      <point x="620.92" y="165.48000000000002" type="curve" smooth="yes"/>
      <point x="690.4" y="165.48000000000002"/>
      <point x="745.1800000000001" y="220.26"/>
      <point x="745.1800000000001" y="289.74" type="curve" smooth="yes"/>
      <point x="745.1800000000001" y="359.22"/>
      <point x="689.54" y="413.14"/>
      <point x="620.92" y="413.14" type="curve" smooth="yes"/>
      <point x="552.3" y="413.14"/>
      <point x="497.52" y="359.22"/>
      <point x="497.52" y="289.74" type="curve" smooth="yes"/>
      <point x="497.52" y="220.26"/>
      <point x="552.3" y="165.48000000000002"/>
    </contour>
    <contour>
      <point x="620.92" y="842.78" type="curve" smooth="yes"/>
      <point x="690.4" y="842.78"/>
      <point x="745.1800000000001" y="897.56"/>
      <point x="745.1800000000001" y="967.04" type="curve" smooth="yes"/>
      <point x="745.1800000000001" y="1036.52"/>
      <point x="689.54" y="1090.44"/>
      <point x="620.92" y="1090.44" type="curve" smooth="yes"/>
      <point x="552.3" y="1090.44"/>
      <point x="497.52" y="1036.52"/>
      <point x="497.52" y="967.04" type="curve" smooth="yes"/>
      <point x="497.52" y="897.56"/>
      <point x="552.3" y="842.78"/>
    </contour>
  </outline>
</glyph>
<glyph name="thorn" format="2">
  <advance width="1196.3600000000001"/>
  <unicode hex="00FE"/>
  <note>
thorn
</note>
  <anchor x="613.38" y="7.105427357601002e-15" name="bottom"/>
  <anchor x="613.38" y="914.0" name="top"/>
  <outline>
    <contour>
      <point x="152.72" y="-557.82" type="line"/>
      <point x="372.92" y="-557.82" type="line"/>
      <point x="372.92" y="280.28" type="line"/>
      <point x="319.32000000000005" y="244.20000000000002" type="line"/>
      <point x="376.36" y="70.56"/>
      <point x="481.88" y="-34.120000000000005"/>
      <point x="680.68" y="-34.120000000000005" type="curve" smooth="yes"/>
      <point x="957.36" y="-34.120000000000005"/>
      <point x="1146.5" y="164.04"/>
      <point x="1146.5" y="465.56" type="curve" smooth="yes"/>
      <point x="1146.5" y="756.82"/>
      <point x="968.9" y="959.52"/>
      <point x="688.66" y="959.52" type="curve" smooth="yes"/>
      <point x="492.14" y="959.52"/>
      <point x="370.65999999999997" y="860.12"/>
      <point x="311.34" y="688.48" type="curve"/>
      <point x="370.64" y="646.84" type="line"/>
      <point x="370.64" y="1520.4" type="line"/>
      <point x="152.72" y="1520.4" type="line"/>
    </contour>
    <contour>
      <point x="662.4399999999999" y="12.93999999999999" type="curve" smooth="yes"/>
      <point x="502.3" y="12.93999999999999"/>
      <point x="368.38" y="208.2"/>
      <point x="368.38" y="463.4" type="curve" smooth="yes"/>
      <point x="368.38" y="710.6"/>
      <point x="493.72" y="912.46"/>
      <point x="659.16" y="912.46" type="curve" smooth="yes"/>
      <point x="814.6" y="912.46"/>
      <point x="921.44" y="735.58"/>
      <point x="921.44" y="463.14" type="curve" smooth="yes"/>
      <point x="921.44" y="194.42000000000002"/>
      <point x="819.18" y="12.93999999999999"/>
    </contour>
  </outline>
</glyph>
<glyph name="idotless" format="2">
  <advance width="464.06"/>
  <unicode hex="0131"/>
  <note>
dotlessi
</note>
  <anchor x="236.95999999999998" y="-3.552713678800501e-15" name="bottom"/>
  <anchor x="255.9" y="0.0" name="ogonek"/>
  <anchor x="236.95999999999998" y="922.12" name="top"/>
  <outline>
    <contour>
      <point x="126.0" y="0.0" type="line"/>
      <point x="338.06000000000006" y="0.0" type="line"/>
      <point x="338.06000000000006" y="922.12" type="line"/>
      <point x="126.0" y="922.12" type="line"/>
    </contour>
  </outline>
</glyph>
<glyph name="kgreenlandic" format="2">
  <advance width="984.64"/>
  <unicode hex="0138"/>
  <anchor x="495.36" y="7.105427357601002e-15" name="bottom"/>
  <anchor x="495.36" y="918.68" name="top"/>
  <outline>
    <contour>
      <point x="126.58" y="0.0" type="line"/>
      <point x="320.86" y="0.0" type="line"/>
      <point x="320.86" y="922.12" type="line"/>
      <point x="126.58" y="921.26" type="line"/>
    </contour>
    <contour>
      <point x="811.4" y="0.0" type="line"/>
      <point x="983.5" y="0.0" type="line"/>
      <point x="498.68000000000006" y="590.76" type="line"/>
      <point x="398.66" y="498.3" type="line"/>
    </contour>
    <contour>
      <point x="245.86" y="310.56" type="line"/>
      <point x="867.72" y="922.12" type="line"/>
      <point x="826.16" y="922.12" type="line"/>
      <point x="286.58000000000004" y="399.12" type="line"/>
    </contour>
  </outline>
</glyph>
<glyph name="lslash" format="2">
  <advance width="650.2"/>
  <unicode hex="0142"/>
  <outline>
    <contour>
      <point x="217.14" y="0.0" type="line"/>
      <point x="437.34" y="0.0" type="line"/>
      <point x="437.34" y="1522.98" type="line"/>
      <point x="217.14" y="1522.98" type="line"/>
    </contour>
    <contour>
      <point x="24.08" y="537.28" type="line"/>
      <point x="653.34" y="873.38" type="line"/>
      <point x="626.12" y="924.0" type="line"/>
      <point x="-3.140000000000015" y="587.9" type="line"/>
    </contour>
  </outline>
</glyph>
<glyph name="Eng" format="2">
  <advance width="1512.94"/>
  <unicode hex="014A"/>
  <outline>
    <contour>
      <point x="1105.54" y="-414.56" type="curve" smooth="yes"/>
      <point x="1261.9" y="-414.56"/>
      <point x="1345.62" y="-311.12"/>
      <point x="1345.62" y="-135.34" type="curve" smooth="yes"/>
      <point x="1345.62" y="1438.98" type="line"/>
      <point x="1305.98" y="1438.98" type="line"/>
      <point x="1305.98" y="164.38" type="line"/>
      <point x="1330.36" y="237.1" type="line"/>
      <point x="190.54000000000002" y="1451.88" type="line"/>
      <point x="172.58" y="1451.88" type="line"/>
      <point x="172.57999999999998" y="0.0" type="line"/>
      <point x="212.22" y="0.0" type="line"/>
      <point x="212.22" y="1273.76" type="line"/>
      <point x="199.38" y="1189.6399999999999" type="line"/>
      <point x="1234.74" y="82.19999999999999" type="line" smooth="yes"/>
      <point x="1294.08" y="23.42"/>
      <point x="1305.98" y="-15.56"/>
      <point x="1305.98" y="-158.3" type="curve" smooth="yes"/>
      <point x="1305.98" y="-333.88"/>
      <point x="1199.5" y="-376.06"/>
      <point x="1106.54" y="-376.06" type="curve" smooth="yes"/>
      <point x="1021.3199999999999" y="-376.06"/>
      <point x="908.8" y="-339.03999999999996"/>
      <point x="854.56" y="-234.26" type="curve"/>
      <point x="854.56" y="-310.44" type="line"/>
      <point x="896.74" y="-368.76"/>
      <point x="999.94" y="-414.56"/>
    </contour>
  </outline>
</glyph>
<glyph name="eng" format="2">
  <advance width="1143.4"/>
  <unicode hex="014B"/>
  <outline>
    <contour>
      <point x="799.3" y="-484.84" type="curve" smooth="yes"/>
      <point x="1012.1" y="-484.84"/>
      <point x="1044.82" y="-358.36"/>
      <point x="1044.82" y="34.1" type="curve" smooth="yes"/>
      <point x="1044.82" y="577.04" type="line" smooth="yes"/>
      <point x="1044.82" y="808.86"/>
      <point x="879.06" y="948.12"/>
      <point x="662.52" y="948.12" type="curve" smooth="yes"/>
      <point x="481.36" y="948.12"/>
      <point x="324.48" y="833.42"/>
      <point x="303.02" y="639.2" type="curve"/>
      <point x="317.14" y="614.38" type="line"/>
      <point x="318.28" y="922.12" type="line"/>
      <point x="126.58" y="922.12" type="line"/>
      <point x="126.58" y="0.0" type="line"/>
      <point x="318.28" y="0.0" type="line"/>
      <point x="318.28" y="629.1" type="line" smooth="yes"/>
      <point x="318.28" y="804.5"/>
      <point x="493.82000000000005" y="922.44"/>
      <point x="641.12" y="922.44" type="curve" smooth="yes"/>
      <point x="797.76" y="922.44"/>
      <point x="852.26" y="775.66"/>
      <point x="852.26" y="543.42" type="curve" smooth="yes"/>
      <point x="852.26" y="91.10000000000001" type="line" smooth="yes"/>
      <point x="852.26" y="-216.39999999999998"/>
      <point x="907.12" y="-448.04"/>
      <point x="798.72" y="-462.72" type="curve" smooth="yes"/>
      <point x="737.02" y="-470.70000000000005"/>
      <point x="662.06" y="-398.52"/>
      <point x="662.06" y="-311.82000000000005" type="curve" smooth="yes"/>
      <point x="662.06" y="-293.38"/>
      <point x="665.78" y="-249.08"/>
      <point x="671.06" y="-217.68" type="curve"/>
      <point x="565.36" y="-240.48000000000002" type="line"/>
      <point x="555.2" y="-275.08"/>
      <point x="553.34" y="-306.5"/>
      <point x="553.34" y="-320.22" type="curve" smooth="yes"/>
      <point x="553.34" y="-426.84000000000003"/>
      <point x="653.8" y="-484.84"/>
    </contour>
  </outline>
</glyph>
<glyph name="OE" format="2">
  <advance width="2180.1"/>
  <unicode hex="0152"/>
  <note>
OE
</note>
  <anchor x="1103.78" y="0.0" name="bottom"/>
  <anchor x="1103.78" y="1435.7" name="top"/>
  <outline>
    <contour>
      <point x="770.78" y="-34.980000000000004" type="curve" smooth="yes"/>
      <point x="1168.02" y="-32.879999999999995"/>
      <point x="1459.68" y="296.16"/>
      <point x="1459.68" y="714.42" type="curve" smooth="yes"/>
      <point x="1459.68" y="1136.1"/>
      <point x="1161.46" y="1468.98"/>
      <point x="770.78" y="1468.98" type="curve" smooth="yes"/>
      <point x="377.82" y="1468.98"/>
      <point x="77.44" y="1133.98"/>
      <point x="77.44" y="713.72" type="curve" smooth="yes"/>
      <point x="77.44" y="295.6"/>
      <point x="373.54" y="-37.08"/>
    </contour>
    <contour>
      <point x="770.78" y="6.100000000000001" type="curve"/>
      <point x="511.8" y="6.099999999999994"/>
      <point x="308.52" y="308.16"/>
      <point x="308.52" y="714.58" type="curve" smooth="yes"/>
      <point x="308.52" y="1123.58"/>
      <point x="515.24" y="1428.76"/>
      <point x="770.78" y="1428.76" type="curve"/>
      <point x="1026.32" y="1428.76"/>
      <point x="1233.46" y="1123.44"/>
      <point x="1233.46" y="714.58" type="curve" smooth="yes"/>
      <point x="1233.46" y="309.3"/>
      <point x="1029.9" y="6.099999999999994"/>
    </contour>
    <contour>
      <point x="1239.32" y="0.0" type="line"/>
      <point x="2112.24" y="0.0" type="line"/>
      <point x="2112.24" y="42.78" type="line"/>
      <point x="1229.06" y="42.78" type="line"/>
      <point x="1467.82" y="11.280000000000001" type="line"/>
      <point x="1467.82" y="744.82" type="line"/>
      <point x="1297.0" y="707.74" type="line"/>
      <point x="2112.24" y="707.74" type="line"/>
      <point x="2112.24" y="749.66" type="line"/>
      <point x="1286.06" y="749.66" type="line"/>
      <point x="1467.82" y="719.02" type="line"/>
      <point x="1467.82" y="1420.86" type="line"/>
      <point x="1281.64" y="1397.06" type="line"/>
      <point x="2112.24" y="1397.06" type="line"/>
      <point x="2112.24" y="1438.98" type="line"/>
      <point x="1239.32" y="1438.98" type="line"/>
    </contour>
  </outline>
</glyph>
<glyph name="Schwa" format="2">
  <advance width="1589.02"/>
  <unicode hex="018F"/>
  <anchor x="790.94" y="0.0" name="bottom"/>
  <anchor x="790.94" y="1435.7" name="top"/>
  <outline>
    <contour>
      <point x="789.06" y="-34.980000000000004" type="curve" smooth="yes"/>
      <point x="1209.32" y="-26.000000000000004"/>
      <point x="1516.0" y="310.42"/>
      <point x="1512.44" y="728.54" type="curve" smooth="yes"/>
      <point x="1507.88" y="1150.08"/>
      <point x="1187.8" y="1476.96"/>
      <point x="774.24" y="1467.98" type="curve" smooth="yes"/>
      <point x="532.1" y="1463.28"/>
      <point x="324.54" y="1345.28"/>
      <point x="194.84" y="1164.28" type="curve"/>
      <point x="372.04" y="1164.28" type="line"/>
      <point x="467.94" y="1333.72"/>
      <point x="616.16" y="1442.44"/>
      <point x="774.24" y="1444.8600000000001" type="curve"/>
      <point x="1049.08" y="1449.42"/>
      <point x="1297.46" y="1132.56"/>
      <point x="1301.88" y="723.56" type="curve" smooth="yes"/>
      <point x="1305.44" y="317.28000000000003"/>
      <point x="1067.34" y="-7.299999999999997"/>
      <point x="788.92" y="-11.859999999999985" type="curve"/>
      <point x="510.64" y="-16.42"/>
      <point x="264.7" y="298.04"/>
      <point x="261.14" y="705.46" type="curve"/>
      <point x="50.58" y="704.6" type="line"/>
      <point x="54.14" y="281.78"/>
      <point x="368.66" y="-43.1"/>
    </contour>
    <contour>
      <point x="192.92000000000002" y="685.48" type="line"/>
      <point x="1370.62" y="685.48" type="line"/>
      <point x="1370.62" y="704.6" type="line"/>
      <point x="192.92000000000002" y="704.6" type="line"/>
    </contour>
  </outline>
</glyph>
<glyph name="florin" format="2">
  <advance width="1262.68"/>
  <unicode hex="0192"/>
  <note>
florin
</note>
  <outline>
    <contour>
      <point x="518.76" y="414.28" type="line"/>
      <point x="697.56" y="414.28" type="line"/>
      <point x="816.62" y="906.52" type="line" smooth="yes"/>
      <point x="806.0799999999999" y="1383.26"/>
      <point x="867.92" y="1533.82"/>
      <point x="1029.0" y="1533.82" type="curve"/>
      <point x="1114.74" y="1533.82"/>
      <point x="1121.36" y="1452.84"/>
      <point x="1114.38" y="1427.74" type="curve"/>
      <point x="1186.82" y="1458.58" type="line"/>
      <point x="1182.26" y="1513.22"/>
      <point x="1132.2" y="1558.36"/>
      <point x="1029.0" y="1558.36" type="curve" smooth="yes"/>
      <point x="832.92" y="1558.36"/>
      <point x="763.18" y="1428.96"/>
      <point x="699.22" y="1162.84" type="curve" smooth="yes"/>
    </contour>
    <contour>
      <point x="234.12" y="-492.58" type="curve" smooth="yes"/>
      <point x="429.34000000000003" y="-492.58"/>
      <point x="499.08000000000004" y="-362.32"/>
      <point x="574.44" y="-96.19999999999999" type="curve" smooth="yes"/>
      <point x="754.9" y="652.36" type="line"/>
      <point x="576.1" y="652.36" type="line"/>
      <point x="433.96" y="57.52000000000001" type="line" smooth="yes"/>
      <point x="383.22" y="-237.95999999999998"/>
      <point x="381.52" y="-468.04"/>
      <point x="234.12" y="-468.04" type="curve"/>
      <point x="147.51999999999998" y="-468.03999999999996"/>
      <point x="140.9" y="-386.2"/>
      <point x="147.88" y="-361.1" type="curve"/>
      <point x="75.44000000000001" y="-392.8" type="line"/>
      <point x="80.86" y="-447.44"/>
      <point x="130.92" y="-492.58"/>
    </contour>
    <contour>
      <point x="425.94" y="877.06" type="line"/>
      <point x="1019.0600000000001" y="877.06" type="line"/>
      <point x="1029.9" y="921.26" type="line"/>
      <point x="436.78" y="921.26" type="line"/>
    </contour>
  </outline>
</glyph>
<glyph name="jdotless" format="2">
  <advance width="477.12"/>
  <unicode hex="0237"/>
  <anchor x="236.14" y="-526.0" name="bottom"/>
  <anchor x="236.14" y="922.98" name="top"/>
  <outline>
    <contour>
      <point x="58.39999999999999" y="-564.46" type="curve" smooth="yes"/>
      <point x="261.26" y="-564.46"/>
      <point x="332.96" y="-457.88"/>
      <point x="332.96" y="-43.06000000000003" type="curve" smooth="yes"/>
      <point x="332.96" y="921.26" type="line"/>
      <point x="139.86" y="921.26" type="line"/>
      <point x="139.86" y="14.800000000000011" type="line" smooth="yes"/>
      <point x="139.86" y="-320.22"/>
      <point x="165.51999999999998" y="-529.8"/>
      <point x="57.82" y="-542.34" type="curve" smooth="yes"/>
      <point x="-7.1599999999999895" y="-550.32"/>
      <point x="-78.7" y="-479.14"/>
      <point x="-78.7" y="-409.4" type="curve" smooth="yes"/>
      <point x="-78.7" y="-391.1"/>
      <point x="-73.84" y="-343.38"/>
      <point x="-64.14" y="-317.82" type="curve"/>
      <point x="-170.7" y="-337.2" type="line"/>
      <point x="-180.0" y="-371.8"/>
      <point x="-181.86" y="-404.21999999999997"/>
      <point x="-181.86" y="-417.8" type="curve" smooth="yes"/>
      <point x="-181.86" y="-507.46"/>
      <point x="-103.92" y="-564.46"/>
    </contour>
  </outline>
</glyph>
<glyph name="primemod" format="2">
  <advance width="188.78"/>
  <unicode hex="02B9"/>
  <outline>
    <contour>
      <point x="188.78" y="1342.4" type="curve"/>
      <point x="50.4" y="1342.4" type="line"/>
      <point x="12.280000000000001" y="1255.16"/>
      <point x="-2.1400000000000006" y="1084.22"/>
      <point x="0.14" y="1012.1" type="curve"/>
      <point x="80.54" y="1012.1" type="line"/>
      <point x="125.38000000000001" y="1126.04"/>
      <point x="165.92000000000002" y="1256.12"/>
    </contour>
  </outline>
</glyph>
<glyph name="gravecomb" format="2">
  <unicode hex="0300"/>
  <note>
grave
</note>
  <anchor x="216.48000000000002" y="922.98" name="_top"/>
  <anchor x="216.48000000000002" y="1344.26" name="top"/>
  <outline>
    <contour>
      <point x="295.38" y="1072.12" type="curve"/>
      <point x="384.08" y="1072.12" type="line"/>
      <point x="336.94" y="1168.58"/>
      <point x="271.1" y="1277.0"/>
      <point x="225.54000000000002" y="1344.26" type="curve"/>
      <point x="59.839999999999996" y="1344.26" type="line"/>
      <point x="109.84" y="1274.26"/>
      <point x="188.42" y="1181.54"/>
    </contour>
  </outline>
</glyph>
<glyph name="acutecomb" format="2">
  <unicode hex="0301"/>
  <note>
acute
</note>
  <anchor x="214.22" y="916.1" name="_top"/>
  <anchor x="214.22" y="1344.26" name="top"/>
  <outline>
    <contour>
      <point x="52.10000000000001" y="1072.12" type="curve"/>
      <point x="140.8" y="1072.12" type="line"/>
      <point x="247.76" y="1181.54"/>
      <point x="326.34000000000003" y="1274.26"/>
      <point x="376.34" y="1344.26" type="curve"/>
      <point x="210.64" y="1344.26" type="line"/>
      <point x="165.08" y="1277.0"/>
      <point x="99.24" y="1168.58"/>
    </contour>
  </outline>
</glyph>
<glyph name="circumflexcomb" format="2">
  <unicode hex="0302"/>
  <note>
circumflex
</note>
  <anchor x="324.06" y="922.98" name="_top"/>
  <anchor x="324.06" y="1418.78" name="top"/>
  <outline>
    <contour>
      <point x="16.84" y="1061.0" type="line"/>
      <point x="108.5" y="1061.0" type="line"/>
      <point x="320.64" y="1298.98" type="line"/>
      <point x="539.76" y="1061.0" type="line"/>
      <point x="632.14" y="1061.0" type="line"/>
      <point x="387.96" y="1418.78" type="line"/>
      <point x="258.15999999999997" y="1418.78" type="line"/>
    </contour>
  </outline>
</glyph>
<glyph name="tildecomb" format="2">
  <unicode hex="0303"/>
  <note>
tilde
</note>
  <anchor x="372.86" y="917.28" name="_top"/>
  <anchor x="378.56" y="1354.84" name="top"/>
  <outline>
    <contour>
      <point x="495.1" y="1117.32" type="curve" smooth="yes"/>
      <point x="591.62" y="1117.32"/>
      <point x="649.0" y="1184.58"/>
      <point x="686.16" y="1301.88" type="curve"/>
      <point x="675.6" y="1321.7" type="line"/>
      <point x="611.8" y="1236.64"/>
      <point x="562.56" y="1210.02"/>
      <point x="508.2" y="1210.02" type="curve" smooth="yes"/>
      <point x="413.98" y="1210.02"/>
      <point x="396.34000000000003" y="1350.54"/>
      <point x="260.58" y="1350.54" type="curve" smooth="yes"/>
      <point x="164.36" y="1350.54"/>
      <point x="106.54" y="1282.28"/>
      <point x="70.1" y="1163.98" type="curve"/>
      <point x="80.66" y="1144.16" type="line"/>
      <point x="147.6" y="1229.22"/>
      <point x="190.84" y="1255.84"/>
      <point x="245.48" y="1255.84" type="curve" smooth="yes"/>
      <point x="346.84" y="1255.84"/>
      <point x="362.48" y="1117.32"/>
    </contour>
  </outline>
</glyph>
<glyph name="macroncomb" format="2">
  <unicode hex="0304"/>
  <note>
macron
</note>
  <anchor x="390.4" y="917.28" name="_top"/>
  <anchor x="390.4" y="1228.0" name="top"/>
  <outline>
    <contour>
      <point x="73.88" y="1139.6" type="line"/>
      <point x="708.06" y="1139.6" type="line"/>
      <point x="707.92" y="1228.0" type="line"/>
      <point x="73.74000000000001" y="1228.0" type="line"/>
    </contour>
  </outline>
</glyph>
<glyph name="brevecomb" format="2">
  <unicode hex="0306"/>
  <note>
breve
</note>
  <anchor x="352.84000000000003" y="922.98" name="_top"/>
  <anchor x="352.84000000000003" y="1368.46" name="top"/>
  <outline>
    <contour>
      <point x="352.84000000000003" y="1087.0" type="curve" smooth="yes"/>
      <point x="512.84" y="1087.0"/>
      <point x="609.34" y="1175.36"/>
      <point x="643.04" y="1372.76" type="curve"/>
      <point x="590.14" y="1372.76" type="line"/>
      <point x="539.76" y="1237.98"/>
      <point x="461.4" y="1180.56"/>
      <point x="352.84000000000003" y="1180.56" type="curve" smooth="yes"/>
      <point x="246.28" y="1180.56"/>
      <point x="162.36" y="1235.56"/>
      <point x="109.84" y="1372.76" type="curve"/>
      <point x="62.5" y="1372.76" type="line"/>
      <point x="93.78" y="1178.92"/>
      <point x="189.42" y="1087.0"/>
    </contour>
  </outline>
</glyph>
<glyph name="dotaccentcomb" format="2">
  <unicode hex="0307"/>
  <anchor x="177.06" y="917.28" name="_top"/>
  <anchor x="177.06" y="1310.68" name="top"/>
  <outline>
    <contour>
      <point x="177.06" y="1090.0" type="curve" smooth="yes"/>
      <point x="238.39999999999998" y="1090.0"/>
      <point x="287.9" y="1138.64"/>
      <point x="287.9" y="1200.84" type="curve" smooth="yes"/>
      <point x="287.9" y="1263.04"/>
      <point x="237.54" y="1310.68"/>
      <point x="177.06" y="1310.68" type="curve" smooth="yes"/>
      <point x="115.72" y="1310.68"/>
      <point x="66.22" y="1263.04"/>
      <point x="66.22" y="1200.84" type="curve" smooth="yes"/>
      <point x="66.22" y="1138.64"/>
      <point x="115.72" y="1090.0"/>
    </contour>
  </outline>
</glyph>
<glyph name="dieresiscomb" format="2">
  <unicode hex="0308"/>
  <note>
dieresis
</note>
  <anchor x="324.19" y="916.1" name="_top"/>
  <anchor x="324.19" y="1304.98" name="top"/>
  <outline>
    <contour>
      <point x="493.65999999999997" y="1092.14" type="curve" smooth="yes"/>
      <point x="552.72" y="1092.14"/>
      <point x="600.94" y="1138.64"/>
      <point x="600.94" y="1198.56" type="curve" smooth="yes"/>
      <point x="600.94" y="1258.48"/>
      <point x="552.72" y="1304.98"/>
      <point x="493.65999999999997" y="1304.98" type="curve" smooth="yes"/>
      <point x="435.46000000000004" y="1304.98"/>
      <point x="387.24" y="1258.48"/>
      <point x="387.24" y="1198.56" type="curve" smooth="yes"/>
      <point x="387.24" y="1138.64"/>
      <point x="434.6" y="1092.14"/>
    </contour>
    <contour>
      <point x="153.86" y="1092.14" type="curve" smooth="yes"/>
      <point x="212.92000000000002" y="1092.14"/>
      <point x="261.14" y="1138.64"/>
      <point x="261.14" y="1198.56" type="curve" smooth="yes"/>
      <point x="261.14" y="1258.48"/>
      <point x="212.92000000000002" y="1304.98"/>
      <point x="153.86" y="1304.98" type="curve" smooth="yes"/>
      <point x="95.66" y="1304.98"/>
      <point x="47.440000000000005" y="1258.48"/>
      <point x="47.440000000000005" y="1198.56" type="curve" smooth="yes"/>
      <point x="47.440000000000005" y="1138.64"/>
      <point x="94.80000000000001" y="1092.14"/>
    </contour>
  </outline>
</glyph>
<glyph name="hookabovecomb" format="2">
  <unicode hex="0309"/>
  <anchor x="173.4" y="922.98" name="_top"/>
  <anchor x="173.4" y="1439.5" name="top"/>
  <outline>
    <contour>
      <point x="100.74" y="1117.82" type="line"/>
      <point x="243.88" y="1132.8"/>
      <point x="346.0" y="1193.04"/>
      <point x="346.0" y="1296.02" type="curve" smooth="yes"/>
      <point x="346.0" y="1382.96"/>
      <point x="261.2" y="1439.5"/>
      <point x="153.7" y="1439.5" type="curve" smooth="yes"/>
      <point x="70.49999999999996" y="1439.5"/>
      <point x="20.659999999999968" y="1404.54"/>
      <point x="-0.060000000000016485" y="1376.54" type="curve"/>
      <point x="21.620000000000005" y="1357.56" type="line"/>
      <point x="63.880000000000024" y="1397.66"/>
      <point x="111.39999999999999" y="1408.82"/>
      <point x="148.0" y="1408.82" type="curve" smooth="yes"/>
      <point x="233.78" y="1408.82"/>
      <point x="246.14" y="1343.74"/>
      <point x="246.14" y="1297.16" type="curve" smooth="yes"/>
      <point x="246.14" y="1182.66"/>
      <point x="169.92000000000002" y="1161.64"/>
      <point x="100.74" y="1155.62" type="curve"/>
    </contour>
    <contour>
      <point x="100.74" y="1033.66" type="line"/>
      <point x="182.04" y="1033.66" type="line"/>
      <point x="182.04" y="1153.34" type="line"/>
      <point x="100.74" y="1136.24" type="line"/>
    </contour>
  </outline>
</glyph>
<glyph name="ringcomb" format="2">
  <unicode hex="030A"/>
  <note>
ring
</note>
  <anchor x="258.58" y="912.86" name="_top"/>
  <anchor x="258.58" y="1434.86" name="top"/>
  <outline>
    <contour>
      <point x="258.58" y="1074.64" type="curve" smooth="yes"/>
      <point x="358.66" y="1074.64"/>
      <point x="440.03999999999996" y="1150.6"/>
      <point x="440.03999999999996" y="1243.84" type="curve" smooth="yes"/>
      <point x="440.03999999999996" y="1336.36"/>
      <point x="357.66" y="1414.18"/>
      <point x="258.58" y="1414.18" type="curve" smooth="yes"/>
      <point x="158.64" y="1414.18"/>
      <point x="77.12" y="1337.22"/>
      <point x="77.12" y="1243.84" type="curve" smooth="yes"/>
      <point x="77.12" y="1150.6"/>
      <point x="157.64" y="1074.64"/>
    </contour>
    <contour>
      <point x="258.58" y="1110.72" type="curve" smooth="yes"/>
      <point x="199.72" y="1110.72"/>
      <point x="151.86" y="1171.28"/>
      <point x="151.86" y="1243.84" type="curve" smooth="yes"/>
      <point x="151.86" y="1316.54"/>
      <point x="199.72" y="1377.1"/>
      <point x="258.58" y="1377.1" type="curve" smooth="yes"/>
      <point x="316.58" y="1377.1"/>
      <point x="365.3" y="1316.54"/>
      <point x="365.3" y="1243.84" type="curve" smooth="yes"/>
      <point x="365.3" y="1171.28"/>
      <point x="316.58" y="1110.72"/>
    </contour>
  </outline>
</glyph>
<glyph name="horncomb" format="2">
  <unicode hex="031B"/>
  <anchor x="222.72" y="1247.18" name="_topright"/>
  <anchor x="285.5" y="1290.54" name="topright"/>
  <outline>
    <contour>
      <point x="265.5" y="1303.44" type="curve"/>
      <point x="185.32" y="1303.44" type="line"/>
      <point x="185.32" y="1244.26"/>
      <point x="140.04000000000002" y="1171.42"/>
      <point x="55.620000000000005" y="1169.7" type="curve"/>
      <point x="55.620000000000005" y="1125.62" type="line"/>
      <point x="159.14" y="1124.76"/>
      <point x="265.5" y="1207.88"/>
    </contour>
  </outline>
</glyph>
<glyph name="cedillacomb" format="2">
  <unicode hex="0327"/>
  <anchor x="212.94" y="5.7" name="_bottom"/>
  <anchor x="230.04000000000002" y="-378.0" name="bottom"/>
  <outline>
    <contour>
      <point x="221.34" y="-396.82" type="curve" smooth="yes"/>
      <point x="362.03999999999996" y="-396.82"/>
      <point x="439.28000000000003" y="-344.82"/>
      <point x="439.28000000000003" y="-257.6" type="curve" smooth="yes"/>
      <point x="439.28000000000003" y="-156.7"/>
      <point x="355.64" y="-101.76"/>
      <point x="257.88" y="-122.53999999999999" type="curve" smooth="yes"/>
      <point x="247.36" y="-124.28"/>
      <point x="200.16" y="-146.66"/>
      <point x="160.28" y="-165.82" type="curve"/>
      <point x="88.56" y="-214.9" type="line"/>
      <point x="169.86" y="-195.2"/>
      <point x="185.38" y="-192.04"/>
      <point x="224.22" y="-192.04" type="curve" smooth="yes"/>
      <point x="282.2" y="-192.04"/>
      <point x="312.6" y="-217.18"/>
      <point x="312.6" y="-258.46" type="curve" smooth="yes"/>
      <point x="312.6" y="-309.6"/>
      <point x="276.78000000000003" y="-340.02"/>
      <point x="207.08" y="-340.02" type="curve" smooth="yes"/>
      <point x="159.12" y="-340.02"/>
      <point x="116.7" y="-331.88"/>
      <point x="42.04" y="-307.18" type="curve"/>
      <point x="42.04" y="-353.98" type="line"/>
      <point x="106.26" y="-381.96"/>
      <point x="164.24" y="-396.82"/>
    </contour>
    <contour>
      <point x="88.56" y="-214.9" type="line"/>
      <point x="225.54" y="-159.64" type="line"/>
      <point x="314.08" y="0.0" type="line"/>
      <point x="208.96" y="0.0" type="line"/>
    </contour>
  </outline>
</glyph>
<glyph name="ogonekcomb" format="2">
  <unicode hex="0328"/>
  <anchor x="338.84000000000003" y="0.0" name="_ogonek"/>
  <outline>
    <contour>
      <point x="257.2" y="-359.56" type="curve" smooth="yes"/>
      <point x="305.56" y="-359.56"/>
      <point x="374.24" y="-340.6"/>
      <point x="450.24" y="-299.6" type="curve"/>
      <point x="450.24" y="-275.9" type="line"/>
      <point x="348.62" y="-323.14"/>
      <point x="316.32" y="-319.16"/>
      <point x="287.48" y="-319.16" type="curve" smooth="yes"/>
      <point x="228.64" y="-319.16"/>
      <point x="182.34" y="-289.04"/>
      <point x="182.34" y="-208.08" type="curve" smooth="yes"/>
      <point x="182.34" y="-119.03999999999999"/>
      <point x="235.28" y="-45.760000000000005"/>
      <point x="384.96" y="0.0" type="curve"/>
      <point x="324.32" y="0.0" type="line" smooth="yes"/>
      <point x="262.82" y="0.0"/>
      <point x="84.75999999999999" y="-67.3"/>
      <point x="84.75999999999999" y="-202.38" type="curve" smooth="yes"/>
      <point x="84.75999999999999" y="-276.98"/>
      <point x="145.48000000000002" y="-359.56"/>
    </contour>
  </outline>
</glyph>
<glyph name="strokeshortcomb" format="2">
  <unicode hex="0335"/>
  <anchor x="399.46" y="755.44" name="_center"/>
  <outline>
    <contour>
      <point x="54.279999999999994" y="733.34" type="line"/>
      <point x="743.5" y="733.34" type="line"/>
      <point x="743.5" y="776.4" type="line"/>
      <point x="54.279999999999994" y="776.4" type="line"/>
    </contour>
  </outline>
</glyph>
<glyph name="strokelongcomb" format="2">
  <unicode hex="0336"/>
  <anchor x="413.24" y="752.0" name="_center"/>
  <outline>
    <contour>
      <point x="56.0" y="725.6" type="line"/>
      <point x="769.9200000000001" y="725.6" type="line"/>
      <point x="769.9200000000001" y="776.4" type="line"/>
      <point x="56.0" y="776.4" type="line"/>
    </contour>
  </outline>
</glyph>
<glyph name="slashshortcomb" format="2">
  <unicode hex="0337"/>
  <anchor x="333.56" y="728.55" name="_center"/>
  <outline>
    <contour>
      <point x="38.0" y="530.1" type="line"/>
      <point x="649.2" y="898.88" type="line"/>
      <point x="631.5" y="927.14" type="line"/>
      <point x="20.3" y="558.36" type="line"/>
    </contour>
  </outline>
</glyph>
<glyph name="slashlongcomb" format="2">
  <unicode hex="0338"/>
  <anchor x="381.7" y="469.0" name="_center"/>
  <outline>
    <contour>
      <point x="11.300000000000004" y="-106.98" type="line"/>
      <point x="64.69999999999999" y="-106.98" type="line"/>
      <point x="751.96" y="1044.98" type="line"/>
      <point x="698.56" y="1044.98" type="line"/>
    </contour>
  </outline>
</glyph>
<glyph name="Dje-cy" format="2">
  <advance width="1545.64"/>
  <unicode hex="0402"/>
  <outline>
    <contour>
      <point x="951.74" y="-33.980000000000004" type="line"/>
      <point x="1293.32" y="-33.980000000000004"/>
      <point x="1430.36" y="160.22"/>
      <point x="1430.36" y="438.08" type="curve" smooth="yes"/>
      <point x="1430.36" y="727.56"/>
      <point x="1288.86" y="877.6"/>
      <point x="1028.58" y="877.6" type="curve" smooth="yes"/>
      <point x="844.86" y="877.6"/>
      <point x="673.42" y="803.0"/>
      <point x="630.12" y="618.68" type="curve"/>
      <point x="632.26" y="1438.98" type="line"/>
      <point x="416.44" y="1438.98" type="line"/>
      <point x="416.44" y="0.0" type="line"/>
      <point x="630.12" y="0.0" type="line"/>
      <point x="630.12" y="479.3" type="line" smooth="yes"/>
      <point x="630.12" y="765.5999999999999"/>
      <point x="828.9" y="844.36"/>
      <point x="969.12" y="844.36" type="curve" smooth="yes"/>
      <point x="1160.16" y="844.36"/>
      <point x="1245.18" y="707.76"/>
      <point x="1245.18" y="421.96" type="curve" smooth="yes"/>
      <point x="1245.18" y="174.18"/>
      <point x="1175.24" y="-14.86"/>
      <point x="961.44" y="-14.86" type="curve"/>
    </contour>
    <contour>
      <point x="68.0" y="1419.86" type="line"/>
      <point x="982.84" y="1419.86" type="line"/>
      <point x="982.84" y="1438.98" type="line"/>
      <point x="68.0" y="1438.98" type="line"/>
    </contour>
  </outline>
</glyph>
<glyph name="Lje-cy" format="2">
  <advance width="2067.92"/>
  <unicode hex="0409"/>
  <outline>
    <contour>
      <point x="1104.82" y="17.979999999999997" type="line"/>
      <point x="1062.38" y="0.0" type="line"/>
      <point x="1472.78" y="1.1102230246251565e-16" type="line" smooth="yes"/>
      <point x="1637.24" y="0.0"/>
      <point x="1766.48" y="35.74"/>
      <point x="1853.04" y="108.32000000000001" type="curve" smooth="yes"/>
      <point x="1931.62" y="175.06"/>
      <point x="1975.64" y="272.8"/>
      <point x="1977.78" y="401.36" type="curve" smooth="yes"/>
      <point x="1979.06" y="541.6"/>
      <point x="1933.62" y="648.6"/>
      <point x="1852.48" y="719.04" type="curve" smooth="yes"/>
      <point x="1763.36" y="796.1800000000001"/>
      <point x="1635.84" y="828.92"/>
      <point x="1487.64" y="829.92" type="curve" smooth="yes"/>
      <point x="1137.48" y="830.06" type="line"/>
      <point x="1136.48" y="809.8" type="line"/>
      <point x="1452.4" y="810.8" type="line" smooth="yes"/>
      <point x="1648.4" y="810.94"/>
      <point x="1798.2" y="654.06"/>
      <point x="1795.78" y="413.76" type="curve" smooth="yes"/>
      <point x="1792.5" y="175.04"/>
      <point x="1641.44" y="20.12000000000001"/>
      <point x="1445.56" y="19.119999999999997" type="curve" smooth="yes"/>
    </contour>
    <contour>
      <point x="487.98" y="1438.98" type="line"/>
      <point x="478.52" y="1008.22"/>
      <point x="469.21999999999997" y="844.9"/>
      <point x="430.2" y="625.9" type="curve" smooth="yes"/>
      <point x="382.34000000000003" y="355.15999999999997"/>
      <point x="292.06" y="126.12"/>
      <point x="98.14000000000001" y="126.12" type="curve" smooth="yes"/>
      <point x="28.440000000000012" y="126.12" type="line"/>
      <point x="28.440000000000012" y="0.0" type="line"/>
      <point x="120.92" y="0.0" type="line" smooth="yes"/>
      <point x="320.34000000000003" y="0.0"/>
      <point x="402.40000000000003" y="294.93999999999994"/>
      <point x="455.9" y="617.02" type="curve" smooth="yes"/>
      <point x="521.34" y="1017.2800000000001"/>
      <point x="503.8" y="1299.06"/>
      <point x="512.52" y="1425.58" type="curve"/>
      <point x="498.26" y="1419.86" type="line"/>
      <point x="1155.04" y="1419.86" type="line"/>
      <point x="1063.38" y="1431.72" type="line"/>
      <point x="1063.38" y="0.0" type="line"/>
      <point x="1259.96" y="0.0" type="line"/>
      <point x="1259.96" y="1438.98" type="line"/>
    </contour>
  </outline>
</glyph>
<glyph name="Nje-cy" format="2">
  <advance width="2191.78"/>
  <unicode hex="040A"/>
  <outline>
    <contour>
      <point x="171.72" y="0.0" type="line"/>
      <point x="368.3" y="0.0" type="line"/>
      <point x="368.3" y="752.24" type="line"/>
      <point x="253.0" y="720.02" type="line"/>
      <point x="1301.54" y="720.02" type="line"/>
      <point x="1186.24" y="752.24" type="line"/>
      <point x="1186.24" y="0.0" type="line"/>
      <point x="1382.82" y="0.0" type="line"/>
      <point x="1382.82" y="1438.98" type="line"/>
      <point x="1186.24" y="1438.98" type="line"/>
      <point x="1186.24" y="706.92" type="line"/>
      <point x="1301.54" y="739.14" type="line"/>
      <point x="253.0" y="739.14" type="line"/>
      <point x="368.3" y="706.92" type="line"/>
      <point x="368.3" y="1438.98" type="line"/>
      <point x="171.72" y="1438.98" type="line"/>
    </contour>
    <contour>
      <point x="1228.68" y="17.979999999999997" type="line"/>
      <point x="1186.24" y="0.0" type="line"/>
      <point x="1596.64" y="1.1102230246251565e-16" type="line" smooth="yes"/>
      <point x="1761.1" y="0.0"/>
      <point x="1890.34" y="35.74"/>
      <point x="1976.9" y="108.32000000000001" type="curve" smooth="yes"/>
      <point x="2055.48" y="175.06"/>
      <point x="2099.5" y="272.8"/>
      <point x="2101.64" y="401.36" type="curve" smooth="yes"/>
      <point x="2102.92" y="541.6"/>
      <point x="2057.48" y="648.6"/>
      <point x="1976.3400000000001" y="719.04" type="curve" smooth="yes"/>
      <point x="1887.22" y="796.1800000000001"/>
      <point x="1759.7" y="828.92"/>
      <point x="1611.5" y="829.92" type="curve" smooth="yes"/>
      <point x="1261.3400000000001" y="830.06" type="line"/>
      <point x="1260.3400000000001" y="809.8" type="line"/>
      <point x="1576.26" y="810.8" type="line" smooth="yes"/>
      <point x="1772.26" y="810.94"/>
      <point x="1922.06" y="654.06"/>
      <point x="1919.64" y="413.76" type="curve" smooth="yes"/>
      <point x="1916.3600000000001" y="175.04"/>
      <point x="1765.3" y="20.12000000000001"/>
      <point x="1569.42" y="19.119999999999997" type="curve" smooth="yes"/>
    </contour>
  </outline>
</glyph>
<glyph name="Tshe-cy" format="2">
  <advance width="1545.64"/>
  <unicode hex="040B"/>
  <outline>
    <contour>
      <point x="632.26" y="1438.98" type="line"/>
      <point x="416.44" y="1438.98" type="line"/>
      <point x="416.44" y="0.0" type="line"/>
      <point x="630.12" y="0.0" type="line"/>
      <point x="630.12" y="479.3" type="line" smooth="yes"/>
      <point x="630.12" y="765.5999999999999"/>
      <point x="830.18" y="844.36"/>
      <point x="969.12" y="844.36" type="curve" smooth="yes"/>
      <point x="1162.3" y="844.36"/>
      <point x="1233.78" y="709.24"/>
      <point x="1233.78" y="434.86" type="curve" smooth="yes"/>
      <point x="1233.78" y="0.0" type="line"/>
      <point x="1430.36" y="0.0" type="line"/>
      <point x="1430.36" y="490.88" type="line" smooth="yes"/>
      <point x="1430.36" y="750.6"/>
      <point x="1280.56" y="877.6"/>
      <point x="1028.58" y="877.6" type="curve" smooth="yes"/>
      <point x="802.5600000000001" y="877.6"/>
      <point x="616.14" y="774.42"/>
      <point x="619.54" y="508.96" type="curve"/>
      <point x="629.98" y="377.56" type="line"/>
    </contour>
    <contour>
      <point x="68.0" y="1419.86" type="line"/>
      <point x="982.84" y="1419.86" type="line"/>
      <point x="982.84" y="1438.98" type="line"/>
      <point x="68.0" y="1438.98" type="line"/>
    </contour>
  </outline>
</glyph>
<glyph name="Be-cy" format="2">
  <advance width="1279.04"/>
  <unicode hex="0411"/>
  <outline>
    <contour>
      <point x="175.0" y="0.0" type="line"/>
      <point x="658.6800000000001" y="0.0" type="line" smooth="yes"/>
      <point x="1013.62" y="0.0"/>
      <point x="1189.9" y="111.3"/>
      <point x="1189.9" y="391.12" type="curve" smooth="yes"/>
      <point x="1189.9" y="671.8"/>
      <point x="1013.62" y="783.38"/>
      <point x="658.6800000000001" y="783.38" type="curve" smooth="yes"/>
      <point x="251.32" y="783.38" type="line"/>
      <point x="354.15999999999997" y="680.54" type="line"/>
      <point x="354.15999999999997" y="1438.98" type="line"/>
      <point x="175.0" y="1438.98" type="line"/>
    </contour>
    <contour>
      <point x="354.15999999999997" y="8.700000000000003" type="line"/>
      <point x="354.15999999999997" y="867.24" type="line"/>
      <point x="251.32" y="764.4" type="line"/>
      <point x="602.76" y="765.26" type="line" smooth="yes"/>
      <point x="853.18" y="765.26"/>
      <point x="989.02" y="683.8"/>
      <point x="989.02" y="391.12" type="curve" smooth="yes"/>
      <point x="989.02" y="85.62"/>
      <point x="840.5" y="17.98000000000001"/>
      <point x="591.36" y="17.98000000000001" type="curve" smooth="yes"/>
      <point x="251.32" y="17.98000000000001" type="line"/>
    </contour>
    <contour>
      <point x="976.3" y="1419.86" type="line"/>
      <point x="976.3" y="1438.98" type="line"/>
      <point x="175.0" y="1438.98" type="line"/>
      <point x="175.0" y="1419.86" type="line"/>
    </contour>
  </outline>
</glyph>
<glyph name="De-cy" format="2">
  <advance width="1567.3"/>
  <unicode hex="0414"/>
  <outline>
    <contour>
      <point x="94.12" y="0.0" type="line"/>
      <point x="1477.84" y="0.0" type="line"/>
      <point x="1477.84" y="19.119999999999997" type="line"/>
      <point x="1133.22" y="19.119999999999997" type="line"/>
      <point x="1319.02" y="12.7" type="line"/>
      <point x="1319.02" y="1430.0" type="line"/>
      <point x="514.56" y="1430.0" type="line"/>
      <point x="514.56" y="1410.88" type="line"/>
      <point x="1270.84" y="1410.88" type="line"/>
      <point x="1122.44" y="1416.74" type="line"/>
      <point x="1122.44" y="12.7" type="line"/>
      <point x="1270.84" y="19.119999999999997" type="line"/>
      <point x="94.12" y="19.119999999999997" type="line"/>
    </contour>
    <contour>
      <point x="341.96" y="15.540000000000003" type="line"/>
      <point x="604.18" y="530.28"/>
      <point x="613.34" y="937.1199999999999"/>
      <point x="618.04" y="1411.74" type="curve"/>
      <point x="514.56" y="1412.6" type="line"/>
      <point x="509.86" y="938.98"/>
      <point x="500.82" y="531.0"/>
      <point x="223.64" y="17.260000000000005" type="curve"/>
    </contour>
    <component base="_cyrillicdescender01.case" xOffset="1255.4"/>
    <component base="_cyrillicdescender01.case" xScale="-1.0" xOffset="311.9"/>
  </outline>
</glyph>
<glyph name="Zhe-cy" format="2">
  <advance width="1828.38"/>
  <unicode hex="0416"/>
  <anchor x="1808.38" y="0.0" name="bottomright"/>
  <anchor x="914.26" y="1438.98" name="top"/>
  <outline>
    <contour>
      <point x="1592.48" y="0.0" type="line"/>
      <point x="1756.38" y="0.0" type="line"/>
      <point x="1178.98" y="801.3" type="line"/>
      <point x="1072.44" y="738.98" type="line"/>
    </contour>
    <contour>
      <point x="815.98" y="0.0" type="line"/>
      <point x="1012.4" y="0.0" type="line"/>
      <point x="1012.4" y="1438.98" type="line"/>
      <point x="815.98" y="1438.98" type="line"/>
    </contour>
    <contour>
      <point x="891.64" y="734.84" type="line"/>
      <point x="1207.62" y="734.84" type="line"/>
      <point x="1207.62" y="753.96" type="line"/>
      <point x="891.64" y="753.96" type="line"/>
    </contour>
    <contour>
      <point x="1089.12" y="744.68" type="line"/>
      <point x="1183.56" y="718.76" type="line"/>
      <point x="1693.82" y="1438.98" type="line"/>
      <point x="1578.86" y="1438.98" type="line"/>
    </contour>
    <contour>
      <point x="235.90000000000003" y="0.0" type="line"/>
      <point x="755.8" y="738.98" type="line"/>
      <point x="649.4" y="801.3" type="line"/>
      <point x="72.0" y="0.0" type="line"/>
    </contour>
    <contour>
      <point x="936.74" y="734.84" type="line"/>
      <point x="936.74" y="753.96" type="line"/>
      <point x="625.06" y="753.96" type="line"/>
      <point x="625.06" y="734.84" type="line"/>
    </contour>
    <contour>
      <point x="739.12" y="745.68" type="line"/>
      <point x="249.52" y="1438.98" type="line"/>
      <point x="134.56" y="1438.98" type="line"/>
      <point x="644.82" y="718.76" type="line"/>
    </contour>
  </outline>
</glyph>
